<svg width="48" height="48" viewBox="0 0 48 48" fill="none" xmlns="http://www.w3.org/2000/svg">
<path d="M8.85301 40.8015L5.48401 3H42.516L39.1425 40.7955L23.9775 45L8.85301 40.8015Z" fill="#1572B6"/>
<path d="M24 41.787L36.255 38.3895L39.138 6.0915H24V41.787Z" fill="#33A9DC"/>
<path d="M24 19.7865H30.135L30.558 15.039H24V10.4025H35.625L35.514 11.646L34.3755 24.423H24V19.7865Z" fill="white"/>
<path d="M24.0285 31.827L24.0075 31.833L18.8445 30.438L18.5145 26.7405H13.86L14.5095 34.02L24.006 36.657L24.0285 36.651V31.827Z" fill="#EBEBEB"/>
<path d="M29.7405 24.2265L29.1825 30.435L24.012 31.83V36.654L33.516 34.02L33.5865 33.237L34.392 24.2265H29.7405Z" fill="white"/>
<path d="M24.0165 10.4025V15.039H12.8175L12.7245 13.9965L12.513 11.646L12.402 10.4025H24.0165ZM24 19.7865V24.423H18.9015L18.8085 23.3805L18.5985 21.03L18.4875 19.7865H24Z" fill="#EBEBEB"/>
</svg>
