<svg width="48" height="48" viewBox="0 0 48 48" fill="none" xmlns="http://www.w3.org/2000/svg">
<g clip-path="url(#clip0_13_180)">
<path d="M9.78919 38.2108L1.57744 29.9991C0.603375 29.0006 0 27.5889 0 26.2091C0 25.5703 0.36 24.5717 0.631688 24L8.21175 8.21175L9.78919 38.2108Z" fill="#01579B"/>
<path d="M37.8967 9.78919L29.685 1.57744C28.9687 0.857438 27.4759 0 26.2125 0C25.1257 0 24.06 0.218813 23.3719 0.631688L8.2153 8.21175L37.8967 9.78919ZM19.5784 48H39.4742V39.4742L24.6317 34.7349L11.0526 39.4742L19.5784 48Z" fill="#40C4FF"/>
<path d="M8.21176 33.7892C8.21176 36.3229 8.52939 36.9441 9.7892 38.2108L11.0526 39.4742H39.4742L25.581 23.6859L8.21176 8.21156V33.7894V33.7892Z" fill="#29B6F6"/>
<path d="M33.4751 8.20819H8.21176L39.4742 39.4706H48V19.8924L37.8932 9.78563C36.4746 8.36344 35.2148 8.20819 33.4751 8.20819Z" fill="#01579B"/>
<path opacity="0.2" d="M10.1068 38.5249C8.84343 37.2581 8.52937 36.0088 8.52937 33.7892V8.52563L8.21531 8.21156V33.789C8.21156 36.0086 8.21156 36.6227 10.1068 38.5247L11.0526 39.4704L10.1068 38.5247V38.5249Z" fill="white"/>
<path opacity="0.2" d="M47.6859 19.5784V39.1566H39.1601L39.4742 39.4742H48V19.8924L47.6859 19.5784Z" fill="#263238"/>
<path opacity="0.2" d="M37.8967 9.78918C36.33 8.22225 35.049 8.21175 33.161 8.21175H8.2153L8.52936 8.52581H33.161C34.1032 8.52581 36.4817 8.367 37.8967 9.78918Z" fill="white"/>
<path opacity="0.2" d="M47.6859 19.5784L37.8968 9.789L29.685 1.57762C28.9688 0.857437 27.4759 0 26.2125 0C25.1258 0 24.06 0.218813 23.3719 0.631688L8.21532 8.21175L0.635262 24C0.363387 24.5753 0.00338745 25.5739 0.00338745 26.2091C0.00338745 27.5889 0.610512 28.9969 1.58101 29.9991L9.14682 37.5122C9.32683 37.7344 9.5387 37.9603 9.7892 38.2108L10.1033 38.5249L11.049 39.4706L19.2608 47.6824L19.5748 47.9964H39.4669V39.4708H47.9927V19.8923L47.6858 19.5782L47.6859 19.5784Z" fill="url(#paint0_radial_13_180)"/>
</g>
<defs>
<radialGradient id="paint0_radial_13_180" cx="0" cy="0" r="1" gradientUnits="userSpaceOnUse" gradientTransform="translate(23.998 23.9956) scale(23.9966 23.9965)">
<stop stop-color="white" stop-opacity="0.1"/>
<stop offset="1" stop-color="white" stop-opacity="0"/>
</radialGradient>
<clipPath id="clip0_13_180">
<rect width="48" height="48" fill="white"/>
</clipPath>
</defs>
</svg>
