<svg width="48" height="48" viewBox="0 0 48 48" fill="none" xmlns="http://www.w3.org/2000/svg">
<path d="M24.81 18.9945H29.1V23.3805H31.269C32.2834 23.3759 33.2904 23.2072 34.251 22.881C34.7554 22.714 35.2411 22.4948 35.7 22.227C35.1129 21.4143 34.7648 20.4536 34.695 19.4535C34.5145 17.994 34.8893 16.52 35.745 15.324L36.195 14.802L36.732 15.234C38.156 16.2781 39.1208 17.8326 39.4245 19.572C41.0801 19.0635 42.8697 19.2301 44.403 20.0355L44.9925 20.3745L44.682 20.9745C44.0539 22.0319 43.126 22.8791 42.0159 23.4086C40.9059 23.9382 39.6636 24.1262 38.4465 23.949C34.7265 33.201 26.64 37.581 16.833 37.581C11.766 37.581 7.11899 35.6865 4.47149 31.1925L4.42799 31.119L4.04999 30.3405C3.17813 28.358 2.83746 26.1826 3.06149 24.0285L3.12149 23.379H6.78899V18.9945H11.0805V14.7H19.662V10.413H24.81V18.9945Z" fill="#0096E6"/>
<path d="M18.009 36.8505C15.9102 35.9562 14.2276 34.3009 13.299 32.217C12.1896 32.5138 11.0506 32.6864 9.90301 32.7315C9.40301 32.7595 8.88051 32.7735 8.33551 32.7735C7.70351 32.7735 7.038 32.755 6.339 32.718C7.68865 34.1232 9.32494 35.2215 11.1367 35.9381C12.9485 36.6548 14.8933 36.9732 16.839 36.8715C17.231 36.8715 17.621 36.8645 18.009 36.8505ZM10.62 20.019H10.92V23.1195H10.62V20.019ZM10.056 20.019H10.356V23.1195H10.05V20.019H10.056ZM9.492 20.019H9.792V23.1195H9.492V20.019ZM8.928 20.019H9.228V23.1195H8.928V20.019ZM8.36401 20.019H8.664V23.1195H8.36401V20.019ZM7.81201 20.019H8.112V23.1195H7.81201V20.019ZM7.5 19.71H11.223V23.4285H7.5V19.71ZM11.7885 15.4185H15.5085V19.137H11.7945L11.7885 15.4185ZM14.904 15.729H15.204V18.828H14.904V15.729ZM14.34 15.729H14.64V18.828H14.34V15.729ZM13.776 15.729H14.076V18.828H13.776V15.729ZM13.212 15.729H13.512V18.828H13.212V15.729ZM12.648 15.729H12.948V18.828H12.648V15.729ZM12.096 15.729H12.396V18.828H12.096V15.729ZM11.7855 19.7085H15.5055V23.4285H11.7945V19.71L11.7855 19.7085ZM14.901 20.019H15.201V23.1195H14.901V20.019ZM14.337 20.019H14.637V23.1195H14.337V20.019ZM13.773 20.019H14.073V23.1195H13.773V20.019ZM13.209 20.019H13.509V23.1195H13.209V20.019ZM12.645 20.019H12.945V23.1195H12.645V20.019ZM12.093 20.019H12.393V23.1195H12.093V20.019ZM16.074 19.7085H19.8V23.4285H16.08V19.71L16.074 19.7085ZM19.188 20.019H19.5V23.1195H19.2L19.188 20.019ZM18.624 20.019H18.924V23.1195H18.624V20.019ZM18.06 20.019H18.36V23.1195H18.06V20.019ZM17.496 20.019H17.796V23.1195H17.496V20.019ZM16.932 20.019H17.232V23.1195H16.932V20.019ZM16.38 20.019H16.68V23.1195H16.38V20.019ZM16.071 15.4185H19.8V19.137H16.08V15.4185H16.071ZM19.185 15.729H19.5V18.828H19.2L19.185 15.729ZM18.621 15.729H18.921V18.828H18.621V15.729ZM18.057 15.729H18.357V18.828H18.057V15.729ZM17.493 15.729H17.793V18.828H17.493V15.729ZM16.929 15.729H17.229V18.828H16.929V15.729ZM16.377 15.729H16.677V18.828H16.377V15.729ZM20.358 19.7085H24.0765V23.4285H20.3565V19.71L20.358 19.7085ZM23.472 20.019H23.772V23.1195H23.472V20.019ZM22.908 20.019H23.208V23.1195H22.908V20.019ZM22.344 20.019H22.644V23.1195H22.344V20.019ZM21.78 20.019H22.08V23.1195H21.78V20.019ZM21.216 20.019H21.516V23.1195H21.216V20.019ZM20.664 20.019H20.952V23.1195H20.652V20.019H20.664ZM20.355 15.4185H24.0735V19.137H20.3535V15.4185H20.355ZM23.469 15.729H23.769V18.828H23.469V15.729ZM22.905 15.729H23.205V18.828H22.905V15.729ZM22.341 15.729H22.641V18.828H22.341V15.729ZM21.777 15.729H22.077V18.828H21.777V15.729ZM21.213 15.729H21.513V18.828H21.213V15.729ZM20.661 15.729H20.949V18.828H20.649V15.729H20.661ZM20.352 11.1285H24.0705V14.85H20.3505V11.1285H20.352ZM23.466 11.4375H23.766V14.5365H23.466V11.4375ZM22.902 11.4375H23.202V14.5365H22.902V11.4375ZM22.338 11.4375H22.638V14.5365H22.338V11.4375ZM21.774 11.4375H22.074V14.5365H21.774V11.4375ZM21.21 11.4375H21.51V14.5365H21.21V11.4375ZM20.658 11.4375H20.946V14.5365H20.646V11.4375H20.658ZM24.639 19.7085H28.3575V23.4285H24.6375V19.71L24.639 19.7085ZM27.753 20.019H28.0455V23.1195H27.7455V20.019H27.753ZM27.189 20.019H27.498V23.1195H27.189V20.019ZM26.625 20.019H26.925V23.1195H26.625V20.019ZM26.061 20.019H26.361V23.1195H26.061V20.019ZM25.497 20.019H25.797V23.1195H25.4895V20.019H25.497ZM24.945 20.019H25.245V23.1195H24.954V20.019H24.945ZM15.282 29.457C15.4849 29.457 15.6833 29.5172 15.852 29.6299C16.0207 29.7427 16.1523 29.9029 16.2299 30.0904C16.3076 30.2778 16.3279 30.4841 16.2883 30.6832C16.2487 30.8822 16.151 31.065 16.0075 31.2085C15.864 31.352 15.6812 31.4497 15.4822 31.4893C15.2831 31.5289 15.0768 31.5086 14.8894 31.4309C14.7019 31.3532 14.5417 31.2217 14.4289 31.053C14.3162 30.8843 14.256 30.6859 14.256 30.483C14.256 30.2109 14.3641 29.9499 14.5565 29.7575C14.7489 29.5651 15.0099 29.457 15.282 29.457ZM15.282 29.748C15.3728 29.7479 15.4628 29.7647 15.5475 29.7975C15.5072 29.8205 15.4728 29.8526 15.447 29.8911C15.4211 29.9297 15.4046 29.9738 15.3987 30.0198C15.3928 30.0658 15.3977 30.1126 15.4129 30.1565C15.4281 30.2003 15.4533 30.24 15.4865 30.2725C15.5197 30.3049 15.5599 30.3292 15.6041 30.3435C15.6483 30.3578 15.6952 30.3616 15.741 30.3547C15.7869 30.3477 15.8306 30.3302 15.8686 30.3036C15.9066 30.2769 15.9379 30.2418 15.96 30.201C16.0212 30.3464 16.0339 30.5077 15.9964 30.6609C15.9588 30.8142 15.873 30.9512 15.7515 31.0519C15.63 31.1526 15.4794 31.2115 15.3218 31.2199C15.1643 31.2284 15.0082 31.1859 14.8767 31.0988C14.7451 31.0117 14.6451 30.8846 14.5914 30.7362C14.5377 30.5879 14.5331 30.4262 14.5784 30.275C14.6237 30.1239 14.7164 29.9914 14.8429 29.897C14.9693 29.8026 15.1227 29.7514 15.2805 29.751L15.282 29.748Z" fill="white"/>
</svg>
