<svg width="42" height="48" viewBox="0 0 42 48" fill="none" xmlns="http://www.w3.org/2000/svg">
<g clip-path="url(#clip0_101_350)">
<path d="M17.5214 28.875C17.5036 28.9286 17.392 28.9241 17.1866 28.8616C16.9812 28.7991 16.7 28.6964 16.3429 28.5536L15.8071 28.3125C15.0214 27.9554 14.2446 27.5179 13.4768 27C13.3518 26.9107 12.9857 26.6295 12.3786 26.1563C11.7714 25.683 11.4321 25.4286 11.3607 25.3929C10.1643 27.2321 8.96786 28.8482 7.77143 30.2411C6.325 31.9375 5.3875 32.9196 4.95893 33.1875C4.8875 33.2232 4.71339 33.2589 4.43661 33.2946C4.15982 33.3304 3.99464 33.3304 3.94107 33.2946C4.04821 33.2232 4.78036 32.4018 6.1375 30.8304C6.5125 30.4018 7.27589 29.375 8.42768 27.75C9.57946 26.125 10.2804 25.0714 10.5304 24.5893C10.8339 24.0536 11.2893 23.1741 11.8964 21.9509C12.5036 20.7277 12.825 20.0357 12.8607 19.875C12.7179 19.8571 11.7357 20.1518 9.91428 20.7589C9.77143 20.7946 9.52589 20.8616 9.17768 20.9598C8.82946 21.058 8.52143 21.1429 8.25357 21.2143C7.98571 21.2857 7.83393 21.3304 7.79821 21.3482C7.7625 21.3839 7.74464 21.4777 7.74464 21.6295C7.74464 21.7813 7.73571 21.8661 7.71786 21.8839C7.62857 22.0625 7.35178 22.1964 6.8875 22.2857C6.47678 22.4107 6.05714 22.4107 5.62857 22.2857C5.30714 22.2143 5.05714 22.0268 4.87857 21.7232C4.80714 21.6161 4.7625 21.4107 4.74464 21.1071C4.85178 21.0714 5.07053 21.0268 5.40089 20.9732C5.73125 20.9196 5.99464 20.8661 6.19107 20.8125C7.22678 20.5268 8.16428 20.2411 9.00357 19.9554C10.7893 19.3304 11.7 19.0179 11.7357 19.0179C11.9143 18.9821 12.2982 18.808 12.8875 18.4955C13.4768 18.183 13.8696 17.9911 14.0661 17.9196C14.2268 17.8661 14.4187 17.7946 14.642 17.7054C14.8652 17.6161 14.9946 17.567 15.0304 17.558C15.0661 17.5491 15.1196 17.5536 15.1911 17.5714C15.2268 17.7857 15.2179 18.0804 15.1643 18.4554C15.1643 18.4911 15.0527 18.7321 14.8295 19.1786C14.6062 19.625 14.3696 20.1027 14.1196 20.6116C13.8696 21.1205 13.7179 21.4196 13.6643 21.5089C13.2179 22.4018 12.5304 23.5714 11.6018 25.0179L13.3161 25.7679C13.5304 25.875 14.1955 26.1607 15.3116 26.625C16.4277 27.0893 17.0304 27.3393 17.1196 27.375C17.1911 27.3929 17.2848 27.6205 17.4009 28.058C17.517 28.4955 17.5571 28.7679 17.5214 28.875ZM12.0304 15.8571C12.0839 16.125 12.0482 16.375 11.9232 16.6071C11.7089 17.0179 11.2625 17.3571 10.5839 17.625C10.0482 17.8393 9.5125 17.9464 8.97678 17.9464C8.5125 17.8929 8.075 17.6607 7.66428 17.25C7.41428 16.9821 7.25357 16.6161 7.18214 16.1518L7.20893 16.0714C7.2625 16.125 7.43661 16.1696 7.73125 16.2054C8.02589 16.2411 8.2625 16.2411 8.44107 16.2054C8.61964 16.1696 9.1375 16.0268 9.99464 15.7768C10.6375 15.5625 11.1286 15.4375 11.4679 15.4018C11.7714 15.4018 11.9589 15.5536 12.0304 15.8571ZM30.7268 19.3125L32.4143 25.3929L28.6911 24.2679L30.7268 19.3125ZM1.04821 40.7411L19.6375 34.5268V6.88393L1.04821 13.125V40.7411ZM34.2893 32.25L37.0214 33.0804L32.1732 15.4821L29.4946 14.6518L23.7089 29.0089L26.4411 29.8393L27.6464 26.8929L33.2982 28.6339L34.2893 32.25ZM20.8161 6.48214L36.1643 11.4107V1.23214L20.8161 6.48214ZM29.1464 41.9196L33.3786 42.2679L31.9321 46.5536L30.8607 44.7857C28.5393 46.2679 26.075 47.2321 23.4679 47.6786C22.4321 47.8929 21.6196 48 21.0304 48H18.7804C17.3696 48 15.5884 47.6518 13.4366 46.9554C11.2848 46.2589 9.64643 45.5 8.52143 44.6786C8.37857 44.5536 8.30714 44.4107 8.30714 44.25C8.30714 44.1071 8.35178 43.9866 8.44107 43.8884C8.53036 43.7902 8.64643 43.7411 8.78928 43.7411C8.86071 43.7411 9.02143 43.808 9.27143 43.942C9.52143 44.0759 9.79375 44.2232 10.0884 44.3839C10.383 44.5446 10.5661 44.6429 10.6375 44.6786C11.9411 45.3393 13.3652 45.8884 14.9098 46.3259C16.4545 46.7634 17.8607 46.9821 19.1286 46.9821C20.825 46.9821 22.3161 46.8527 23.6018 46.5938C24.8875 46.3348 26.2893 45.8839 27.8071 45.2411C28.075 45.1161 28.3473 44.9777 28.6241 44.8259C28.9009 44.6741 29.2045 44.5045 29.5348 44.317C29.8652 44.1295 30.1196 43.9821 30.2982 43.875L29.1464 41.9196ZM41.1464 13.0179V41.9196L20.4143 35.3304C20.1643 35.4375 16.8161 36.5759 10.3696 38.7455C3.92321 40.9152 0.637499 42 0.512499 42C0.280356 42 0.119642 41.8839 0.0303563 41.6518C0.0303563 41.6339 0.0214277 41.6071 0.00357056 41.5714V12.6964C0.057142 12.5357 0.0928563 12.4464 0.110713 12.4286C0.199999 12.3214 0.378571 12.2232 0.646428 12.1339C2.55714 11.4911 3.8875 11.0446 4.6375 10.7946V0.508929L19.5839 5.8125C19.6196 5.8125 21.0527 5.32143 23.883 4.33929C26.7134 3.35714 29.5348 2.38839 32.3473 1.43304C35.1598 0.477679 36.6018 0 36.6732 0C37.0304 0 37.2089 0.1875 37.2089 0.5625V11.7589L41.1464 13.0179Z" fill="#333333"/>
</g>
<defs>
<clipPath id="clip0_101_350">
<rect width="41.15" height="48" fill="white"/>
</clipPath>
</defs>
</svg>
