<svg width="55" height="48" viewBox="0 0 55 48" fill="none" xmlns="http://www.w3.org/2000/svg">
<g clip-path="url(#clip0_13_270)">
<path d="M16.6359 17.1878L26.9975 11.2055C27.1249 11.1319 27.2695 11.0932 27.4167 11.0932C27.5638 11.0932 27.7084 11.1319 27.8359 11.2055L38.1975 17.1878C38.3249 17.2614 38.4307 17.3673 38.5043 17.4947C38.5778 17.6221 38.6166 17.7667 38.6167 17.9138V29.8784C38.6167 30.1777 38.4567 30.4544 38.1975 30.6044L27.8359 36.5867C27.7084 36.6603 27.5638 36.699 27.4167 36.699C27.2695 36.699 27.1249 36.6603 26.9975 36.5867L16.6359 30.6044C16.5085 30.5308 16.4026 30.425 16.3291 30.2975C16.2555 30.1701 16.2167 30.0255 16.2167 29.8784V17.9136C16.2169 17.6141 16.3767 17.3376 16.6359 17.1876" fill="#8080F2"/>
<path d="M54.279 22.9156L41.8856 1.35467C41.4354 0.575147 40.6039 0 39.7036 0H14.9166C14.0164 0 13.1844 0.575147 12.7342 1.35467L0.341048 22.8681C-0.109085 23.6478 -0.109085 24.6319 0.341048 25.4116L12.7342 46.7959C13.1844 47.5755 14.0164 47.974 14.9166 47.974H39.7034C40.6037 47.974 41.4355 47.5874 41.8854 46.8077L54.2788 25.3886C54.7293 24.6093 54.7293 23.6951 54.2788 22.9156H54.279ZM44.0166 33.2836C44.0166 33.6004 43.8259 33.8938 43.5511 34.0525L27.7646 43.1603C27.6287 43.2382 27.4748 43.2792 27.3181 43.2792C27.1615 43.2792 27.0075 43.2382 26.8716 43.1603L11.073 34.0525C10.7984 33.8938 10.6062 33.6006 10.6062 33.2834V15.0673C10.6062 14.7501 10.7957 14.4572 11.0704 14.2985L26.856 5.1904C26.9919 5.11239 27.1458 5.07135 27.3024 5.07135C27.4591 5.07135 27.613 5.11239 27.7488 5.1904L43.5483 14.2985C43.8233 14.4572 44.0166 14.7501 44.0166 15.0673V33.2834V33.2836Z" fill="#4B32C3"/>
</g>
<defs>
<clipPath id="clip0_13_270">
<rect width="54.62" height="48" fill="white"/>
</clipPath>
</defs>
</svg>
