<svg width="32" height="48" viewBox="0 0 32 48" fill="none" xmlns="http://www.w3.org/2000/svg">
<g clip-path="url(#clip0_13_268)">
<path d="M8 48C12.416 48 16 44.416 16 40V32H8C3.584 32 0 35.584 0 40C0 44.416 3.584 48 8 48Z" fill="#0ACF83"/>
<path d="M0 24C0 19.584 3.584 16 8 16H16V32H8C3.584 32 0 28.416 0 24Z" fill="#A259FF"/>
<path d="M0 8C0 3.584 3.584 0 8 0H16V16H8C3.584 16 0 12.416 0 8Z" fill="#F24E1E"/>
<path d="M16 0H24C28.416 0 32 3.584 32 8C32 12.416 28.416 16 24 16H16V0Z" fill="#FF7262"/>
<path d="M32 24C32 28.416 28.416 32 24 32C19.584 32 16 28.416 16 24C16 19.584 19.584 16 24 16C28.416 16 32 19.584 32 24Z" fill="#1ABCFE"/>
</g>
<defs>
<clipPath id="clip0_13_268">
<rect width="32" height="48" fill="white"/>
</clipPath>
</defs>
</svg>
