<svg width="48" height="48" viewBox="0 0 48 48" fill="none" xmlns="http://www.w3.org/2000/svg">
<g clip-path="url(#clip0_13_267)">
<path d="M47.0947 21.8616L26.1375 0.905447C24.9313 -0.30149 22.9738 -0.30149 21.7661 0.905447L17.4142 5.25732L22.9348 10.7779C24.2177 10.3444 25.6888 10.6352 26.7114 11.6578C27.7389 12.687 28.0277 14.1707 27.5837 15.4577L32.904 20.7782C34.1912 20.3348 35.6764 20.6216 36.7044 21.6514C38.1413 23.0876 38.1413 25.4154 36.7044 26.8526C35.2673 28.29 32.9394 28.29 31.5015 26.8526C30.4207 25.7708 30.1538 24.1836 30.7009 22.8521L25.7393 17.8905L25.7387 30.9474C26.0984 31.1253 26.4269 31.3602 26.7114 31.6431C28.1483 33.0793 28.1483 35.4073 26.7114 36.8456C25.2743 38.2823 22.9453 38.2823 21.5102 36.8456C20.0734 35.4073 20.0734 33.0795 21.5102 31.6433C21.8545 31.2988 22.2637 31.0259 22.7141 30.8406V17.6619C22.2631 17.4778 21.8536 17.2048 21.5102 16.8593C20.4216 15.7721 20.1598 14.1748 20.7176 12.8381L15.2756 7.39557L0.905625 21.7646C-0.301875 22.9727 -0.301875 24.9304 0.905625 26.1375L21.8632 47.094C23.0698 48.3011 25.0269 48.3011 26.235 47.094L47.0946 26.2348C48.3017 25.0273 48.3017 23.0685 47.0946 21.8616" fill="#DE4C36"/>
</g>
<defs>
<clipPath id="clip0_13_267">
<rect width="48" height="48" fill="white"/>
</clipPath>
</defs>
</svg>
