<svg width="43" height="48" viewBox="0 0 43 48" fill="none" xmlns="http://www.w3.org/2000/svg">
<g clip-path="url(#clip0_13_176)">
<path fill-rule="evenodd" clip-rule="evenodd" d="M25.431 5.49383L35.2887 11.1855C35.5733 10.8844 35.8998 10.6259 36.2583 10.4182C38.3027 9.24283 40.9103 9.94067 42.0978 11.9852C43.2732 14.0297 42.5753 16.6372 40.5308 17.8247C40.175 18.0296 39.7916 18.1822 39.3923 18.278V29.6655C39.7872 29.7614 40.1665 29.9131 40.5187 30.1158C42.5753 31.3033 43.2732 33.911 42.0857 35.9555C40.9103 37.9998 38.2905 38.6977 36.246 37.5225C35.8499 37.2953 35.4931 37.0056 35.1893 36.6647L25.3917 42.3213C25.5351 42.7558 25.608 43.2105 25.6075 43.668C25.6075 46.0185 23.6978 47.9407 21.335 47.9407C18.9722 47.9407 17.0625 46.0307 17.0625 43.668C17.0625 43.248 17.1228 42.8423 17.2353 42.4592L7.38033 36.7692C7.09885 37.0643 6.77686 37.318 6.42399 37.5225C4.36733 38.6977 1.75966 37.9998 0.584327 35.9555C-0.59084 33.911 0.106994 31.3033 2.15133 30.1158C2.50351 29.913 2.88275 29.7613 3.27766 29.6653V18.278C2.87839 18.1822 2.49497 18.0296 2.13916 17.8247C0.0946604 16.6495 -0.603173 14.0297 0.572161 11.9852C1.74749 9.94067 4.36716 9.24283 6.41166 10.4182C6.76818 10.6248 7.09316 10.8816 7.37666 11.1807L17.2372 5.4875C17.1209 5.09298 17.0621 4.68378 17.0625 4.2725C17.0625 1.91 18.9722 0 21.335 0C23.6978 0 25.6075 1.90983 25.6075 4.2725C25.6075 4.69717 25.5458 5.107 25.431 5.49383ZM24.404 7.2475L34.2852 12.9525C34.1278 13.5025 34.0827 14.0785 34.1525 14.6463C34.2222 15.2141 34.4055 15.7621 34.6913 16.2577C35.2928 17.304 36.2727 17.9977 37.3602 18.268V29.6697C37.3047 29.6832 37.2495 29.698 37.1947 29.7137L24.2892 7.36167C24.3282 7.32433 24.3665 7.28633 24.404 7.24767V7.2475ZM18.3835 7.36417L5.47816 29.7158C5.42236 29.6997 5.36624 29.6847 5.30983 29.6708V18.268C6.39733 17.9977 7.37716 17.304 7.97866 16.2577C8.26506 15.7612 8.44848 15.212 8.51798 14.6431C8.58748 14.0741 8.54163 13.497 8.38316 12.9462L18.2615 7.24283C18.3013 7.284 18.342 7.3245 18.3835 7.364V7.36417ZM22.5288 8.37667L35.4312 30.7233C35.1356 31.0053 34.8823 31.3285 34.679 31.6828C34.4762 32.035 34.3246 32.4143 34.2287 32.8092H8.44166C8.34561 32.4142 8.19387 32.035 7.99099 31.6828C7.78699 31.3309 7.53415 31.0098 7.23999 30.7288L20.1448 8.37767C20.5317 8.48907 20.9324 8.5454 21.335 8.545C21.7495 8.545 22.15 8.48633 22.5288 8.37667ZM24.4947 40.7897L34.3117 35.1217C34.2822 35.0291 34.2559 34.9356 34.2328 34.8413H8.43616C8.42248 34.8967 8.4077 34.9519 8.39183 35.0067L18.2568 40.7025C18.6552 40.2883 19.1333 39.9589 19.6623 39.7343C20.1913 39.5097 20.7603 39.3944 21.335 39.3955C21.9298 39.3945 22.5182 39.518 23.0624 39.7581C23.6066 39.9982 24.0945 40.3496 24.4947 40.7897Z" fill="#E535AB"/>
</g>
<defs>
<clipPath id="clip0_13_176">
<rect width="42.67" height="48" fill="white"/>
</clipPath>
</defs>
</svg>
