<?xml version="1.0" encoding="iso-8859-1"?>
<!-- Generator: Adobe Illustrator 19.0.0, SVG Export Plug-In . SVG Version: 6.00 Build 0)  -->
<svg version="1.1" id="Layer_1" xmlns="http://www.w3.org/2000/svg" xmlns:xlink="http://www.w3.org/1999/xlink" x="0px" y="0px"
	 viewBox="0 0 512 512" style="enable-background:new 0 0 512 512;" xml:space="preserve">
<path style="fill:#F7D04A;" d="M256,94.62c-72.753,0-131.943,59.189-131.943,131.943c0,50.314,28.716,96.217,73.593,118.363v30.926
	c0,4.355,3.53,7.885,7.885,7.885h100.928c4.355,0,7.885-3.53,7.885-7.885v-30.926c44.877-22.147,73.593-68.051,73.593-118.363
	C387.943,153.809,328.753,94.62,256,94.62z"/>
<path style="fill:#F3B41B;" d="M124.058,226.563c0,50.314,28.716,96.217,73.593,118.363v30.926h24.706v-30.926
	c-44.877-22.147-73.593-68.051-73.593-118.363c0-68.588,52.608-125.11,119.589-131.36c-4.069-0.38-8.187-0.582-12.353-0.582
	C183.247,94.62,124.058,153.809,124.058,226.563z"/>
<path style="fill:#EB6836;" d="M281.294,418.798c-4.355,0-7.885-3.53-7.885-7.885V256.893h-34.818v154.021
	c0,4.355-3.53,7.885-7.885,7.885c-4.355,0-7.885-3.53-7.885-7.885V256.893h-14.099c-9.877,0-18.547-5.959-22.085-15.18
	s-1.081-19.45,6.261-26.057l6.213-5.593c7.043-6.337,16.794-7.881,25.449-4.027c8.655,3.855,14.031,12.135,14.031,21.609v13.478
	h34.818v-13.478c0-9.475,5.377-17.754,14.031-21.609c8.654-3.855,18.406-2.312,25.449,4.027l6.214,5.593
	c7.341,6.608,9.798,16.836,6.261,26.057c-3.539,9.221-12.208,15.18-22.085,15.18h-14.099v154.021
	C289.179,415.268,285.649,418.798,281.294,418.798z M289.179,241.123h14.099c7.109,0,10.589-8.964,5.276-13.746l-6.214-5.593
	c-5.019-4.518-13.16-0.851-13.16,5.861v13.478H289.179z M214.812,219.737c-1.541,0-3.386,0.458-5.15,2.046l-6.213,5.593
	c-3.739,3.364-2.542,7.498-2.087,8.686c0.455,1.187,2.333,5.06,7.361,5.06h14.099v-13.478
	C222.821,223.243,219.181,219.737,214.812,219.737z"/>
<path style="fill:#62C9CC;" d="M331.696,363.762H180.304c-4.355,0-7.885,3.53-7.885,7.885v85.158
	c0,30.435,24.76,55.195,55.195,55.195h56.772c30.435,0,55.195-24.76,55.195-55.195v-85.158
	C339.581,367.292,336.051,363.762,331.696,363.762z"/>
<path style="fill:#50A9A9;" d="M339.581,421.585v-15.77H203.433v-42.053h-23.129c-4.355,0-7.885,3.53-7.885,7.885
	c0,0,0,69.014,0,77.197c0,5.286-0.178,10.597,0.572,15.846c3.838,26.711,26.866,47.31,54.623,47.31h31.014
	c-27.805,0-50.797-20.563-54.625-47.31h135.006c0.37-2.577,0.572-5.207,0.572-7.885v-7.885H203.433v-27.335H339.581z"/>
<circle style="fill:#FEE7BE;" cx="291.745" cy="157.175" r="29.437"/>
<g>
	<path style="fill:#EB6836;" d="M256,59.926c-4.355,0-7.885-3.53-7.885-7.885V7.885C248.115,3.53,251.645,0,256,0
		c4.355,0,7.885,3.53,7.885,7.885v44.156C263.885,56.396,260.355,59.926,256,59.926z"/>
	<path style="fill:#EB6836;" d="M167.695,83.591c-2.725,0-5.375-1.414-6.836-3.944l-22.078-38.24
		c-2.177-3.771-0.885-8.594,2.886-10.771c3.771-2.178,8.594-0.885,10.771,2.886l22.078,38.24
		C177.488,76.909,173.675,83.591,167.695,83.591z"/>
	<path style="fill:#EB6836;" d="M103.032,148.239c-1.337,0-2.694-0.341-3.935-1.058l-38.24-22.078
		c-3.771-2.177-5.063-7-2.886-10.771c2.176-3.771,6.999-5.064,10.771-2.886l38.24,22.078c3.771,2.177,5.063,7,2.886,10.771
		C108.407,146.825,105.757,148.239,103.032,148.239z"/>
	<path style="fill:#EB6836;" d="M79.376,236.55H35.22c-4.355,0-7.885-3.53-7.885-7.885c0-4.355,3.53-7.885,7.885-7.885h44.156
		c4.355,0,7.885,3.53,7.885,7.885C87.261,233.02,83.73,236.55,79.376,236.55z"/>
	<path style="fill:#EB6836;" d="M64.806,346.942c-2.725,0-5.375-1.414-6.836-3.944c-2.177-3.771-0.885-8.594,2.886-10.771
		l38.24-22.078c3.771-2.177,8.594-0.885,10.771,2.886s0.885,8.594-2.886,10.771l-38.24,22.078
		C67.5,346.601,66.144,346.942,64.806,346.942z"/>
	<path style="fill:#EB6836;" d="M447.194,346.942c-1.337,0-2.694-0.341-3.935-1.058l-38.24-22.078
		c-3.771-2.177-5.063-7-2.886-10.771c2.177-3.771,6.999-5.064,10.771-2.886l38.24,22.078c3.771,2.177,5.063,7,2.886,10.771
		C452.569,345.527,449.919,346.942,447.194,346.942z"/>
	<path style="fill:#EB6836;" d="M476.78,236.55h-44.156c-4.355,0-7.885-3.53-7.885-7.885c0-4.355,3.53-7.885,7.885-7.885h44.156
		c4.355,0,7.885,3.53,7.885,7.885C484.665,233.02,481.135,236.55,476.78,236.55z"/>
	<path style="fill:#EB6836;" d="M408.968,148.239c-2.725,0-5.375-1.414-6.836-3.944c-2.177-3.771-0.885-8.594,2.886-10.771
		l38.24-22.078c3.771-2.177,8.594-0.885,10.771,2.886c2.177,3.771,0.885,8.594-2.886,10.771l-38.24,22.078
		C411.662,147.899,410.305,148.239,408.968,148.239z"/>
	<path style="fill:#EB6836;" d="M344.305,83.591c-5.98,0-9.793-6.681-6.821-11.829l22.078-38.24c2.177-3.771,7-5.064,10.771-2.886
		c3.771,2.177,5.063,7,2.886,10.771l-22.078,38.24C349.68,82.177,347.03,83.591,344.305,83.591z"/>
</g>
<g>
</g>
<g>
</g>
<g>
</g>
<g>
</g>
<g>
</g>
<g>
</g>
<g>
</g>
<g>
</g>
<g>
</g>
<g>
</g>
<g>
</g>
<g>
</g>
<g>
</g>
<g>
</g>
<g>
</g>
</svg>
