<svg width="48" height="48" viewBox="0 0 48 48" fill="none" xmlns="http://www.w3.org/2000/svg">
<path d="M3 3H45V45H3V3Z" fill="#F5DE19"/>
<path d="M31.2135 35.8125C31.5714 36.5394 32.1273 37.1504 32.8173 37.575C33.5074 37.9996 34.3033 38.2206 35.1135 38.2125C36.7485 38.2125 37.794 37.395 37.794 36.2625C37.794 34.9125 36.72 34.4295 34.92 33.642L33.933 33.219C31.083 32.0055 29.193 30.486 29.193 27.273C29.193 24.3135 31.443 22.059 34.9725 22.059C36.1151 21.9765 37.2566 22.2322 38.2548 22.7942C39.253 23.3563 40.0636 24.1998 40.5855 25.2195L37.5 27.192C37.299 26.6864 36.9491 26.2538 36.4966 25.9516C36.0442 25.6494 35.5105 25.4919 34.9665 25.5C34.7291 25.4762 34.4894 25.5022 34.2627 25.5762C34.0359 25.6502 33.827 25.7706 33.6493 25.9298C33.4717 26.089 33.3291 26.2834 33.2307 26.5007C33.1324 26.718 33.0804 26.9535 33.078 27.192C33.078 28.3755 33.8115 28.8555 35.505 29.592L36.492 30.015C39.846 31.4535 41.742 32.919 41.742 36.2145C41.742 39.768 38.9505 41.715 35.202 41.715C33.7415 41.8081 32.2852 41.4765 31.0089 40.7602C29.7327 40.044 28.691 38.9737 28.0095 37.6785L31.2135 35.8125ZM17.271 36.1545C17.8905 37.254 18.4545 38.184 19.8105 38.184C21.1065 38.184 21.9255 37.677 21.9255 35.7045V22.284H25.872V35.757C25.872 39.843 23.472 41.703 19.9785 41.703C18.7436 41.7705 17.5172 41.4628 16.4605 40.8202C15.4038 40.1777 14.5663 39.2304 14.058 38.103L17.271 36.1545Z" fill="black"/>
</svg>
