<svg width="49" height="48" viewBox="0 0 49 48" fill="none" xmlns="http://www.w3.org/2000/svg">
<g clip-path="url(#clip0_19_445)">
<path d="M28.3747 0C28.0262 0 27.7027 0.0747294 27.4039 0.174306C28.0387 0.597271 28.3871 1.15727 28.5612 1.792C28.5738 1.87915 28.5987 1.94146 28.6111 2.02842C28.6235 2.10315 28.6359 2.17788 28.6359 2.25242C28.6858 3.34758 28.3498 3.48442 28.1132 4.13158C27.7523 4.96546 27.8519 5.86146 28.2875 6.58315C28.3248 6.67031 28.3747 6.76988 28.4368 6.85704C27.9639 3.70842 30.5898 3.23558 31.0751 2.25242C31.1123 1.39388 30.4031 0.821271 29.8431 0.423153C29.3079 0.0993882 28.8227 0 28.3747 0ZM32.3319 0.709271C32.2822 0.995577 32.3195 0.920847 32.3071 1.07031C32.2947 1.16988 32.2947 1.29431 32.2822 1.39388C32.2574 1.49327 32.2325 1.59285 32.1951 1.69242C32.1702 1.79219 32.133 1.89158 32.0957 1.99115C32.0458 2.09073 32.0085 2.17788 31.9587 2.27727C31.9214 2.32715 31.8965 2.37704 31.8591 2.42673L31.7845 2.53873C31.7224 2.62588 31.6601 2.71304 31.5978 2.78758C31.5231 2.86231 31.461 2.94946 31.3738 3.01158V3.024C31.2991 3.08631 31.2245 3.16104 31.1374 3.22315C30.8761 3.42231 30.5774 3.57158 30.3035 3.75831C30.2165 3.82042 30.1294 3.87031 30.0547 3.94504C29.9675 4.00715 29.8928 4.06927 29.8182 4.14419C29.7311 4.21873 29.669 4.29346 29.5942 4.38061C29.5321 4.45515 29.4574 4.54249 29.4075 4.62946C29.3454 4.71661 29.2833 4.80358 29.2334 4.89073C29.1835 4.99049 29.1462 5.07746 29.0963 5.17685C29.0591 5.27661 29.0218 5.36376 28.997 5.46315C28.9595 5.57515 28.9347 5.67473 28.9098 5.77431C28.8974 5.82419 28.8974 5.88631 28.885 5.93619C28.8723 5.98588 28.8723 6.03576 28.8601 6.08546C28.8601 6.18504 28.8475 6.29704 28.8475 6.39661C28.8475 6.47134 28.8475 6.54588 28.8601 6.62061C28.8601 6.72019 28.8725 6.81977 28.8974 6.93177C28.9098 7.03134 28.9347 7.13073 28.9595 7.23031C28.997 7.33007 29.0218 7.42946 29.0593 7.52904C29.0839 7.59115 29.1214 7.65346 29.1462 7.70334L26.2841 6.59577C25.806 6.45963 25.3247 6.33511 24.8405 6.22231L24.0565 6.03576C23.3098 5.88631 22.5507 5.77431 21.7917 5.69976C21.7668 5.69976 21.7542 5.68715 21.7296 5.68715C20.9893 5.6126 20.2458 5.57522 19.5018 5.57515C18.9542 5.57515 18.4067 5.6 17.8717 5.63727C17.1123 5.68715 16.3534 5.78673 15.594 5.91115C15.4075 5.93619 15.2208 5.97346 15.0342 6.01092C14.6483 6.08546 14.2751 6.17261 13.9142 6.25977L13.354 6.40904C13.1675 6.48377 12.9932 6.57092 12.8191 6.64546L12.4083 6.83219C12.3835 6.84461 12.3585 6.84461 12.3462 6.85704C12.2216 6.91915 12.1096 6.96904 11.9976 7.03115C11.9676 7.04134 11.9385 7.05387 11.9105 7.06861C11.7736 7.13073 11.6368 7.20546 11.5248 7.26777C11.4376 7.30504 11.3505 7.35473 11.2759 7.392C11.2398 7.41489 11.2024 7.43569 11.1639 7.45431C11.0519 7.51642 10.9399 7.57873 10.8402 7.64104C10.7372 7.69761 10.6375 7.75995 10.5416 7.82776C10.4545 7.88988 10.3675 7.93976 10.2928 8.00188C10.2803 8.01431 10.2679 8.01431 10.2553 8.02673C10.1808 8.07661 10.0936 8.13873 10.0189 8.20104L9.99404 8.22588L9.8075 8.37515C9.78247 8.38776 9.75762 8.41261 9.73277 8.42504C9.67065 8.47473 9.60835 8.53704 9.54604 8.58692C9.53362 8.61158 9.50877 8.62419 9.49635 8.63661C9.42162 8.71134 9.34689 8.77346 9.27235 8.84819C9.25974 8.84819 9.25974 8.86061 9.2475 8.87304C9.17277 8.93515 9.09804 9.00988 9.0235 9.08461C9.01089 9.09704 9.01089 9.10946 8.99847 9.10946C8.93635 9.17158 8.87423 9.23388 8.81192 9.30861C8.78708 9.33346 8.74981 9.35831 8.72477 9.38315C8.66265 9.45788 8.58792 9.53261 8.5132 9.60715C8.50077 9.63219 8.47593 9.64461 8.46331 9.66946C8.36392 9.76904 8.27677 9.86861 8.1772 9.96819L8.13993 10.0055C7.94077 10.217 7.7292 10.4286 7.5052 10.6153C7.28453 10.8123 7.05172 10.9951 6.80816 11.1629C6.56686 11.3321 6.31773 11.4899 6.06162 11.6358C5.80763 11.7751 5.54587 11.8997 5.27762 12.009C5.01289 12.1215 4.7429 12.2212 4.46858 12.3078C3.94604 12.4198 3.4107 12.6313 2.95047 12.6686C2.8507 12.6686 2.73889 12.6935 2.63931 12.7059C2.53528 12.7295 2.43156 12.7544 2.32816 12.7806L2.02943 12.8926C1.92985 12.9299 1.83047 12.9798 1.73089 13.0295C1.64374 13.0916 1.54416 13.1415 1.45701 13.2038C1.36985 13.2659 1.28289 13.3406 1.20816 13.4153C1.12101 13.4775 1.03385 13.5646 0.959313 13.6393C0.884584 13.7265 0.809854 13.8012 0.747737 13.8882C0.685619 13.9878 0.610889 14.0749 0.561007 14.1743C0.498889 14.2616 0.436584 14.361 0.386701 14.4606C0.337007 14.5726 0.287313 14.6722 0.249854 14.7844C0.2106 14.8915 0.173261 14.9993 0.137854 15.1078C0.113007 15.2073 0.08816 15.3069 0.0757365 15.4065C0.0757365 15.4189 0.0631247 15.4313 0.0631247 15.4438C0.0382777 15.5558 0.0382777 15.7052 0.0258541 15.7798C0.0134306 15.8669 0.00100708 15.9416 0.00100708 16.0286C0.00100708 16.0785 0.00100708 16.1406 0.0134306 16.1905C0.0258541 16.2776 0.0382777 16.3524 0.063313 16.4269C0.08816 16.5016 0.113007 16.5762 0.150466 16.6509V16.6633C0.187736 16.7381 0.237431 16.8128 0.287313 16.8873C0.337007 16.9621 0.386889 17.0368 0.449195 17.1113C0.511313 17.1735 0.585854 17.2484 0.660584 17.3105C0.735313 17.3852 0.810042 17.4473 0.897007 17.5096C1.19574 17.7709 1.27047 17.8581 1.65616 18.0572C1.71828 18.0945 1.78058 18.1193 1.85531 18.1568C1.86774 18.1568 1.88016 18.1692 1.89258 18.1692C1.89258 18.1941 1.89258 18.2065 1.9052 18.2313C1.91762 18.3311 1.94247 18.4305 1.96731 18.5301C1.99216 18.6421 2.02943 18.7416 2.06689 18.8288C2.10416 18.9035 2.12901 18.9781 2.16647 19.0528C2.17889 19.0776 2.19131 19.1027 2.20374 19.1149C2.25362 19.2147 2.3035 19.3016 2.3532 19.3888L2.53974 19.6501C2.60185 19.7248 2.67658 19.812 2.75131 19.8867C2.82604 19.9612 2.90077 20.0235 2.98774 20.0981C2.98774 20.0981 3.00035 20.1107 3.01258 20.1107C3.08731 20.1728 3.16204 20.2349 3.23658 20.2848C3.32374 20.3469 3.41089 20.3968 3.51047 20.4467C3.59762 20.4964 3.6972 20.5463 3.79658 20.5835C3.87131 20.6208 3.95847 20.6456 4.04562 20.6707C4.05804 20.6831 4.07047 20.6831 4.09531 20.6955C4.1452 20.708 4.20731 20.7204 4.2572 20.7328C4.21974 21.4048 4.20731 22.0395 4.30689 22.2635C4.41889 22.5124 4.96647 21.7534 5.51404 20.8823C5.4395 21.7408 5.38981 22.7488 5.51404 23.0475C5.65089 23.3587 6.39762 22.388 7.04477 21.3176C15.8681 19.2768 23.9197 25.3747 24.766 33.9864C24.6041 32.6424 22.9491 31.8957 22.19 32.0824C21.8165 33.0033 21.182 34.1856 20.1616 34.9197C20.2485 34.0984 20.2113 33.2521 20.037 32.4309C19.7633 33.5757 19.2281 34.646 18.4938 35.5669C17.3117 35.654 16.1296 35.0816 15.5071 34.2229C15.4574 34.1856 15.445 34.1109 15.4077 34.061C15.3702 33.974 15.333 33.8869 15.3079 33.7997C15.2717 33.7163 15.2466 33.6284 15.2334 33.5384C15.221 33.4513 15.221 33.3641 15.221 33.2646V33.078C15.2334 32.9909 15.2582 32.9037 15.2831 32.8166C15.3079 32.7296 15.333 32.6424 15.3702 32.5553C15.4201 32.4681 15.4574 32.381 15.5195 32.294C15.7311 31.6966 15.7311 31.2113 15.3454 30.925C15.2707 30.8762 15.1915 30.8346 15.109 30.8008C15.0591 30.7881 14.997 30.7631 14.9471 30.7509C14.9098 30.7383 14.885 30.7258 14.8475 30.7134C14.7605 30.6886 14.6734 30.6637 14.5862 30.6513C14.5013 30.6267 14.4134 30.6141 14.325 30.6138C14.2378 30.6014 14.1382 30.589 14.0511 30.589C13.989 30.589 13.9268 30.6014 13.8643 30.6014C13.765 30.6014 13.6778 30.614 13.5907 30.6389C13.5035 30.6513 13.4163 30.6637 13.3294 30.6886C13.2422 30.7134 13.1551 30.7384 13.0679 30.7757C12.981 30.813 12.906 30.8504 12.8191 30.8877C12.7443 30.925 12.6698 30.9749 12.5827 31.0121C9.68308 32.9039 11.4128 37.334 13.3915 38.6159C12.6448 38.7528 11.8856 38.9146 11.6742 39.0763L11.6494 39.1012C12.1843 39.4249 12.7443 39.6986 13.3294 39.9351C14.1258 40.1963 14.9721 40.4328 15.3454 40.5323V40.5448C16.3764 40.7562 17.4308 40.8315 18.4814 40.7688C23.9944 40.3829 28.5119 36.1892 29.3331 30.6637C29.358 30.7757 29.383 30.8753 29.4079 30.9873C29.4451 31.2113 29.495 31.4477 29.5199 31.6841V31.6968C29.5447 31.8088 29.5571 31.9208 29.5698 32.0203V32.07C29.5822 32.182 29.5946 32.294 29.5946 32.3936C29.607 32.5304 29.6195 32.6673 29.6195 32.8043V33.0033C29.6195 33.0656 29.6319 33.1403 29.6319 33.2024C29.6319 33.2772 29.6195 33.3519 29.6195 33.4264V33.6008C29.6195 33.6879 29.607 33.7626 29.607 33.8496C29.607 33.8995 29.607 33.9492 29.5944 34.0115C29.5944 34.0984 29.582 34.1856 29.582 34.2852C29.5696 34.3224 29.5696 34.3599 29.5696 34.3972C29.5571 34.4968 29.5447 34.5839 29.5321 34.6833C29.5321 34.7208 29.5321 34.758 29.5197 34.7955C29.5073 34.9197 29.4824 35.0319 29.47 35.1563V35.1812C29.4451 35.2932 29.4201 35.4178 29.3953 35.5298V35.5671L29.3205 35.9031C29.3205 35.9155 29.3081 35.9403 29.3081 35.9528C29.2833 36.0648 29.2584 36.1768 29.221 36.2889V36.3262C29.1837 36.4506 29.1464 36.5626 29.1216 36.6746C29.109 36.6871 29.109 36.6995 29.109 36.6995L28.997 37.0728C28.9473 37.1974 28.91 37.3094 28.8601 37.4338C28.8104 37.558 28.773 37.6826 28.7233 37.7946C28.6734 37.9191 28.6235 38.0311 28.574 38.1555H28.5614C28.5117 38.2675 28.4618 38.3919 28.3995 38.5039C28.3894 38.5339 28.3769 38.563 28.3622 38.5911C28.3498 38.6037 28.3498 38.6159 28.3374 38.6285C27.5285 40.2586 26.3338 41.6898 24.8405 42.8098C24.7408 42.8719 24.6414 42.9468 24.5418 43.0214C24.517 43.0462 24.4797 43.0588 24.4547 43.0835C24.3675 43.1458 24.2805 43.2081 24.181 43.2702L24.2182 43.3449H24.2307L24.7534 43.2702H24.7658C25.0896 43.2205 25.413 43.1582 25.7365 43.0961C25.8237 43.0837 25.9233 43.0588 26.0102 43.034C26.0725 43.0214 26.1222 43.0089 26.1845 42.9965C26.2717 42.9841 26.3588 42.9592 26.4458 42.9466C26.5205 42.9218 26.5953 42.9094 26.6698 42.8845C27.9144 42.5858 29.1216 42.1751 30.2788 41.6898C28.3001 44.3902 25.6494 46.5681 22.5507 47.9992C23.9818 47.8997 25.413 47.6632 26.7944 47.2651C31.8096 45.7841 36.0283 42.4117 38.5546 37.8694C38.0418 40.7507 36.8986 43.4831 35.2068 45.8712C36.4129 45.0757 37.5273 44.1491 38.5296 43.1085C41.3173 40.1965 43.1466 36.5003 43.7689 32.5304C44.1934 34.5 44.3151 36.5227 44.1298 38.5289C53.1148 25.997 44.8765 13.0048 41.4293 9.58249C41.4167 9.55765 41.4045 9.54522 41.4045 9.52038C41.3919 9.5328 41.3919 9.5328 41.3919 9.54522C41.3919 9.53261 41.3919 9.53261 41.3795 9.52038C41.3795 9.66965 41.367 9.81892 41.3546 9.96838C41.3173 10.2545 41.2799 10.5284 41.2302 10.8023C41.1681 11.076 41.0933 11.3496 41.0186 11.6235C40.93 11.8929 40.8303 12.1586 40.7199 12.4198C40.6055 12.6777 40.481 12.931 40.3466 13.1791C40.2098 13.4155 40.0605 13.6644 39.8986 13.8884C39.7386 14.1198 39.5684 14.344 39.3885 14.5604C39.2016 14.7844 39.0026 14.9835 38.8035 15.1827C38.6863 15.2899 38.5659 15.3936 38.4426 15.4936C38.3428 15.5808 38.2559 15.6555 38.1563 15.7427C37.9323 15.9168 37.7083 16.0787 37.4595 16.228C37.223 16.3772 36.974 16.5267 36.7253 16.6511C36.4637 16.7755 36.2024 16.8875 35.9411 16.9995C35.6759 17.0997 35.406 17.1868 35.1323 17.2608C34.8571 17.3349 34.5789 17.3972 34.2984 17.4475C34.0123 17.4974 33.7262 17.5223 33.4523 17.5471C33.2531 17.5595 33.054 17.572 32.8548 17.572C32.5687 17.572 32.2824 17.5471 32.0087 17.5223C31.7224 17.4972 31.4361 17.46 31.1624 17.3976C30.8763 17.348 30.6024 17.2734 30.3285 17.1863H30.3161C30.59 17.1612 30.8639 17.1364 31.1376 17.0865C31.4183 17.0375 31.6966 16.9753 31.9715 16.9C32.2451 16.826 32.5149 16.7388 32.7801 16.6387C33.054 16.5389 33.3153 16.4147 33.5643 16.2901C33.8256 16.1658 34.062 16.0288 34.3108 15.8795C34.5473 15.7176 34.7839 15.5558 35.0079 15.3816C35.2308 15.2083 35.4427 15.0213 35.6424 14.8216C35.854 14.6349 36.0407 14.4235 36.2275 14.2118C36.4093 13.9939 36.5836 13.7697 36.75 13.5398C36.7748 13.5025 36.7999 13.4528 36.8247 13.4155C36.9491 13.2164 37.0736 13.0172 37.1856 12.8181C37.3225 12.5713 37.4471 12.318 37.559 12.0589C37.6714 11.7985 37.7711 11.5328 37.8576 11.2627C37.9447 11.001 38.007 10.7273 38.0691 10.4536C38.119 10.1675 38.1689 9.89365 38.1936 9.61977C38.2184 9.33365 38.2435 9.04753 38.2435 8.77365C38.2435 8.57449 38.231 8.37534 38.2186 8.17619C38.1938 7.89007 38.1565 7.61619 38.1188 7.34231C38.0699 7.06162 38.0077 6.78341 37.9325 6.50861C37.8451 6.24734 37.7582 5.97346 37.6586 5.71219C37.5588 5.45092 37.4346 5.18946 37.3102 4.94061C37.1731 4.69176 37.0363 4.44273 36.887 4.20649C36.7281 3.97323 36.5621 3.74492 36.3891 3.52188C36.2018 3.30722 36.011 3.09562 35.8167 2.88715C35.7119 2.78041 35.604 2.67671 35.4931 2.57619C34.9356 2.14317 34.3584 1.73615 33.7633 1.35642C33.6829 1.31007 33.5998 1.26858 33.5144 1.23219C33.1039 0.970729 32.7182 0.833882 32.3323 0.709459L32.3319 0.709271Z" fill="#E0234E"/>
</g>
<defs>
<clipPath id="clip0_19_445">
<rect width="48.19" height="48" fill="white"/>
</clipPath>
</defs>
</svg>
