<svg width="48" height="48" viewBox="0 0 48 48" fill="none" xmlns="http://www.w3.org/2000/svg">
<g clip-path="url(#clip0_12_80)">
<circle cx="24" cy="24" r="24" fill="white"/>
<path d="M22.4935 1.01174C22.3938 1.02132 22.0795 1.05391 21.7958 1.07499C15.2638 1.66532 9.14583 5.19007 5.2665 10.6085C3.12424 13.5826 1.73163 17.03 1.207 20.6576C1.023 21.9226 1 22.2944 1 24.0079C1 25.7214 1.023 26.0952 1.207 27.3582C2.45667 35.9967 8.60533 43.2532 16.9409 45.9422C18.434 46.4233 20.0076 46.7511 21.7958 46.9504C22.4935 47.0271 25.5065 47.0271 26.2042 46.9504C29.2919 46.6073 31.9101 45.8426 34.4899 44.5258C34.8867 44.3246 34.9633 44.269 34.9097 44.2249C33.6477 42.5607 32.3987 40.8867 31.1626 39.2032L27.4845 34.2333L22.8768 27.4119C21.3437 25.1303 19.7963 22.8584 18.2347 20.5962C18.2174 20.5905 18.2002 23.6207 18.1906 27.3237C18.1772 33.8021 18.1714 34.0627 18.0909 34.2161C18.0124 34.395 17.8723 34.5399 17.6961 34.6243C17.5523 34.6972 17.4277 34.7106 16.7473 34.7106H15.9692L15.7622 34.5802C15.6341 34.4994 15.5301 34.3855 15.4613 34.2506L15.3654 34.0493L15.375 25.0333L15.3884 16.0135L15.5283 15.8372C15.6225 15.7269 15.7354 15.6341 15.8618 15.5631C16.0458 15.473 16.1167 15.4653 16.8968 15.4653C17.813 15.4653 17.9663 15.4998 18.204 15.7605C18.2711 15.8333 20.7666 19.5938 23.7528 24.121L32.8262 37.8673L36.4679 43.3835L36.6538 43.2627C38.4064 42.0976 39.9954 40.7033 41.3784 39.117C44.2767 35.7998 46.1567 31.717 46.793 27.3582C46.977 26.0932 47 25.7214 47 24.0079C47 22.2944 46.977 21.9226 46.793 20.6576C45.5433 12.0211 39.3947 4.76266 31.0591 2.07357C29.5012 1.57825 27.897 1.24239 26.2712 1.07116C25.8381 1.02516 22.8673 0.975323 22.4954 1.01366L22.4935 1.01174ZM31.9101 14.9267C32.017 14.9806 32.1121 15.055 32.1901 15.1458C32.2681 15.2366 32.3273 15.3419 32.3643 15.4557C32.3988 15.5707 32.4084 18.072 32.3988 23.707L32.3854 31.7915L30.9613 29.6065L29.5315 27.4215V21.545C29.5315 17.7442 29.5487 15.6091 29.5756 15.5056C29.6075 15.3859 29.6633 15.2739 29.7398 15.1763C29.8162 15.0788 29.9116 14.9978 30.0202 14.9382C30.2062 14.8424 30.2732 14.8347 30.9786 14.8347C31.6437 14.8347 31.7606 14.8443 31.9101 14.9248V14.9267Z" fill="#333333"/>
</g>
<defs>
<clipPath id="clip0_12_80">
<rect width="48" height="48" fill="white"/>
</clipPath>
</defs>
</svg>
