<svg width="48" height="48" viewBox="0 0 48 48" fill="none" xmlns="http://www.w3.org/2000/svg">
<g clip-path="url(#clip0_13_174)">
<path d="M23.9999 47.911C23.2546 47.911 22.559 47.7349 21.9131 47.4268L15.3045 43.9496C14.3107 43.4654 14.8076 43.2894 15.1057 43.2013C16.4472 42.8052 16.6957 42.7172 18.0869 42.0128C18.2361 41.9248 18.4349 41.9688 18.5838 42.0568L23.6521 44.7418C23.8509 44.8298 24.0993 44.8298 24.2484 44.7418L44.0742 34.5743C44.2729 34.4863 44.3723 34.3102 44.3723 34.0901V13.7988C44.3723 13.5787 44.2729 13.4026 44.0742 13.3146L24.2484 3.19092C24.0496 3.10289 23.8012 3.10289 23.6521 3.19092L3.82634 13.3148C3.62759 13.4028 3.52822 13.6229 3.52822 13.7989V34.0901C3.52822 34.2662 3.62759 34.4863 3.82634 34.5743L9.24253 37.3472C12.1742 38.6676 14.0124 37.1271 14.0124 35.5866V15.5593C14.0124 15.2952 14.261 15.0311 14.6088 15.0311H17.143C17.4412 15.0311 17.7393 15.2512 17.7393 15.5593V35.5864C17.7393 39.0637 15.6026 41.0883 11.8759 41.0883C10.7331 41.0883 9.83876 41.0883 7.30476 39.988L2.08732 37.3472C0.79547 36.6868 0.000488281 35.4544 0.000488281 34.134V13.8429C0.000488281 12.5225 0.79547 11.2901 2.08732 10.6298L21.9131 0.462229C23.1553 -0.153965 24.8446 -0.153965 26.0868 0.462229L45.9126 10.6298C47.2044 11.29 47.9994 12.5224 47.9994 13.8429V34.1341C47.9994 35.4546 47.2044 36.6869 45.9126 37.3472L26.0868 47.515C25.4408 47.7791 24.6956 47.9111 23.9999 47.9111V47.911ZM30.1115 33.9579C21.4161 33.9579 19.6274 30.4368 19.6274 27.4437C19.6274 27.1796 19.8758 26.9155 20.2236 26.9155H22.8073C23.1054 26.9155 23.354 27.0916 23.354 27.3557C23.7515 29.6884 24.8943 30.8329 30.1612 30.8329C34.3351 30.8329 36.124 29.9967 36.124 28.0161C36.124 26.8715 35.6271 26.0353 29.1178 25.4629C23.7018 24.9788 20.323 23.9224 20.323 20.0932C20.323 16.5278 23.7016 14.4151 29.3663 14.4151C35.7263 14.4151 38.8567 16.3517 39.2542 20.5772C39.2542 20.7093 39.2045 20.8413 39.1052 20.9733C39.0058 21.0614 38.8567 21.1494 38.7077 21.1494H36.124C35.8754 21.1494 35.6271 20.9733 35.5772 20.7533C34.981 18.3325 33.4407 17.5403 29.3663 17.5403C24.7951 17.5403 24.2484 18.9487 24.2484 20.005C24.2484 21.2816 24.8943 21.6776 31.0556 22.3818C37.1674 23.086 40.0492 24.0985 40.0492 27.8838C39.9995 31.7572 36.4221 33.9579 30.1115 33.9579Z" fill="#539E43"/>
</g>
<defs>
<clipPath id="clip0_13_174">
<rect width="48" height="48" fill="white"/>
</clipPath>
</defs>
</svg>
