<svg width="48" height="48" viewBox="0 0 48 48" fill="none" xmlns="http://www.w3.org/2000/svg">
<path d="M22.0619 29.6251C22.1637 30.9658 22.1439 32.3129 22.0028 33.6501C21.9969 33.838 21.9417 34.0211 21.8427 34.1809C21.7437 34.3408 21.6044 34.4718 21.4388 34.5609C20.3713 35.3536 16.7934 35.5437 16.3476 33.8595C16.1832 33.853 16.3142 33.3083 16.1575 33.3289C15.8445 33.3032 15.542 33.2043 15.2742 33.0403C15.0064 32.8763 14.7809 32.6517 14.6158 32.3846C14.6223 30.5424 14.8252 23.8967 11.5326 25.6862C10.8171 26.085 10.2805 26.7415 10.032 27.5221C9.81019 28.203 9.70592 28.9168 9.72372 29.6328C9.69802 30.5501 9.9267 31.5534 9.9601 32.6544C9.97295 33.1465 10.0513 33.2711 9.68518 33.6899C9.0955 34.3643 8.06646 33.7952 7.51019 33.054C7.27494 32.6806 7.14571 32.2503 7.13634 31.8091C6.69393 26.9968 7.12922 22.1441 8.42104 17.4873C8.89252 15.9071 9.05696 15.6785 10.5575 15.3239C12.2648 14.9483 14.0207 14.8443 15.7605 15.0156C17.1107 14.5762 20.3147 12.1969 21.6971 14.0854C23.7945 13.6198 25.964 13.5788 28.0775 13.9649C30.191 14.351 32.2059 15.1564 34.0031 16.3337C35.8236 16.4714 37.6504 16.5045 39.4747 16.4326C39.7316 16.2681 40.0322 16.0921 40.2943 15.9405C40.4866 15.8103 40.7027 15.719 40.9302 15.672C41.2257 15.6258 41.6111 15.6129 41.701 15.9804C41.7793 16.3574 41.8056 16.7434 41.7794 17.1276C41.7705 17.3592 41.6843 17.5812 41.5346 17.7581C41.3849 17.9351 41.1803 18.0568 40.9533 18.104C40.4405 18.0198 39.9433 17.8587 39.4785 17.6261C37.8084 17.6723 36.7807 17.5798 35.1106 17.6261C35.3791 17.9138 35.3675 18.104 35.5628 18.4842C36.0428 19.7474 36.203 21.1097 36.0293 22.4498C35.8556 23.79 35.3533 25.0663 34.5671 26.1654C34.4489 28.0796 34.5928 30.0131 34.607 31.9337C34.6134 32.5953 34.6596 33.2248 34.0366 33.6642C33.487 33.9936 32.8693 34.1927 32.2308 34.2462C31.5923 34.2996 30.95 34.206 30.3533 33.9725C30.0281 33.7858 29.7377 33.5442 29.4952 33.2582C29.2819 33.2816 29.0669 33.2859 28.8528 33.2711C28.4889 33.1693 28.1743 32.9387 27.9677 32.6223C27.8492 32.4059 27.7483 32.1803 27.6658 31.9478C27.6658 31.0485 27.6324 30.6965 27.6324 29.7985C25.7802 30.13 23.8797 30.0767 22.0491 29.6418L22.0619 29.6251Z" fill="#CCCCCC"/>
<path d="M18.9902 35.3523C18.4596 35.3602 17.9313 35.2803 17.4267 35.1159C17.1466 35.0407 16.8879 34.9012 16.6712 34.7085C16.4544 34.5159 16.2855 34.2753 16.178 34.0059C16.0844 33.8893 16.0385 33.7414 16.0495 33.5923V33.5344C15.723 33.4855 15.4107 33.3672 15.1337 33.1875C14.8567 33.0078 14.6215 32.7708 14.4437 32.4926L14.4128 32.4425V32.1084C14.4244 30.5899 14.454 26.5547 13.0845 25.7338C12.854 25.6218 12.5974 25.5746 12.3421 25.5972C12.0868 25.6198 11.8425 25.7115 11.6353 25.8623C10.9603 26.2384 10.4547 26.8584 10.2222 27.5953C10.0104 28.254 9.91135 28.9437 9.92927 29.6354C9.92932 30.1512 9.96581 30.6664 10.0385 31.177C10.0937 31.6472 10.1502 32.1354 10.1669 32.648C10.1669 32.7238 10.1669 32.7893 10.1759 32.8484C10.2052 33.0261 10.19 33.2082 10.1317 33.3786C10.0734 33.549 9.97385 33.7023 9.84191 33.8248C9.73756 33.948 9.60619 34.0455 9.45801 34.1097C9.30984 34.1739 9.14885 34.203 8.98758 34.1948C8.65837 34.1493 8.34237 34.0352 8.06 33.86C7.77762 33.6847 7.53517 33.4521 7.34832 33.1773C7.08484 32.7748 6.94136 32.3056 6.93464 31.8245C6.48653 26.9869 6.92538 22.1082 8.22962 17.4282C8.71138 15.8159 8.92335 15.5012 10.5151 15.1248C12.23 14.7474 13.9933 14.6403 15.7412 14.8075C16.1255 14.6578 16.5008 14.4863 16.8653 14.2936C18.4481 13.5022 20.6038 12.4269 21.787 13.8645C23.8841 13.412 26.0501 13.3797 28.1597 13.7695C30.2694 14.1594 32.2808 14.9637 34.0777 16.1358C35.8563 16.2696 37.6411 16.3004 39.4233 16.2283C39.6802 16.0703 39.9526 15.9059 40.2018 15.762L40.2737 15.7209C40.4664 15.5944 40.682 15.5071 40.9084 15.4639C41.4788 15.3753 41.8077 15.532 41.9066 15.9277C41.989 16.3242 42.0171 16.73 41.9901 17.134C41.9772 17.4148 41.8698 17.6829 41.6853 17.8949C41.5008 18.1069 41.2501 18.2503 40.9739 18.3018H40.9405L40.9084 18.2928C40.7975 18.2645 40.6861 18.2379 40.5744 18.2132C40.1735 18.1446 39.7854 18.0155 39.4233 17.8303C38.6101 17.8509 37.9394 17.8393 37.292 17.8303C36.7357 17.8214 36.164 17.8111 35.5011 17.8214C35.5422 17.9023 35.5718 17.9807 35.6039 18.0603C35.6456 18.1726 35.6936 18.2824 35.7478 18.3892C36.2461 19.6799 36.4177 21.0739 36.2471 22.447C36.0765 23.82 35.5692 25.1296 34.7701 26.2592C34.6982 27.5002 34.7354 28.7734 34.7701 30.0054C34.7894 30.6362 34.8086 31.2901 34.8125 31.9324V32.0429C34.8744 32.3729 34.8458 32.7135 34.7298 33.0286C34.6137 33.3436 34.4146 33.6214 34.1535 33.8325C33.5764 34.1838 32.9256 34.3965 32.2524 34.4538C31.5792 34.5111 30.9019 34.4114 30.2737 34.1627C29.9971 34.0257 29.7508 33.8349 29.5491 33.6012C29.5041 33.555 29.4592 33.5088 29.4129 33.4651C29.35 33.4651 29.2845 33.4728 29.2267 33.4792C29.086 33.5013 28.9425 33.4987 28.8027 33.4715C28.3895 33.3572 28.032 33.0964 27.7968 32.7379C27.7064 32.5921 27.6327 32.4365 27.5771 32.2742C27.547 32.1927 27.5144 32.1121 27.4795 32.0326L27.4615 31.9928V31.9491C27.4615 31.5033 27.4538 31.186 27.4448 30.8803C27.4384 30.6233 27.4319 30.3664 27.4294 30.0337C25.724 30.3142 23.9813 30.2741 22.2906 29.9155C22.3678 31.1707 22.3399 32.4303 22.2071 33.6809C22.1974 33.8952 22.1334 34.1035 22.021 34.2862C21.9087 34.4689 21.7516 34.6201 21.5647 34.7254C20.7821 35.171 19.8901 35.3882 18.9902 35.3523ZM16.4607 33.6591H16.5069L16.5454 33.8055C16.6231 34.0326 16.7571 34.2362 16.9348 34.3975C17.1125 34.5588 17.3281 34.6725 17.5616 34.7279C18.8087 35.1081 20.1547 34.9888 21.3155 34.3952C21.4582 34.3225 21.5784 34.2124 21.6633 34.0766C21.7481 33.9408 21.7944 33.7845 21.7973 33.6244C21.9315 32.3544 21.9552 31.0752 21.8679 29.8011L21.7587 29.7703L22.2084 28.8787L22.261 29.4735C24.0216 29.8628 25.8416 29.9012 27.6169 29.5866L27.8495 29.5557V29.7896C27.8495 30.2354 27.8572 30.5527 27.8662 30.8584C27.8752 31.1642 27.8816 31.4661 27.8829 31.8952C27.915 31.971 27.9432 32.0442 27.9715 32.1149C28.0169 32.2494 28.0768 32.3787 28.1501 32.5003C28.33 32.7759 28.6039 32.9768 28.9209 33.0655C29.0129 33.0793 29.1064 33.0793 29.1984 33.0655C29.3024 33.0532 29.4071 33.0476 29.5119 33.0488H29.5889L29.6455 33.1015C29.7148 33.1657 29.7842 33.2364 29.8536 33.3071C30.0185 33.5003 30.2191 33.66 30.4445 33.7773C31.0089 33.9974 31.6161 34.086 32.2199 34.0361C32.8236 33.9862 33.408 33.7993 33.9286 33.4895C34.4271 33.1375 34.4207 32.6544 34.413 32.0416V31.9299C34.413 31.2875 34.3898 30.6452 34.3706 30.0131C34.3333 28.7451 34.2948 27.4334 34.3706 26.1475V26.0627L34.4348 26.0061C35.1921 24.941 35.675 23.7055 35.8406 22.4091C36.0062 21.1127 35.8495 19.7955 35.3842 18.5742C35.3233 18.4545 35.2692 18.3313 35.2223 18.2055C35.1706 18.0401 35.0829 17.8883 34.9654 17.761L34.6558 17.4282L35.1093 17.4154C35.9495 17.3923 36.6355 17.4038 37.301 17.4154C37.9664 17.4269 38.6435 17.4385 39.4734 17.4154H39.5338L39.5851 17.4475C39.9201 17.629 40.2824 17.7544 40.6579 17.8188C40.7632 17.8432 40.8673 17.8663 40.9688 17.892C41.1377 17.8395 41.2864 17.7362 41.3947 17.5962C41.5029 17.4563 41.5655 17.2864 41.5738 17.1096C41.5984 16.7452 41.5733 16.3792 41.4993 16.0215C41.4814 15.9431 41.4467 15.7954 40.9649 15.8712C40.7887 15.9058 40.6211 15.9748 40.4716 16.0742L40.3996 16.1153C40.1427 16.2617 39.8485 16.4403 39.589 16.6022L39.5415 16.6317H39.4862C37.6539 16.7068 35.8187 16.6737 33.9903 16.5328H33.9363L33.8914 16.502C32.1167 15.3383 30.1265 14.5426 28.0388 14.1619C25.951 13.7813 23.8081 13.8234 21.7369 14.2859L21.6084 14.309L21.5326 14.2062C20.573 12.8958 18.5341 13.9146 17.0452 14.6584C16.651 14.8693 16.2433 15.0538 15.8247 15.2109L15.7836 15.2237H15.7412C14.023 15.0542 12.2888 15.1565 10.6024 15.5269C9.1623 15.866 9.06081 16.0408 8.61502 17.549C7.32334 22.1803 6.88797 27.0086 7.33033 31.7963C7.33308 32.1983 7.44786 32.5915 7.66178 32.9319C7.81302 33.1574 8.00875 33.3497 8.23696 33.4968C8.46517 33.6439 8.72104 33.7429 8.98887 33.7875C9.08913 33.7933 9.18935 33.7756 9.2815 33.7356C9.37364 33.6957 9.45514 33.6347 9.51945 33.5576C9.61608 33.475 9.68876 33.3681 9.7299 33.2478C9.77103 33.1276 9.7791 32.9985 9.75326 32.8741C9.75326 32.8112 9.74555 32.7456 9.74427 32.6634C9.72462 32.1829 9.68175 31.7035 9.6158 31.2271C9.54066 30.6982 9.50331 30.1645 9.50403 29.6303C9.48524 28.8891 9.59432 28.1503 9.82649 27.4463C10.0936 26.6221 10.6627 25.9295 11.4195 25.5077C11.6877 25.3193 12.0022 25.2077 12.3292 25.1851C12.6561 25.1625 12.983 25.2296 13.2746 25.3792C14.8458 26.3209 14.8162 30.3767 14.8034 32.1084V32.323C14.9504 32.5458 15.1452 32.7332 15.3736 32.8714C15.6021 33.0096 15.8584 33.0952 16.1241 33.1221C16.1584 33.1182 16.1932 33.1214 16.2263 33.1313C16.2594 33.1413 16.2902 33.1578 16.3168 33.1799C16.3632 33.232 16.3986 33.2931 16.4207 33.3593C16.4428 33.4256 16.4511 33.4957 16.4452 33.5653C16.4568 33.5948 16.4581 33.6321 16.4607 33.6591Z" fill="#CCCCCC"/>
<path d="M21.2975 29.1113C21.3993 30.4519 21.3795 31.7991 21.2384 33.1362C21.2325 33.3241 21.1773 33.5072 21.0783 33.6671C20.9793 33.8269 20.84 33.958 20.6744 34.047C19.6069 34.8397 16.029 35.0298 15.5832 33.3456C15.4188 33.3392 15.5498 32.7945 15.3931 32.815C15.0801 32.7893 14.7776 32.6905 14.5098 32.5265C14.242 32.3625 14.0165 32.1379 13.8514 31.8708C13.8579 30.0285 14.0608 23.3828 10.7682 25.1724C10.0527 25.5711 9.51606 26.2277 9.26764 27.0082C9.04578 27.6892 8.94151 28.403 8.95931 29.119C8.93362 30.0362 9.1623 31.0396 9.1957 32.1406C9.20854 32.6326 9.28691 32.7572 8.92077 33.176C8.3311 33.8505 7.30206 33.2814 6.74579 32.5401C6.51053 32.1667 6.3813 31.7364 6.37194 31.2952C5.92952 26.4829 6.36482 21.6302 7.65663 16.9735C8.12812 15.3933 8.29256 15.1646 9.79308 14.81C11.5004 14.4345 13.2563 14.3304 14.9961 14.5017C16.3463 14.0623 19.5503 11.6831 20.9327 13.5716C23.0301 13.1059 25.1996 13.0649 27.3131 13.451C29.4266 13.8372 31.4414 14.6426 33.2387 15.8198C35.0592 15.9576 36.886 15.9906 38.7103 15.9187C38.9672 15.7543 39.2678 15.5783 39.5299 15.4267C39.7222 15.2964 39.9383 15.2052 40.1658 15.1582C40.4613 15.1119 40.8467 15.0991 40.9366 15.4665C41.0149 15.8436 41.0412 16.2296 41.015 16.6137C41.0061 16.8454 40.9199 17.0673 40.7702 17.2443C40.6205 17.4212 40.4159 17.543 40.1889 17.5901C39.6761 17.5059 39.1789 17.3448 38.7141 17.1122C37.044 17.1585 36.0163 17.066 34.3462 17.1122C34.6147 17.4 34.6031 17.5901 34.7984 17.9704C35.2784 19.2336 35.4386 20.5959 35.2649 21.936C35.0912 23.2761 34.5889 24.5525 33.8027 25.6516C33.6845 27.5658 33.8284 29.4992 33.8426 31.4198C33.849 32.0815 33.8952 32.711 33.2721 33.1503C32.7226 33.4798 32.1049 33.6789 31.4664 33.7323C30.8279 33.7858 30.1856 33.6922 29.5889 33.4587C29.2637 33.272 28.9733 33.0303 28.7308 32.7444C28.5174 32.7677 28.3025 32.772 28.0884 32.7572C27.7244 32.6554 27.4099 32.4249 27.2033 32.1084C27.0848 31.892 26.9839 31.6665 26.9013 31.434C26.9013 30.5347 26.8679 30.1827 26.8679 29.2847C25.0158 29.6162 23.1153 29.5628 21.2847 29.1279L21.2975 29.1113Z" fill="#373435"/>
<path d="M18.2258 34.8384C17.6952 34.8463 17.1669 34.7664 16.6623 34.602C16.3822 34.5268 16.1235 34.3873 15.9068 34.1946C15.69 34.002 15.5211 33.7614 15.4136 33.492C15.32 33.3754 15.2741 33.2275 15.2851 33.0784V33.0205C14.9586 32.9716 14.6463 32.8533 14.3693 32.6736C14.0923 32.4939 13.857 32.2569 13.6793 31.9787L13.6484 31.9286V31.5945C13.66 30.076 13.6896 26.0408 12.3201 25.2199C12.0896 25.1079 11.833 25.0607 11.5777 25.0833C11.3224 25.1059 11.0781 25.1976 10.8709 25.3484C10.1959 25.7245 9.69033 26.3445 9.45777 27.0814C9.24597 27.7401 9.14694 28.4298 9.16486 29.1215C9.1649 29.6373 9.20139 30.1525 9.27406 30.6631C9.3293 31.1346 9.38583 31.6215 9.40253 32.1354C9.40253 32.2112 9.40253 32.2767 9.41152 32.3358C9.44076 32.5135 9.42556 32.6956 9.36728 32.866C9.309 33.0364 9.20944 33.1896 9.0775 33.3122C8.97322 33.4355 8.84186 33.533 8.69367 33.5972C8.54547 33.6614 8.38446 33.6905 8.22318 33.6822C7.89396 33.6367 7.57796 33.5226 7.29559 33.3474C7.01322 33.1721 6.77077 32.9395 6.58391 32.6647C6.3205 32.2621 6.17702 31.7929 6.17024 31.3119C5.72196 26.4739 6.16082 21.5947 7.46521 16.9143C7.94697 15.302 8.15894 14.9873 9.75068 14.6109C11.4655 14.2334 13.2289 14.1264 14.9768 14.2936C15.3611 14.1439 15.7364 13.9724 16.1009 13.7797C17.6837 12.9883 19.8394 11.9117 21.0226 13.3506C23.1198 12.8983 25.2858 12.8663 27.3955 13.2564C29.5051 13.6465 31.5165 14.4509 33.3133 15.6232C35.0897 15.7576 36.8724 15.7894 38.6524 15.7183C38.903 15.5628 39.183 15.3945 39.431 15.2519L39.5029 15.2108C39.6955 15.0844 39.9112 14.997 40.1375 14.9539C40.7079 14.8653 41.0368 15.022 41.1358 15.4177C41.2182 15.8141 41.2462 16.22 41.2193 16.624C41.2064 16.9047 41.099 17.1728 40.9145 17.3848C40.73 17.5968 40.4793 17.7402 40.2031 17.7918H40.1697L40.1375 17.7828C40.0266 17.7544 39.9153 17.7279 39.8035 17.7031C39.4056 17.6328 39.0206 17.5029 38.6614 17.3177C37.8482 17.3383 37.1776 17.3267 36.5301 17.3177C35.9739 17.3087 35.4022 17.2985 34.7393 17.3087C34.7804 17.3897 34.8099 17.468 34.842 17.5477C34.8837 17.6599 34.9318 17.7698 34.9859 17.8766C35.4842 19.1673 35.6557 20.5613 35.4851 21.9343C35.3145 23.3074 34.8072 24.617 34.0083 25.7466C33.9363 26.9876 33.9736 28.2608 34.0083 29.4915C34.0263 30.1236 34.0455 30.7762 34.0507 31.4185V31.529C34.1127 31.8589 34.0843 32.1994 33.9685 32.5145C33.8527 32.8295 33.6538 33.1074 33.3929 33.3186C32.8158 33.6699 32.1651 33.8826 31.4918 33.9399C30.8186 33.9972 30.1413 33.8975 29.5131 33.6488C29.2366 33.5118 28.9902 33.321 28.7886 33.0874C28.7436 33.0411 28.6986 32.9949 28.6524 32.9512C28.5894 32.9512 28.5239 32.9589 28.4661 32.9653C28.3254 32.9875 28.1819 32.9849 28.0422 32.9576C27.6289 32.8433 27.2714 32.5825 27.0362 32.224C26.9457 32.0782 26.872 31.9227 26.8166 31.7603C26.7864 31.6788 26.7539 31.5983 26.7189 31.5187L26.7009 31.4789V31.4352C26.7009 30.9894 26.6932 30.6721 26.6842 30.3664C26.6778 30.1094 26.6701 29.8525 26.6688 29.5198C24.9634 29.8003 23.2207 29.7602 21.53 29.4016C21.604 30.6558 21.5731 31.9141 21.4375 33.1631C21.4279 33.3774 21.3639 33.5857 21.2515 33.7685C21.1391 33.9512 20.9821 34.1023 20.7952 34.2076C20.0144 34.6537 19.1244 34.8722 18.2258 34.8384ZM15.6962 33.1452H15.7425L15.781 33.2916C15.8587 33.5187 15.9927 33.7224 16.1704 33.8836C16.3481 34.0449 16.5637 34.1586 16.7972 34.214C18.0443 34.5944 19.3904 34.475 20.5511 33.8813C20.6938 33.8086 20.814 33.6985 20.8988 33.5627C20.9837 33.4269 21.03 33.2706 21.0329 33.1105C21.1671 31.8405 21.1907 30.5613 21.1035 29.2872L20.9943 29.2564L21.4375 28.3712L21.4902 28.9661C23.2507 29.3553 25.0707 29.3937 26.8461 29.0791L27.0786 29.0483V29.2821C27.0786 29.7279 27.0863 30.0452 27.0953 30.351C27.1043 30.6567 27.1107 30.9586 27.112 31.3877C27.1442 31.4635 27.1724 31.5367 27.2007 31.6087C27.246 31.7433 27.3058 31.8725 27.3792 31.9941C27.5592 32.2697 27.8331 32.4706 28.1501 32.5593C28.242 32.5733 28.3356 32.5733 28.4276 32.5593C28.5316 32.547 28.6363 32.5414 28.741 32.5426H28.8181L28.8746 32.5953C28.944 32.6595 29.0134 32.7238 29.0828 32.8009C29.2477 32.9941 29.4483 33.1538 29.6737 33.2711C30.2381 33.4912 30.8453 33.5798 31.449 33.5299C32.0528 33.48 32.6372 33.2931 33.1578 32.9833C33.6563 32.6313 33.6498 32.1482 33.6421 31.5354V31.4237C33.6421 30.7813 33.619 30.139 33.5997 29.5056C33.5625 28.2376 33.5239 26.9272 33.5997 25.6413V25.5565L33.664 25.4999C34.4212 24.4348 34.904 23.1993 35.0696 21.9029C35.2352 20.6065 35.0785 19.2893 34.6134 18.068C34.5525 17.9483 34.4984 17.8252 34.4515 17.6993C34.3998 17.5339 34.312 17.3821 34.1946 17.2548L33.8849 16.922L34.3384 16.9092C35.1786 16.8861 35.8647 16.8976 36.5301 16.9092C37.1956 16.9208 37.8726 16.9323 38.7025 16.9092H38.7629L38.8143 16.9413C39.1492 17.1228 39.5116 17.2482 39.887 17.3126C39.9924 17.337 40.0964 17.3601 40.1979 17.3858C40.3669 17.3333 40.5156 17.23 40.6238 17.09C40.7321 16.9501 40.7946 16.7802 40.803 16.6034C40.8275 16.239 40.8024 15.873 40.7285 15.5153C40.7105 15.4369 40.6758 15.2905 40.1941 15.365C40.0179 15.3996 39.8503 15.4686 39.7007 15.568L39.6275 15.6091C39.3706 15.7568 39.0738 15.9354 38.8169 16.096L38.7809 16.1217H38.7257C36.8933 16.1966 35.0582 16.1636 33.2297 16.0228H33.1758L33.1283 15.9894C31.3536 14.8257 29.3634 14.03 27.2756 13.6493C25.1879 13.2686 23.0449 13.3108 20.9738 13.7733L20.8453 13.7964L20.7695 13.6936C19.8098 12.3832 17.771 13.402 16.2821 14.1458C15.8879 14.3567 15.4802 14.5412 15.0616 14.6982L15.0205 14.7111H14.9781C13.2599 14.5415 11.5257 14.6438 9.83932 15.0143C8.39918 15.3534 8.29769 15.5282 7.8519 17.0364C6.56022 21.6677 6.12485 26.4959 6.56721 31.2836C6.56996 31.6857 6.68474 32.0789 6.89866 32.4193C7.04989 32.6448 7.24562 32.837 7.47383 32.9842C7.70204 33.1313 7.95792 33.2302 8.22575 33.2749C8.32609 33.2815 8.42655 33.264 8.51881 33.224C8.61108 33.184 8.69249 33.1227 8.75633 33.045C8.85296 32.9624 8.92564 32.8555 8.96678 32.7352C9.00791 32.615 9.01598 32.4859 8.99014 32.3615C8.99014 32.2985 8.98243 32.233 8.98115 32.1508C8.9615 31.6703 8.91863 31.1909 8.85268 30.7145C8.77749 30.1856 8.74014 29.6519 8.74091 29.1176C8.72212 28.3765 8.8312 27.6377 9.06337 26.9337C9.33049 26.1095 9.89961 25.4169 10.6564 24.9951C10.9246 24.8067 11.2391 24.6951 11.566 24.6725C11.893 24.6498 12.2199 24.717 12.5115 24.8666C14.0827 25.8083 14.0531 29.8641 14.0403 31.5958V31.8104C14.1892 32.0339 14.3862 32.2212 14.617 32.3586C14.8477 32.496 15.1063 32.5799 15.3738 32.6043C15.4081 32.6005 15.4429 32.6036 15.476 32.6136C15.5091 32.6235 15.5399 32.64 15.5665 32.6621C15.613 32.7143 15.6483 32.7753 15.6704 32.8416C15.6925 32.9079 15.7009 32.9779 15.695 33.0475C15.6928 33.0801 15.6932 33.1127 15.6962 33.1452Z" fill="#373435"/>
<path d="M27.3112 29.0663C27.7235 29.0265 28.1306 28.9452 28.5265 28.8235C28.7254 29.9895 28.7844 31.1751 28.7025 32.3551C28.4025 32.374 28.1037 32.3031 27.8442 32.1513C27.5847 31.9996 27.3763 31.774 27.2457 31.5033C27.1793 30.691 27.2013 29.8739 27.3112 29.0663Z" fill="#6978AB"/>
<path d="M28.6601 32.5606C28.3295 32.5719 28.0028 32.4869 27.7196 32.3161C27.4364 32.1453 27.2088 31.896 27.0645 31.5984L27.0452 31.5624V31.5213C26.9781 30.694 27.0005 29.8618 27.112 29.0393L27.1326 28.88L27.2919 28.862C27.6905 28.8232 28.0843 28.7449 28.4674 28.6282L28.6781 28.5601L28.7295 28.7759C28.9227 29.8279 28.9861 30.8997 28.9183 31.9671L28.908 32.5568H28.7102L28.6601 32.5606ZM27.4473 31.4429C27.5477 31.6408 27.6976 31.8093 27.8825 31.932C28.0673 32.0547 28.2808 32.1274 28.5021 32.1431V31.9581C28.5573 30.9979 28.5143 30.0345 28.3736 29.083C28.0853 29.1588 27.7921 29.2146 27.4962 29.25C27.4065 29.9792 27.3897 30.7155 27.4461 31.4481L27.4473 31.4429Z" fill="#373435"/>
<path d="M8.65744 32.5825C8.36838 30.6888 8.07419 27.3473 9.42825 25.7543C9.53541 25.61 9.65125 25.4722 9.77512 25.3419C11.9116 23.3301 13.7731 25.0606 14.278 27.2882C14.385 28.6967 14.4069 30.1103 14.3435 31.5213C14.4697 31.7668 14.6645 31.9703 14.9042 32.1071C15.1439 32.244 15.4182 32.3082 15.6937 32.2921C15.8903 32.6981 15.8376 33 16.0611 33.2685C16.4854 33.7447 17.0419 34.0839 17.6597 34.2426C18.2774 34.4014 18.9284 34.3727 19.5298 34.1601C19.9322 33.9895 20.3239 33.7947 20.7027 33.5768C21.0095 31.8536 20.9658 30.0862 20.5743 28.3802C20.5743 28.1439 20.4959 27.9871 20.4959 27.7507C20.6429 27.7718 20.7812 27.8332 20.8954 27.928C20.6385 28.871 24.1791 29.5198 28.3094 28.3802C28.3556 28.2158 28.276 28.0128 28.3749 27.9537C28.4388 27.9137 28.5107 27.8883 28.5855 27.8792C28.6603 27.8701 28.7362 27.8775 28.8079 27.901C28.8271 28.2029 28.8336 28.4971 28.8541 28.8003C29.1744 28.8305 29.4966 28.8348 29.8176 28.8132C29.6069 29.0027 29.3299 29.1015 29.0468 29.0881C29.1188 29.0881 29.007 29.2256 29.0725 29.2384C29.2626 29.2847 29.6236 29.2127 29.774 29.2782C29.4926 29.4427 29.1779 29.3502 28.9877 29.5352C29.034 30.5372 29.0597 31.6125 29.0995 32.6184C29.719 33.0887 30.4837 33.3272 31.2607 33.2924C32.0377 33.2577 32.778 32.952 33.3531 32.4283C33.4759 30.4155 33.4329 28.396 33.2246 26.3902C33.0743 26.371 32.9227 26.344 32.7724 26.3247C35.1196 23.1669 35.5718 19.9359 33.6049 17.0197C33.5856 16.8912 33.4996 16.7627 33.4764 16.6343C35.1877 16.5688 36.9451 16.746 38.6615 16.6805C39.1248 16.856 39.6029 16.9897 40.09 17.0801C40.5949 16.9028 40.6861 15.5012 40.189 15.6579C39.6918 15.8146 39.4181 16.1294 38.885 16.326C36.9181 16.326 34.7354 16.2476 32.7699 16.2476C31.1652 14.9709 29.2647 14.119 27.2439 13.7708C25.2231 13.4225 23.1471 13.5891 21.2076 14.255C21.805 15.5413 22.142 16.933 22.1993 18.35C22.2567 19.7671 22.0331 21.1814 21.5416 22.5118C21.4299 22.8792 19.7328 23.9532 21.1215 22.7803C22.5244 21.5881 21.6457 13.3056 19.9216 13.2915C17.8929 13.3126 15.9453 14.0916 14.4617 15.4755C14.1932 15.1877 14.2125 15.3046 14.3332 14.8987C12.8659 14.7723 11.3878 14.9027 9.96526 15.2841C9.59658 15.2958 9.24 15.4185 8.94207 15.6359C8.64414 15.8534 8.4187 16.1557 8.29515 16.5032C6.99868 21.1365 6.47776 25.9523 6.75352 30.7556C6.82102 31.3316 6.97341 31.8944 7.20573 32.4257C7.97655 33.2711 8.39279 33.0283 8.64844 32.5825H8.65744Z" fill="url(#paint0_linear_301_350)"/>
<path d="M11.733 16.8308C11.3007 16.6546 10.8314 16.5888 10.3673 16.6394C10.3248 16.6348 10.2819 16.645 10.2461 16.6685C10.2102 16.6919 10.1836 16.727 10.1708 16.7679C10.1535 16.7975 10.1424 16.8302 10.1379 16.8642C10.1335 16.8982 10.136 16.9327 10.1451 16.9657C10.1849 17.0775 10.1913 17.0711 10.289 17.0942C10.4183 17.1135 10.5503 17.102 10.6744 17.0608C10.821 16.9835 10.9829 16.9393 11.1484 16.9313C11.314 16.9234 11.4793 16.9518 11.6328 17.0145C11.7766 17.0081 11.7908 16.949 11.7445 16.836L11.733 16.8308Z" fill="#373435"/>
<path d="M10.3969 17.3049C10.346 17.3051 10.2952 17.2999 10.2453 17.2895H10.2286C10.1606 17.2826 10.0967 17.2538 10.0464 17.2074C9.99614 17.1611 9.96225 17.0997 9.94982 17.0325C9.93173 16.9721 9.92594 16.9087 9.93278 16.8461C9.93962 16.7834 9.95896 16.7227 9.98965 16.6677C10.0194 16.5967 10.0702 16.5365 10.1352 16.4951C10.2002 16.4538 10.2763 16.4333 10.3532 16.4364C10.8328 16.3857 11.3176 16.4514 11.7664 16.6279H11.8717L11.9244 16.7563C11.9539 16.8048 11.9693 16.8605 11.9688 16.9173C11.9683 16.974 11.952 17.0295 11.9217 17.0774C11.8914 17.1254 11.8483 17.1639 11.7972 17.1887C11.7462 17.2134 11.6892 17.2234 11.6328 17.2175H11.6019L11.5673 17.2073C11.4407 17.1525 11.3036 17.1266 11.1658 17.1315C11.028 17.1364 10.8931 17.1719 10.7707 17.2355L10.7476 17.2496L10.7219 17.2561C10.6162 17.2863 10.5069 17.3028 10.3969 17.3049ZM10.3404 16.8899C10.4269 16.8988 10.5143 16.8901 10.5973 16.8642L10.6667 16.8296C10.5768 16.8296 10.4855 16.8296 10.393 16.8437H10.3596L10.3519 16.8591C10.3463 16.8686 10.3424 16.8791 10.3404 16.8899ZM10.6744 18.456C10.7331 18.3338 10.8258 18.2312 10.9413 18.1604C11.0568 18.0895 11.1903 18.0534 11.3257 18.0564C11.3514 17.892 11.3257 17.7995 11.115 17.7995C10.8158 17.9512 10.5602 18.1767 10.3725 18.4547C10.2647 18.6964 10.2303 18.9644 10.2736 19.2255C10.2971 19.4039 10.3892 19.5662 10.5305 19.6777C10.6768 19.7693 10.8473 19.8145 11.0197 19.8074C11.1921 19.8003 11.3584 19.7412 11.4966 19.6379C11.9565 19.3694 12.4164 18.6024 11.6084 18.3134C11.4464 18.2818 11.2798 18.2829 11.1183 18.3166C10.9568 18.3504 10.8037 18.4161 10.668 18.5099C10.6551 18.5164 10.6487 18.4907 10.668 18.4573L10.6744 18.456Z" fill="#373435"/>
<path d="M10.9236 20.022C10.7327 20.0258 10.5468 19.9611 10.3994 19.8396C10.2177 19.6935 10.0998 19.4826 10.0706 19.2512C10.0182 18.9454 10.0632 18.6309 10.199 18.3519C10.4046 18.0434 10.6854 17.7923 11.0148 17.6222L11.0598 17.5952H11.1086C11.1716 17.5892 11.2352 17.5969 11.2949 17.618C11.3546 17.6391 11.409 17.673 11.4542 17.7173C11.493 17.7699 11.5198 17.8305 11.5327 17.8946C11.5456 17.9588 11.5442 18.025 11.5287 18.0886C11.7031 18.1149 11.8656 18.1932 11.9949 18.3133C12.1241 18.4334 12.2142 18.5897 12.2533 18.7617C12.2458 18.9795 12.1817 19.1916 12.0673 19.377C11.9528 19.5624 11.792 19.7148 11.6006 19.819C11.3966 19.9447 11.1631 20.0147 10.9236 20.022ZM10.5086 18.6525C10.4611 18.8336 10.4506 19.0223 10.4778 19.2075C10.4958 19.334 10.5627 19.4484 10.6641 19.5261C10.912 19.733 11.3141 19.512 11.3925 19.4658C11.5161 19.3997 11.6218 19.3046 11.7006 19.1887C11.7794 19.0728 11.8288 18.9395 11.8447 18.8003C11.8332 18.6718 11.7304 18.5793 11.5402 18.5112C11.273 18.4709 11.0004 18.5343 10.7784 18.6885L10.7617 18.6975L10.6243 18.7669L10.5112 18.6525H10.5086Z" fill="#373435"/>
<path d="M11.0315 19.3475C11.0342 19.3944 11.0433 19.4406 11.0585 19.485C11.0651 19.5057 11.0741 19.5256 11.0855 19.5441C11.048 19.569 11.005 19.5844 10.9602 19.5888C10.9154 19.5933 10.8702 19.5868 10.8285 19.5698C10.5446 19.4413 10.5652 19.0431 10.7103 18.8272C10.7864 18.7159 10.8875 18.624 11.0055 18.5589C11.1236 18.4937 11.2552 18.4571 11.3899 18.4521C11.5415 18.5305 11.5878 18.6037 11.5081 18.623C11.4631 18.6315 11.4198 18.6471 11.3797 18.6692C11.3492 18.6829 11.3219 18.7029 11.2998 18.728C11.2776 18.753 11.2611 18.7825 11.2512 18.8144C11.3167 18.8337 11.3501 18.8144 11.4092 18.8401V19.0444C11.3461 19.0126 11.274 19.0036 11.205 19.0187C11.0765 19.0585 11.0264 19.2422 11.0264 19.354L11.0315 19.3475Z" fill="#FEFEFE"/>
<path d="M11.575 24.5865C11.9389 24.5085 12.2837 24.3591 12.5895 24.1469C12.8953 23.9347 13.1559 23.6639 13.3563 23.3502C13.5567 23.0366 13.6928 22.6863 13.7569 22.3196C13.8209 21.9529 13.8116 21.5772 13.7294 21.2142C13.4994 21.2094 13.274 21.1486 13.0729 21.0369C13.0601 20.9521 13.0536 20.8661 13.0395 20.78C13.5714 21.0369 14.3242 21.114 14.2266 20.3008C14.2985 20.2815 14.4103 20.2751 14.4835 20.2545C14.4578 20.825 14.355 20.8776 14.0043 21.1204C14.1052 21.7423 14.0526 22.3794 13.851 22.9764C13.6495 23.5733 13.3052 24.1119 12.8481 24.5454C12.8209 24.7239 12.8367 24.9062 12.8943 25.0773C12.7262 24.9016 12.5198 24.767 12.2912 24.6839C12.0626 24.6008 11.818 24.5714 11.5762 24.5981L11.575 24.5865Z" fill="#373435"/>
<path d="M13.2566 25.7839L12.7428 25.216C12.5936 25.0624 12.4109 24.9454 12.209 24.874C12.0071 24.8027 11.7914 24.7791 11.5788 24.8049H11.3707V24.4452L11.5159 24.3874C12.1773 24.2518 12.7599 23.8637 13.1398 23.3055C13.5198 22.7473 13.6672 22.063 13.5508 21.3979C13.3425 21.3824 13.1409 21.3177 12.9624 21.2091L12.8828 21.159L12.8687 21.0677L12.8507 20.9328L12.8352 20.8121L12.7762 20.4267L13.1269 20.5963C13.2447 20.6719 13.3779 20.7204 13.5168 20.7382C13.6556 20.756 13.7967 20.7426 13.9298 20.699C14.012 20.6412 14.0429 20.5153 14.021 20.3252L14.0018 20.1505L14.1713 20.1042C14.2217 20.0917 14.2727 20.0823 14.3242 20.076C14.3588 20.0719 14.3931 20.0659 14.427 20.058L14.6993 19.9835L14.6865 20.2648C14.6595 20.8506 14.531 20.9984 14.2227 21.218C14.303 21.8425 14.2375 22.4771 14.0313 23.0721C13.8251 23.667 13.4839 24.206 13.0344 24.6469C13.0346 24.7564 13.0498 24.8653 13.0793 24.9706L13.2566 25.7839ZM12.3573 24.4889C12.4507 24.5188 12.5411 24.5575 12.6271 24.6045C12.631 24.5608 12.6401 24.5176 12.6541 24.476L12.6682 24.4349L12.6978 24.4028C12.8074 24.2855 12.9089 24.1677 13.0023 24.0495C12.8049 24.2203 12.5885 24.3677 12.3573 24.4889Z" fill="#373435"/>
<path d="M31.9168 33.2633C31.8847 32.779 31.8256 32.3538 31.8115 31.8682C31.7793 30.7556 30.934 30.5128 30.8878 31.6254C30.8621 32.2086 30.8878 32.7585 30.8878 33.3083C31.2307 33.3552 31.5793 33.34 31.9168 33.2633Z" fill="#8093D0"/>
<path d="M31.3798 33.4008C31.2513 33.4008 31.1306 33.3931 31.0085 33.3854L30.8158 33.3751V32.7649C30.8158 32.3975 30.8042 32.0172 30.8158 31.6254C30.8402 31.0434 31.0727 30.8366 31.2796 30.8366C31.5532 30.8366 31.8538 31.2001 31.8744 31.8643C31.8821 32.1611 31.9078 32.4322 31.9335 32.7187C31.9502 32.8934 31.9656 33.0707 31.9785 33.2557V33.3109L31.9258 33.3263C31.7482 33.3768 31.5644 33.4019 31.3798 33.4008ZM30.9571 33.2467H31.0188C31.2943 33.2791 31.5733 33.2665 31.8448 33.2094C31.8333 33.045 31.8179 32.887 31.8037 32.7315C31.7768 32.4424 31.7523 32.1701 31.7434 31.8682C31.7267 31.3145 31.4864 30.9689 31.2847 30.9689C31.146 30.9689 30.9777 31.1411 30.9571 31.6267C30.9391 32.0121 30.9456 32.3975 30.9571 32.7585C30.9546 32.9229 30.9571 33.0835 30.9571 33.2467Z" fill="#373435"/>
<path d="M30.9032 33.3199C30.8099 32.761 30.775 32.194 30.7991 31.6279C30.8711 30.6002 29.8998 29.5172 29.8343 31.425C29.8105 31.9825 29.8324 32.5411 29.8998 33.0951C30.2279 33.1959 30.5634 33.2711 30.9032 33.3199Z" fill="#8093D0"/>
<path d="M30.9815 33.4021L30.8929 33.388C30.5492 33.3398 30.2099 33.2646 29.878 33.1632L29.8369 33.149V33.1066C29.7689 32.5484 29.747 31.9855 29.7714 31.4237C29.7919 30.8083 29.8998 30.4435 30.1092 30.3381C30.157 30.3143 30.2106 30.3044 30.2638 30.3096C30.317 30.3148 30.3676 30.3349 30.4098 30.3677C30.5779 30.5297 30.707 30.7278 30.7873 30.947C30.8677 31.1662 30.8972 31.4008 30.8736 31.6331C30.8446 32.1292 30.8683 32.627 30.9443 33.1182L30.9815 33.4021ZM29.9615 33.0462C30.2441 33.1302 30.5321 33.1946 30.8235 33.239L30.8107 33.1323C30.7313 32.6338 30.7041 32.1283 30.7297 31.6241C30.7515 31.4158 30.7267 31.2053 30.6572 31.0078C30.5877 30.8103 30.4751 30.6307 30.3276 30.482C30.3056 30.4632 30.2787 30.4511 30.25 30.447C30.2214 30.4429 30.1922 30.447 30.1658 30.4589C30.0951 30.4948 29.9281 30.6631 29.9011 31.4275C29.8781 31.9679 29.8983 32.5091 29.9615 33.0462Z" fill="#373435"/>
<path d="M29.9011 33.1824L29.7637 30.9984C29.6647 29.3682 29.0095 29.5583 28.9569 30.9008C28.9312 31.5354 28.9826 31.8823 28.9235 32.5182C29.2318 32.7276 29.553 33.14 29.9011 33.1734V33.1824Z" fill="#8093D0"/>
<path d="M29.8947 33.2466C29.6198 33.1795 29.3714 33.0313 29.1817 32.8214C29.088 32.7351 28.9894 32.6545 28.8862 32.5799L28.8528 32.5568V32.5169C28.8796 32.2094 28.8887 31.9005 28.8798 31.592V30.9034C28.9067 30.2186 29.0879 29.7741 29.341 29.7715C29.5979 29.7715 29.7752 30.2302 29.8214 30.9997L29.9589 33.1837H29.8895L29.8947 33.2466ZM28.9954 32.49C29.0879 32.5568 29.1804 32.639 29.2716 32.7186C29.4288 32.8809 29.6177 33.009 29.8266 33.095L29.6981 31.0087C29.6493 30.2006 29.4656 29.909 29.3538 29.909C29.2382 29.909 29.0545 30.2289 29.0288 30.9098C29.0172 31.1667 29.0211 31.3864 29.0288 31.592C29.0338 31.8908 29.0227 32.1897 28.9954 32.4874V32.49Z" fill="#373435"/>
<path d="M18.6947 34.3104C18.7122 33.7991 18.6859 33.2872 18.6164 32.7803C18.3415 31.5984 17.9946 31.4532 17.5886 32.3268V34.2898C17.9558 34.3401 18.3278 34.3444 18.696 34.3027L18.6947 34.3104Z" fill="#8093D0"/>
<path d="M18.2798 34.4029C18.0665 34.4029 17.8533 34.3836 17.6439 34.3643L17.5154 34.3528V32.2973C17.7119 31.8746 17.9008 31.678 18.0909 31.6986C18.3247 31.723 18.5097 32.0609 18.6729 32.7636L18.6857 32.8754C18.749 33.3514 18.7718 33.8318 18.7538 34.3117H18.687L18.696 34.3708C18.5583 34.3923 18.4191 34.4031 18.2798 34.4029ZM17.6554 34.2282C17.978 34.2695 18.3041 34.2751 18.6279 34.2449C18.6407 33.7928 18.6175 33.3405 18.5586 32.8921L18.547 32.788C18.3594 31.9825 18.177 31.8451 18.0858 31.8361C18.0151 31.8361 17.87 31.8862 17.6554 32.3435V34.2282Z" fill="#373435"/>
<path d="M16.6842 33.9866C16.6906 33.2338 16.697 32.7353 16.697 31.9825C16.972 30.8751 17.2533 30.9869 17.5282 32.3165C17.5347 33.0308 17.5411 33.4959 17.5411 34.2089C17.2404 34.1971 16.9456 34.1214 16.6765 33.9866H16.6842Z" fill="#8093D0"/>
<path d="M17.6053 34.286L17.4897 34.2731C17.1928 34.2588 16.9024 34.1812 16.6379 34.0458L16.4131 33.9173H16.6109V33.5319C16.6109 33.0051 16.6199 32.5696 16.6199 31.9761V31.9594C16.7587 31.4018 16.8948 31.1526 17.0631 31.1526C17.1916 31.1526 17.3728 31.2875 17.577 32.296V32.7405C17.577 33.2351 17.586 33.6398 17.586 34.2038L17.6053 34.286ZM16.7484 33.9494C16.9747 34.0559 17.2194 34.1178 17.4691 34.1318C17.4691 33.6102 17.4691 33.2184 17.4601 32.7469V32.3166C17.2584 31.3492 17.1043 31.2965 17.0747 31.2965C17.0452 31.2965 16.9347 31.3119 16.7651 31.9902C16.7651 32.5799 16.7651 33.018 16.7561 33.5396L16.7484 33.9494Z" fill="#373435"/>
<path d="M15.6564 32.5054C15.6963 31.8759 15.8273 31.24 15.8658 30.6105C15.6089 29.3643 15.3288 29.1421 15.0346 29.9553C15.0218 30.7621 15.0154 31.5753 15.0025 32.3821C15.1969 32.506 15.4309 32.5519 15.6577 32.5105L15.6564 32.5054Z" fill="#8093D0"/>
<path d="M15.4933 32.6043C15.3364 32.5962 15.1835 32.5523 15.0462 32.4758L14.9383 32.427V32.382C14.9451 31.9787 14.9507 31.5744 14.955 31.1693C14.9593 30.7642 14.9648 30.3595 14.9717 29.9553V29.9334C15.1002 29.5647 15.2363 29.399 15.3905 29.4093C15.5447 29.4195 15.7232 29.5647 15.9352 30.5989V30.6169C15.9159 30.9342 15.8723 31.2592 15.8299 31.5688C15.7875 31.8784 15.7451 32.1983 15.7258 32.5092V32.5683L15.6719 32.5799C15.6133 32.5942 15.5535 32.6023 15.4933 32.6043ZM15.077 32.3474L15.1027 32.3589C15.2514 32.4477 15.4254 32.4848 15.5973 32.4643C15.6179 32.1624 15.659 31.8553 15.7001 31.5586C15.7412 31.2618 15.7836 30.9342 15.8042 30.6246C15.6025 29.6444 15.4329 29.557 15.3854 29.5532C15.3597 29.5532 15.2569 29.575 15.1092 29.9771C15.1023 30.3762 15.0967 30.7766 15.0925 31.1783C15.0882 31.58 15.083 31.9662 15.077 32.3371V32.3474Z" fill="#373435"/>
<path d="M27.888 32.3063C27.9407 31.6369 27.8687 31.0794 27.888 30.4242C27.9073 29.6303 28.6922 29.8602 28.7256 30.5886C28.759 31.3171 28.7975 31.6909 28.8374 32.418C28.5193 32.4719 28.1924 32.4331 27.8957 32.3063H27.888Z" fill="#8093D0"/>
<path d="M28.4558 32.499C28.2549 32.506 28.0555 32.4618 27.8764 32.3705H27.8199V32.2973C27.8429 31.9397 27.8454 31.5811 27.8276 31.2233C27.8199 30.9663 27.8109 30.7004 27.8199 30.4191C27.8302 30.0054 28.0344 29.8564 28.222 29.8551C28.4789 29.8551 28.7706 30.1313 28.7898 30.5822C28.8091 30.9535 28.8284 31.2246 28.8464 31.5085C28.8643 31.7924 28.8823 32.0519 28.9016 32.4078V32.4771L28.7025 32.4848C28.6206 32.4947 28.5382 32.4994 28.4558 32.499ZM27.9586 32.2626C28.1937 32.3598 28.4507 32.3918 28.7025 32.3551H28.7641C28.7486 32.0775 28.7315 31.8 28.7128 31.5226C28.6948 31.2438 28.6768 30.9663 28.6562 30.5938C28.6357 30.2212 28.4211 29.9964 28.2246 29.9964C28.064 29.9964 27.9676 30.1595 27.9574 30.428C27.9471 30.6965 27.9574 30.9689 27.9651 31.2246C27.9809 31.5704 27.9788 31.9169 27.9586 32.2626Z" fill="#373435"/>
<path d="M27.8469 32.3307C27.8276 31.8399 27.834 31.2503 27.8148 30.7595C27.861 30.085 27.396 29.0894 27.2135 30.1968C27.1556 30.6069 27.1209 31.0199 27.1095 31.434C27.3212 31.7593 27.5685 32.0601 27.8469 32.3307Z" fill="#B9C5EA"/>
<path d="M27.9201 32.4694L27.8058 32.3872C27.5797 32.1878 27.3821 31.9583 27.2187 31.705C27.1653 31.6295 27.1105 31.5549 27.0542 31.4815L27.0375 31.4609V31.4352C27.0465 31.3068 27.053 31.1783 27.0581 31.0755C27.0678 30.7794 27.0961 30.4842 27.1429 30.1917C27.166 30.0478 27.2379 29.611 27.4679 29.6392C27.7248 29.6701 27.9086 30.3561 27.8803 30.7698C27.8906 31.0087 27.8931 31.2836 27.897 31.5496C27.9009 31.8155 27.9034 32.0891 27.9137 32.3332L27.9201 32.4694ZM27.1776 31.4134C27.2225 31.4712 27.2739 31.5419 27.3304 31.6215C27.4636 31.8181 27.6117 32.0041 27.7737 32.1778C27.7737 31.9748 27.7647 31.7577 27.7621 31.547C27.7621 31.2824 27.7557 31.0074 27.7454 30.7633C27.7775 30.2854 27.5655 29.7831 27.4538 29.7703C27.4294 29.7626 27.3407 29.8396 27.2791 30.2084C27.233 30.4958 27.2051 30.7859 27.1956 31.0768L27.1776 31.4121V31.4134ZM22.0067 23.3018C22.3407 21.7088 22.6683 20.1158 23.0023 18.5164C23.055 18.1425 23.1526 17.8085 23.5457 17.7751H24.0236C24.3114 17.7751 24.4759 17.946 24.5016 18.289L24.4039 18.9968C24.4168 19.2859 24.594 19.449 24.9473 19.476C25.4252 19.4953 25.9109 19.5223 26.3888 19.5415C27.1095 19.5878 27.5938 19.8961 27.545 20.7941L27.0928 23.1669C27.0846 23.3503 27.0224 23.5271 26.9141 23.6752C26.8057 23.8233 26.6561 23.9361 26.4838 23.9994C26.268 23.9866 26.0252 24.0123 25.8094 23.9994C25.4355 24.0187 25.2197 23.8812 25.3572 23.3892C25.4946 22.7661 25.6655 21.9863 25.8094 21.3632C25.862 20.622 25.5871 20.5834 25.2955 20.5308C25.0463 20.4974 24.8047 20.5308 24.5555 20.4974C24.1881 20.55 24.0506 20.9033 23.9466 21.2977C23.7898 21.9593 23.6254 22.6222 23.4687 23.2903C23.3967 23.6513 23.3183 23.8864 23.0498 23.9981H22.2508C21.9493 23.9322 21.8636 23.6962 21.9938 23.2903L22.0067 23.3018Z" fill="#373435"/>
<path d="M25.9455 24.1382H25.8055C25.709 24.1544 25.61 24.1469 25.5171 24.1162C25.4242 24.0856 25.3402 24.0327 25.2724 23.9622C25.2155 23.8725 25.1812 23.7703 25.1725 23.6645C25.1637 23.5587 25.1808 23.4523 25.2222 23.3545L25.3006 22.9974C25.4201 22.4552 25.5576 21.8501 25.6706 21.3453C25.7104 20.7479 25.5498 20.7183 25.2852 20.6695C25.0462 20.6374 24.8163 20.6695 24.5593 20.6387C24.3024 20.6849 24.1855 20.9406 24.0802 21.335L23.8669 22.2201L23.6022 23.325C23.5149 23.695 23.4442 23.9853 23.1025 24.1279L23.0768 24.1382H22.2212C22.1485 24.1263 22.0792 24.0989 22.0181 24.0579C21.9569 24.0169 21.9052 23.9632 21.8666 23.9005C21.8217 23.7994 21.7985 23.69 21.7985 23.5793C21.7985 23.4687 21.8217 23.3593 21.8666 23.2582L21.909 23.1297L22.4229 20.6387L22.8661 18.5048C22.9021 18.2479 22.9779 17.7019 23.5329 17.6556H24.0223C24.233 17.6556 24.594 17.7378 24.6364 18.298V18.3121L24.5375 19.0212C24.5465 19.1664 24.6069 19.3321 24.9537 19.3578L25.6745 19.3899L26.39 19.4221C26.5729 19.405 26.7573 19.4303 26.9287 19.4962C27.1002 19.5621 27.2541 19.6667 27.3785 19.8019C27.5028 19.9371 27.5943 20.0992 27.6457 20.2755C27.697 20.4519 27.707 20.6377 27.6747 20.8185V20.8365L27.2225 23.2106C27.2098 23.4175 27.1371 23.6162 27.0132 23.7823C26.8893 23.9484 26.7196 24.0748 26.5249 24.1459L26.4992 24.1549H26.1459C26.0804 24.1356 26.0123 24.1382 25.9455 24.1382ZM25.8068 23.8607H26.4607C26.6032 23.8015 26.7256 23.7026 26.8133 23.5757C26.901 23.4488 26.9503 23.2993 26.9553 23.1451L27.4062 20.7761C27.4461 20.0541 27.139 19.7253 26.3785 19.6777L25.6642 19.6456L24.9409 19.6122C24.3756 19.5698 24.2754 19.2127 24.2664 19.0033V18.9866L24.3641 18.2813C24.3345 17.9524 24.1662 17.91 24.0236 17.91H23.5457C23.3093 17.9305 23.1989 18.0937 23.1372 18.5331L22.6914 20.6759C22.5081 21.5607 22.324 22.4445 22.139 23.3275L22.0876 23.5755L22.0722 23.5601C22.0625 23.6262 22.0728 23.6938 22.1017 23.7541C22.1201 23.7816 22.1439 23.8051 22.1718 23.823C22.1996 23.8409 22.2309 23.8529 22.2636 23.8581H23.0177C23.2014 23.7708 23.2644 23.6012 23.3312 23.2594L23.5971 22.1482L23.8104 21.2605C23.8887 20.9676 24.0313 20.428 24.5337 20.3612H24.5709C24.8047 20.392 25.0488 20.3612 25.3109 20.3946H25.3289C25.6963 20.4614 25.9956 20.5809 25.9404 21.3697V21.3915C25.8235 21.8977 25.6835 22.5066 25.5691 23.0513L25.4882 23.4162C25.4368 23.5999 25.4368 23.7258 25.4882 23.7875C25.5396 23.8491 25.6899 23.8658 25.8004 23.8607H25.8068Z" fill="#FEFEFE"/>
<path d="M15.8157 25.1454C16.1433 23.447 16.4773 21.7486 16.8062 20.0567C16.8019 19.9798 16.8139 19.9029 16.8414 19.831C16.8689 19.7591 16.9112 19.6938 16.9657 19.6393C17.0201 19.5849 17.0854 19.5425 17.1573 19.5151C17.2293 19.4876 17.3062 19.4756 17.383 19.4799H20.3995C20.6869 19.4714 20.9712 19.5414 21.2218 19.6825C21.4724 19.8235 21.6798 20.0302 21.8217 20.2802C22.0236 20.6459 22.1084 21.0648 22.0645 21.4801C21.9999 22.1934 21.6839 22.8605 21.1729 23.3622C20.7544 23.7156 20.2418 23.9388 19.6981 24.0046C19.1842 24.0174 18.6703 24.0238 18.1564 24.038C17.8609 24.0123 17.5667 24.0906 17.4948 24.327C17.4036 24.6482 17.3381 24.9694 17.2456 25.2841C17.2135 25.355 17.1664 25.4181 17.1077 25.4691C17.0489 25.5201 16.9798 25.5578 16.9051 25.5796C16.6096 25.586 16.309 25.586 16.0136 25.5925C15.6975 25.5976 15.763 25.41 15.8157 25.1454ZM17.92 22.2343C18.0048 21.7885 18.1102 21.2836 18.1885 20.8905C18.2304 20.7727 18.3091 20.6716 18.4131 20.6022C18.517 20.5327 18.6405 20.4987 18.7654 20.5051C19.0764 20.483 19.3886 20.5232 19.6839 20.6233C19.8132 20.6755 19.9299 20.7545 20.0263 20.8552C20.1227 20.9559 20.1967 21.076 20.2432 21.2074C20.2897 21.3388 20.3078 21.4786 20.2962 21.6176C20.2846 21.7565 20.2436 21.8914 20.176 22.0133C20.0617 22.2279 19.9062 22.4178 19.7184 22.5721C19.5305 22.7264 19.3141 22.8421 19.0814 22.9126C18.8677 22.9684 18.6467 22.9905 18.4262 22.9781C17.8622 22.919 17.816 22.7687 17.9123 22.2304L17.92 22.2343Z" fill="#373435"/>
<path d="M15.9982 25.7286C15.9435 25.7341 15.8882 25.7272 15.8366 25.7083C15.785 25.6894 15.7383 25.659 15.7001 25.6194C15.6025 25.5025 15.6359 25.3445 15.6706 25.1775L15.6821 25.1197C15.8628 24.1844 16.0448 23.2492 16.2281 22.3139L16.6688 20.0503C16.6633 19.9617 16.6762 19.8729 16.7067 19.7895C16.7372 19.7062 16.7847 19.63 16.8461 19.5659C16.9159 19.4927 17.0004 19.435 17.094 19.3967C17.1877 19.3584 17.2884 19.3404 17.3895 19.3437H20.3995C20.712 19.3341 21.0211 19.4107 21.293 19.565C21.5649 19.7193 21.7891 19.9454 21.9412 20.2186C22.1542 20.6065 22.2439 21.0502 22.1981 21.4904C22.1311 22.236 21.8015 22.9335 21.268 23.4586L21.2526 23.4727C20.8148 23.8411 20.279 24.0737 19.7109 24.142C19.4463 24.1497 19.1881 24.1536 18.9311 24.1587L18.1603 24.1754H18.1449C17.9381 24.1574 17.6773 24.196 17.631 24.3681C17.5848 24.5403 17.5475 24.6816 17.5025 24.8396C17.4576 24.9976 17.4229 25.1608 17.3741 25.3239C17.3378 25.4156 17.2813 25.4979 17.2088 25.5646C17.1363 25.6313 17.0496 25.6808 16.9553 25.7093L16.9309 25.7196H16.9052L16.4619 25.7261L16.0136 25.7325L15.9982 25.7286ZM15.9121 25.446C15.9439 25.4545 15.9769 25.4575 16.0097 25.455L16.4619 25.4486H16.8756C17.0144 25.3869 17.094 25.3201 17.1158 25.2507C17.1608 25.0927 17.1994 24.936 17.2443 24.7779C17.2893 24.6199 17.324 24.4568 17.3728 24.2949C17.4563 24.02 17.7582 23.8722 18.1706 23.9095L18.9337 23.8928L19.7045 23.8761C20.216 23.811 20.6978 23.5996 21.092 23.2671C21.5761 22.7895 21.876 22.1561 21.9386 21.4789C21.9804 21.0879 21.9005 20.6935 21.7099 20.3496C21.5767 20.1229 21.3851 19.936 21.155 19.8086C20.925 19.6811 20.665 19.6178 20.4021 19.625H17.3831C17.3202 19.6225 17.2575 19.6335 17.1992 19.6572C17.141 19.6809 17.0884 19.7168 17.0452 19.7625C17.008 19.8005 16.9795 19.8462 16.9618 19.8963C16.944 19.9465 16.9374 19.9999 16.9424 20.0528V20.0914L16.4979 22.3743L15.9519 25.1801L15.9391 25.2404C15.9195 25.3098 15.9108 25.3817 15.9134 25.4537L15.9121 25.446ZM18.5483 23.1181H18.4121C18.3037 23.1208 18.1958 23.1018 18.0948 23.0623C17.9938 23.0228 17.9016 22.9636 17.8237 22.8882C17.7094 22.7353 17.7197 22.5323 17.7788 22.2098L17.825 21.9529L17.834 21.9619C17.879 21.7319 17.9278 21.4956 17.9727 21.2733L18.0665 20.8326C18.1198 20.6899 18.2174 20.568 18.345 20.4848C18.4726 20.4015 18.6236 20.3614 18.7757 20.3702C19.1001 20.3484 19.4256 20.3921 19.7328 20.4986C19.8684 20.5473 19.9924 20.6237 20.0968 20.7231C20.2012 20.8224 20.2838 20.9424 20.3391 21.0755C20.4002 21.2356 20.4283 21.4065 20.4217 21.5779C20.4151 21.7492 20.3739 21.9174 20.3006 22.0724L20.2916 22.0891C20.169 22.3177 20.0026 22.5199 19.8017 22.6842C19.6009 22.8484 19.3697 22.9714 19.1213 23.0462C18.933 23.091 18.7405 23.1151 18.547 23.1181H18.5483ZM18.0177 22.4604C17.9976 22.5466 18.0071 22.6371 18.0447 22.7173C18.0896 22.7764 18.2155 22.8149 18.4404 22.8393C18.6462 22.8495 18.8524 22.8283 19.0519 22.7764C19.2654 22.711 19.4639 22.6042 19.6361 22.462C19.8082 22.3198 19.9507 22.1451 20.0552 21.9478C20.1116 21.8279 20.1435 21.698 20.149 21.5656C20.1545 21.4332 20.1335 21.3011 20.0873 21.1769C20.0457 21.0787 19.9841 20.9902 19.9065 20.917C19.8289 20.8438 19.7369 20.7875 19.6364 20.7517C19.358 20.6578 19.0636 20.6207 18.7705 20.6425C18.6734 20.6345 18.5763 20.6593 18.4948 20.7128C18.4133 20.7664 18.3521 20.8456 18.3209 20.938L18.2425 21.3234C18.1809 21.6266 18.1141 21.9568 18.0562 22.2599L18.0177 22.4604Z" fill="#FEFEFE"/>
<path d="M27.2765 25.1454C27.6041 23.447 27.9381 21.7486 28.267 20.0567C28.2627 19.9798 28.2747 19.9029 28.3022 19.831C28.3297 19.7591 28.372 19.6938 28.4264 19.6393C28.4809 19.5849 28.5462 19.5425 28.6181 19.5151C28.69 19.4876 28.7669 19.4756 28.8438 19.4799H31.8603C32.1477 19.4714 32.432 19.5414 32.6826 19.6825C32.9331 19.8235 33.1405 20.0302 33.2824 20.2802C33.4844 20.6459 33.5691 21.0648 33.5252 21.4801C33.4607 22.1934 33.1447 22.8605 32.6337 23.3622C32.2152 23.7156 31.7026 23.9388 31.1588 24.0046C30.645 24.0174 30.1311 24.0238 29.6172 24.038C29.3217 24.0123 29.0275 24.0906 28.9556 24.327C28.8644 24.6482 28.7989 24.9694 28.7064 25.2841C28.6743 25.355 28.6272 25.4181 28.5685 25.4691C28.5097 25.5201 28.4406 25.5578 28.3659 25.5796C28.0704 25.586 27.7698 25.586 27.4743 25.5925C27.1583 25.5976 27.2187 25.41 27.2765 25.1454ZM29.3808 22.2343C29.4656 21.7885 29.571 21.2836 29.6493 20.8905C29.6912 20.7727 29.7699 20.6716 29.8739 20.6022C29.9778 20.5327 30.1013 20.4987 30.2261 20.5051C30.5371 20.483 30.8494 20.5232 31.1447 20.6233C31.274 20.6755 31.3907 20.7545 31.4871 20.8552C31.5835 20.9559 31.6574 21.076 31.704 21.2074C31.7505 21.3388 31.7685 21.4786 31.757 21.6176C31.7454 21.7565 31.7044 21.8914 31.6367 22.0133C31.5225 22.2279 31.367 22.4178 31.1792 22.5721C30.9913 22.7264 30.7748 22.8421 30.5422 22.9126C30.3285 22.9684 30.1075 22.9905 29.887 22.9781C29.323 22.919 29.2768 22.7687 29.3731 22.2304L29.3808 22.2343Z" fill="#373435"/>
<path d="M27.4589 25.7286C27.4042 25.734 27.349 25.727 27.2974 25.7081C27.2458 25.6892 27.1991 25.6589 27.1609 25.6194C27.0632 25.5025 27.0966 25.3445 27.1313 25.1775L27.1429 25.1197C27.3227 24.187 27.5039 23.2552 27.6863 22.3242L28.1295 20.0503C28.124 19.9617 28.1369 19.8729 28.1674 19.7895C28.1979 19.7062 28.2454 19.63 28.3068 19.5659C28.3766 19.4927 28.4611 19.435 28.5548 19.3967C28.6484 19.3584 28.7491 19.3404 28.8502 19.3437H31.8603C32.1728 19.3341 32.4819 19.4107 32.7537 19.565C33.0256 19.7193 33.2499 19.9454 33.4019 20.2186C33.6149 20.6065 33.7045 21.0502 33.6589 21.4904C33.5918 22.2359 33.2622 22.9334 32.7287 23.4586L32.7133 23.4727C32.2755 23.8411 31.7398 24.0737 31.1717 24.142C30.907 24.1497 30.6488 24.1536 30.3919 24.1587L29.6211 24.1754H29.6056C29.3975 24.1574 29.138 24.196 29.0918 24.3681C29.0455 24.5403 29.0083 24.6816 28.9633 24.8383C28.9183 24.9951 28.8836 25.1608 28.8348 25.3227C28.7986 25.4143 28.7421 25.4966 28.6696 25.5633C28.597 25.6301 28.5104 25.6795 28.416 25.7081L28.3916 25.7183H28.3659L27.9227 25.7248L27.4743 25.7312L27.4589 25.7286ZM27.3728 25.446C27.4047 25.4542 27.4377 25.4573 27.4705 25.455L27.9227 25.4486H28.3364C28.4751 25.3869 28.5548 25.3201 28.5766 25.2507C28.6216 25.0927 28.6614 24.9347 28.7051 24.7779C28.7488 24.6212 28.7847 24.4581 28.8335 24.2962C28.917 24.0213 29.219 23.8735 29.6313 23.9108L30.3944 23.8941L31.1653 23.8774C31.6768 23.8123 32.1586 23.6008 32.5527 23.2684C33.0369 22.7907 33.3367 22.1574 33.3993 21.4801C33.4412 21.0892 33.3614 20.6948 33.1707 20.3509C33.0374 20.1242 32.8458 19.9373 32.6158 19.8099C32.3857 19.6824 32.1257 19.619 31.8629 19.6263H28.8438C28.7809 19.6236 28.7182 19.6345 28.6599 19.6582C28.6016 19.6819 28.5491 19.7179 28.5059 19.7638C28.4688 19.8018 28.4403 19.8475 28.4225 19.8976C28.4048 19.9478 28.3982 20.0012 28.4032 20.0541V20.0927L27.9574 22.3858L27.414 25.1813L27.4011 25.2417C27.3815 25.311 27.3729 25.383 27.3754 25.455L27.3728 25.446ZM30.009 23.1181H29.8729C29.7644 23.1208 29.6566 23.1018 29.5555 23.0623C29.4545 23.0228 29.3624 22.9636 29.2845 22.8882C29.1701 22.7353 29.1804 22.5323 29.2395 22.2098L29.2858 21.9529L29.2947 21.9619C29.3397 21.7307 29.3885 21.493 29.4335 21.2694L29.5273 20.8314C29.58 20.6883 29.6775 20.566 29.8053 20.4827C29.933 20.3994 30.0842 20.3595 30.2364 20.3689C30.5608 20.3475 30.8862 20.3912 31.1935 20.4973C31.3292 20.546 31.4532 20.6224 31.5576 20.7218C31.662 20.8211 31.7445 20.9411 31.7999 21.0742C31.861 21.2344 31.8891 21.4053 31.8825 21.5766C31.8758 21.7479 31.8346 21.9161 31.7614 22.0711L31.7524 22.0878C31.6298 22.3164 31.4633 22.5186 31.2625 22.6829C31.0617 22.8471 30.8304 22.9701 30.582 23.0449C30.3943 23.0901 30.2021 23.1146 30.009 23.1181ZM29.4772 22.4616C29.4571 22.5479 29.4666 22.6384 29.5042 22.7186C29.5491 22.7777 29.675 22.8162 29.8998 22.8406C30.1057 22.8508 30.3119 22.8296 30.5114 22.7777C30.7249 22.7123 30.9234 22.6055 31.0955 22.4633C31.2677 22.3211 31.4101 22.1463 31.5147 21.949C31.5711 21.8292 31.6029 21.6992 31.6085 21.5669C31.614 21.4345 31.593 21.3024 31.5468 21.1782C31.5052 21.08 31.4436 20.9915 31.366 20.9183C31.2884 20.8451 31.1964 20.7888 31.0959 20.753C30.8175 20.659 30.523 20.6219 30.23 20.6438C30.1329 20.636 30.0359 20.6609 29.9545 20.7144C29.873 20.7679 29.8118 20.847 29.7804 20.9393L29.702 21.3247C29.6403 21.6292 29.5735 21.9606 29.5157 22.2638L29.4772 22.4616Z" fill="#FEFEFE"/>
<path d="M7.85191 32.869C7.69829 32.7215 7.5683 32.5512 7.4665 32.3641C7.30795 32.0754 7.23111 31.7489 7.24425 31.4198C6.91023 25.7248 7.20443 20.744 9.0197 16.6741C9.24195 16.1757 9.27664 16.0253 9.74041 15.7954C11.1573 15.2759 12.6771 15.0998 14.1752 15.2815C14.2214 15.153 14.3126 15.0246 14.2728 14.8961C12.9171 14.7876 11.5527 14.896 10.2312 15.2173C9.33188 15.3612 8.45572 15.5192 8.23989 16.9478C6.4259 21.7512 6.55694 26.3003 6.74579 30.7698C6.74443 31.0922 6.79297 31.4129 6.88968 31.7205C7.24297 32.8471 7.5847 32.8086 7.8532 32.8677L7.85191 32.869ZM14.8188 32.156C14.8188 30.9702 14.7212 29.7844 14.7212 28.5935C14.6731 27.914 14.5255 27.2452 14.2831 26.6087C14.0203 26.1456 13.7195 25.7051 13.3838 25.2918C14.4045 27.2317 14.7223 29.465 14.2831 31.6125C14.4655 31.795 14.6287 31.9787 14.8188 32.156Z" fill="#EBEFFF"/>
<path d="M14.9165 32.3911L14.8252 32.3564C14.4825 32.2091 14.1885 31.9677 13.9773 31.6601L13.8887 31.5483H13.9722C13.9915 31.1231 13.9838 30.7338 13.9722 30.3561C13.9645 29.9578 13.9555 29.5467 13.9786 29.0945V29.0187L14.0544 29.0303C14.264 29.0506 14.462 29.1358 14.6209 29.274C14.7798 29.4121 14.8916 29.5964 14.9409 29.8011V29.8217L14.9242 31.0486L14.9075 32.2947L14.9165 32.3911ZM14.1058 31.6023C14.2824 31.8481 14.5137 32.0496 14.7816 32.1906C14.7816 31.7847 14.7918 31.4198 14.797 31.046C14.797 30.6606 14.8073 30.2662 14.8137 29.8294C14.7738 29.6646 14.6862 29.5151 14.5619 29.3997C14.4377 29.2844 14.2821 29.2082 14.1148 29.1806C14.0968 29.5968 14.1045 29.981 14.1148 30.3535C14.1148 30.7479 14.1277 31.1552 14.1058 31.6023Z" fill="#373435"/>
<path d="M16.6225 33.8337C16.3546 33.728 16.1289 33.537 15.9802 33.2903C15.9339 31.1731 15.8941 29.0508 15.8517 26.9324L16.1741 27.2535C16.2463 27.6999 16.2794 28.1517 16.2731 28.6038L16.372 28.8607C16.3702 30.5216 16.4538 32.1815 16.6225 33.8337Z" fill="#EBEFFF"/>
<path d="M16.7291 34.304L16.6392 34.2744C16.2656 34.1429 15.9563 33.8736 15.7746 33.5216L15.7656 33.5036V33.4779C15.7656 32.7726 15.7785 32.0429 15.7785 31.3286V31.3106L15.7875 31.2952C15.9815 30.9419 16.1485 30.7145 16.3309 30.7505C16.4735 30.7788 16.6341 30.9445 16.742 31.9517C16.742 32.7007 16.7291 33.4638 16.7291 34.2102V34.304ZM15.9031 33.4689C16.0547 33.7542 16.2976 33.9803 16.593 34.1113C16.593 33.3957 16.5994 32.6673 16.6058 31.9607C16.5056 31.0241 16.3617 30.8957 16.3052 30.8841C16.2487 30.8725 16.1382 30.9445 15.9198 31.3453C15.9134 32.0519 15.9134 32.7726 15.9031 33.4702V33.4689Z" fill="#373435"/>
<path d="M14.3717 26.6395C14.3757 26.5305 14.36 26.4217 14.3255 26.3183C14.3781 26.3311 14.4308 26.3376 14.4822 26.3517L15.3134 27.0274C15.4291 26.9784 15.5213 26.8863 15.5703 26.7705C15.6229 26.7697 15.675 26.7808 15.7226 26.8031C15.7702 26.8253 15.8122 26.8581 15.8453 26.899C15.8581 27.4373 15.8196 27.9678 15.8324 28.5048C15.9187 28.5784 15.9745 28.6815 15.9891 28.7939C16.3333 28.8077 16.6764 28.8407 17.0169 28.8928C17.0362 28.9776 17.0632 29.0303 17.0824 29.1164C16.6982 29.0733 16.3104 29.0733 15.9262 29.1164V29.3592C16.2275 29.3437 16.5296 29.3657 16.8255 29.4247L16.8576 29.602C16.5377 29.5636 16.2141 29.5679 15.8954 29.6148C15.9416 30.9368 15.9416 32.26 15.8954 33.582C15.79 33.3327 15.5883 33.0899 15.4766 32.8407C15.676 31.1451 15.7023 29.4336 15.5549 27.7327C15.2501 27.2819 14.8452 26.9078 14.3717 26.6395Z" fill="#373435"/>
<path d="M15.713 33.6629C15.656 33.5405 15.5894 33.4228 15.5138 33.3109C15.4319 33.1878 15.3589 33.059 15.2954 32.9255L15.271 32.8728L15.2787 32.815C15.4735 31.1518 15.5001 29.4732 15.3584 27.8047C15.0683 27.4017 14.695 27.0657 14.2638 26.8193L14.1482 26.7448L14.1739 26.6087C14.1744 26.5593 14.1665 26.5102 14.1508 26.4635C14.142 26.4299 14.1343 26.3961 14.1276 26.362L14.0685 26.0472L14.3794 26.1243L14.4462 26.1385C14.4758 26.1385 14.5066 26.15 14.5362 26.1577L14.5799 26.1693L15.3301 26.7782C15.3521 26.7579 15.3692 26.7328 15.3802 26.705L15.4303 26.5765H15.5729C15.6588 26.5759 15.7437 26.5954 15.8207 26.6336C15.8977 26.6717 15.9646 26.7274 16.0161 26.7962L16.0508 26.8463V26.908C16.0572 27.1816 16.0508 27.4565 16.0444 27.7212C16.0444 27.9563 16.0328 28.1991 16.0367 28.4381C16.0811 28.4888 16.1182 28.5454 16.1472 28.6063C16.3604 28.6153 16.5711 28.6436 16.7767 28.6693L17.0413 28.7014L17.1852 28.7181L17.2173 28.8594C17.2247 28.8907 17.2337 28.9216 17.2443 28.9519C17.2572 28.9918 17.2713 29.0329 17.2828 29.0804L17.3458 29.3528L17.067 29.3309H17.0169L17.1107 29.8448L16.8396 29.8165C16.5969 29.7887 16.3521 29.7848 16.1086 29.805C16.1486 31.0696 16.1486 32.3353 16.1086 33.6L15.713 33.6629ZM15.695 32.8099L15.7194 32.8561V32.5748C15.7134 32.6536 15.7052 32.7319 15.695 32.8099ZM15.4188 27.2086C15.5 27.2953 15.5752 27.3876 15.6436 27.4848V27.0403C15.5792 27.1093 15.5031 27.1663 15.4188 27.2086Z" fill="#373435"/>
<path d="M15.1695 14.9578C15.7622 14.8799 16.3332 14.6838 16.8486 14.3809C17.8705 13.8087 19.0103 13.4791 20.1798 13.4174C19.6959 13.1989 19.1516 13.1535 18.6382 13.289C17.3774 13.595 16.1954 14.1636 15.1695 14.9578ZM21.584 14.2461C24.3972 13.4362 27.3984 13.5716 30.1272 14.6315C27.4446 13.4526 24.4341 13.2494 21.6174 14.0572C21.6161 14.1882 21.584 14.1227 21.584 14.2461Z" fill="#EBEFFF"/>
<defs>
<linearGradient id="paint0_linear_301_350" x1="14.2935" y1="11.4858" x2="22.4844" y2="38.7626" gradientUnits="userSpaceOnUse">
<stop stop-color="#8A9FE0"/>
<stop offset="0.588" stop-color="#7182B8"/>
<stop offset="1" stop-color="#576490"/>
</linearGradient>
</defs>
</svg>
