<svg width="48" height="48" viewBox="0 0 48 48" fill="none" xmlns="http://www.w3.org/2000/svg">
<path d="M23.8703 6.0936C14.7313 6.0936 15.3019 10.0568 15.3019 10.0568L15.312 14.1629H24.0333V15.3956H11.8481C11.8481 15.3956 6 14.7324 6 23.9536C6 33.1751 11.1044 32.8481 11.1044 32.8481H14.1506V28.569C14.1506 28.569 13.9864 23.4646 19.1735 23.4646H27.8234C27.8234 23.4646 32.6832 23.5431 32.6832 18.7678V10.872C32.6832 10.872 33.4213 6.0936 23.8703 6.0936ZM19.0614 8.85483C19.2675 8.85464 19.4716 8.8951 19.6621 8.97388C19.8525 9.05266 20.0255 9.16822 20.1712 9.31395C20.317 9.45967 20.4325 9.6327 20.5113 9.82314C20.5901 10.0136 20.6306 10.2177 20.6304 10.4238C20.6306 10.6299 20.5901 10.834 20.5113 11.0244C20.4325 11.2148 20.317 11.3879 20.1712 11.5336C20.0255 11.6793 19.8525 11.7949 19.6621 11.8737C19.4716 11.9524 19.2675 11.9929 19.0614 11.9927C18.8553 11.9929 18.6512 11.9524 18.4608 11.8737C18.2704 11.7949 18.0973 11.6793 17.9516 11.5336C17.8059 11.3879 17.6903 11.2148 17.6115 11.0244C17.5328 10.834 17.4923 10.6299 17.4925 10.4238C17.4923 10.2177 17.5328 10.0136 17.6115 9.82314C17.6903 9.6327 17.8059 9.45967 17.9516 9.31395C18.0973 9.16822 18.2704 9.05266 18.4608 8.97388C18.6512 8.8951 18.8553 8.85464 19.0614 8.85483Z" fill="url(#paint0_linear_301_392)"/>
<path d="M24.1298 41.9064C33.2689 41.9064 32.6983 37.9432 32.6983 37.9432L32.6881 33.8373H23.9667V32.6045H36.1519C36.1519 32.6045 42 33.2678 42 24.0462C42 14.8248 36.8956 15.1519 36.8956 15.1519H33.8494V19.4309C33.8494 19.4309 34.0136 24.5352 28.8265 24.5352H20.1766C20.1766 24.5352 15.3168 24.4567 15.3168 29.2322V37.1281C15.3168 37.1281 14.5789 41.9064 24.1297 41.9064H24.1298ZM28.9387 39.1454C28.7326 39.1456 28.5285 39.1052 28.3381 39.0264C28.1476 38.9476 27.9746 38.8321 27.8289 38.6863C27.6832 38.5406 27.5676 38.3676 27.4888 38.1771C27.41 37.9867 27.3696 37.7826 27.3698 37.5765C27.3696 37.3704 27.41 37.1663 27.4888 36.9758C27.5675 36.7854 27.6831 36.6123 27.8288 36.4666C27.9746 36.3208 28.1476 36.2053 28.338 36.1265C28.5285 36.0477 28.7326 36.0072 28.9387 36.0074C29.1448 36.0072 29.3489 36.0477 29.5393 36.1265C29.7298 36.2053 29.9028 36.3208 30.0485 36.4665C30.1943 36.6123 30.3098 36.7853 30.3886 36.9757C30.4674 37.1662 30.5078 37.3703 30.5077 37.5764C30.5078 37.7825 30.4674 37.9866 30.3886 38.177C30.3098 38.3674 30.1943 38.5405 30.0485 38.6862C29.9028 38.8319 29.7298 38.9475 29.5393 39.0263C29.3489 39.105 29.1448 39.1456 28.9387 39.1454Z" fill="url(#paint1_linear_301_392)"/>
<defs>
<linearGradient id="paint0_linear_301_392" x1="351.959" y1="328.208" x2="2136.01" y2="2094.46" gradientUnits="userSpaceOnUse">
<stop stop-color="#387EB8"/>
<stop offset="1" stop-color="#366994"/>
</linearGradient>
<linearGradient id="paint1_linear_301_392" x1="525.952" y1="565.761" x2="2441.82" y2="2376.89" gradientUnits="userSpaceOnUse">
<stop stop-color="#FFE052"/>
<stop offset="1" stop-color="#FFC331"/>
</linearGradient>
</defs>
</svg>
