<svg width="48" height="48" viewBox="0 0 48 48" fill="none" xmlns="http://www.w3.org/2000/svg">
<g clip-path="url(#clip0_12_66)">
<path d="M39.4641 15.5419C38.9533 15.3451 38.4382 15.1628 37.9192 14.9952C38.0064 14.5952 38.0866 14.2 38.1579 13.8118C39.3274 7.43684 38.5628 2.30105 35.9514 0.610107C33.4476 -1.01095 29.3528 0.67937 25.2173 4.72084C24.8098 5.11986 24.4112 5.53038 24.0221 5.952C23.7616 5.67164 23.4966 5.39671 23.227 5.12737C18.8928 0.806107 14.5485 -1.01516 11.9399 0.680633C9.4383 2.30674 8.69756 7.13474 9.75046 13.1764C9.85521 13.7748 9.97349 14.3701 10.1052 14.9617C9.49024 15.1579 8.89686 15.3667 8.32897 15.5891C3.24747 17.5785 0.00234985 20.6962 0.00234985 23.9301C0.00234985 27.2701 3.48613 30.6202 8.77874 32.6516C9.20782 32.8156 9.64048 32.9676 10.0763 33.1074C9.93476 33.7446 9.8091 34.3861 9.69946 35.0312C8.69569 40.968 9.47955 45.6819 11.9744 47.2977C14.5511 48.9663 18.8759 47.2514 23.087 43.1177C23.4284 42.7816 23.7624 42.436 24.0885 42.0813C24.5099 42.5378 24.9425 42.9811 25.3859 43.4105C29.4651 47.352 33.4937 48.9436 35.9861 47.3234C38.5604 45.6499 39.3971 40.5859 38.3109 34.4248C38.2253 33.9422 38.1293 33.4619 38.0231 32.9844C38.3268 32.8834 38.6249 32.7794 38.9155 32.6712C44.4177 30.6242 47.9977 27.3147 47.9977 23.9301C47.9977 20.6844 44.6477 17.5457 39.4641 15.5419ZM38.2707 30.4859C38.0083 30.5834 37.739 30.6775 37.4646 30.7691C36.8571 28.6097 36.0375 26.3137 35.0342 23.9413C35.9915 21.6255 36.7797 19.3587 37.3701 17.2135C37.8611 17.3731 38.3375 17.5413 38.7968 17.7187C43.2383 19.4358 45.9474 21.9741 45.9474 23.9301C45.9474 26.0135 43.0215 28.7181 38.2707 30.4859ZM36.2996 34.872C36.7799 37.5962 36.8483 40.0594 36.5302 41.9851C36.2444 43.7154 35.6696 44.8688 34.9587 45.331C33.4463 46.3141 30.2116 45.0362 26.7232 41.6653C26.3108 41.266 25.9084 40.8539 25.5164 40.4295C26.8689 38.7686 28.2204 36.8379 29.5395 34.6935C31.8598 34.4623 34.0518 34.0842 36.0397 33.5682C36.1355 34.0005 36.2221 34.4352 36.2996 34.872ZM16.365 45.1611C14.8873 45.747 13.7103 45.7638 12.9988 45.3032C11.4849 44.3227 10.8555 40.5377 11.714 35.4606C11.816 34.8607 11.9328 34.264 12.0644 33.6714C14.0303 34.1598 16.2064 34.511 18.5321 34.7227C19.8602 36.8211 21.2508 38.7497 22.6522 40.4385C22.3544 40.7621 22.0495 41.0775 21.7379 41.3842C19.8756 43.212 18.0096 44.5088 16.365 45.1611ZM9.44205 30.4731C7.10172 29.5747 5.16897 28.4074 3.84422 27.1335C2.65372 25.9888 2.05284 24.8522 2.05284 23.9301C2.05284 21.9676 4.65827 19.4644 9.00391 17.7632C9.53129 17.5568 10.0832 17.3621 10.656 17.1794C11.2567 19.3731 12.0445 21.6667 12.9952 23.9861C12.0321 26.3398 11.2331 28.6701 10.6266 30.8897C10.2287 30.7617 9.83379 30.6228 9.44205 30.4731ZM11.7627 12.7341C10.8607 7.5579 11.4597 3.65326 12.9673 2.67326C14.5729 1.62947 18.1234 3.11769 21.8657 6.84905C22.1097 7.09292 22.3498 7.34174 22.5858 7.59537C21.1913 9.27684 19.8135 11.1912 18.4972 13.2771C16.24 13.512 14.0792 13.8893 12.0927 14.3947C11.9703 13.8445 11.8603 13.2908 11.7627 12.7343V12.7341ZM32.4657 18.4747C31.9965 17.5646 31.5099 16.666 31.0062 15.7794C32.5375 15.9968 34.0048 16.2855 35.3826 16.6383C34.969 18.1272 34.4534 19.6836 33.8465 21.2794C33.403 20.3343 32.9426 19.3992 32.4657 18.4747ZM24.0231 9.24084C24.9687 10.3914 25.9159 11.6758 26.8475 13.0695C24.9577 12.9693 23.0647 12.9688 21.1748 13.0682C22.1074 11.6874 23.0626 10.4046 24.0231 9.24084ZM15.5262 18.4905C15.0553 19.4075 14.6036 20.3368 14.1713 21.2775C13.5743 19.6874 13.0634 18.1238 12.6463 16.6139C14.0157 16.2699 15.476 15.9886 16.9976 15.7752C16.4883 16.6672 15.9977 17.5725 15.5262 18.4903V18.4905ZM17.0412 32.2488C15.4692 32.0518 13.987 31.7851 12.618 31.4503C13.0417 29.9135 13.5638 28.3166 14.1737 26.6924C14.6077 27.6338 15.0613 28.5636 15.5343 29.4811C16.0206 30.4242 16.5242 31.348 17.0412 32.2488ZM24.0797 38.7815C23.1078 37.6042 22.1385 36.3017 21.1919 34.9008C22.1109 34.9413 23.0478 34.9619 24 34.9619C24.9783 34.9619 25.9453 34.9373 26.8972 34.8897C25.9626 36.3158 25.019 37.6202 24.0797 38.7815ZM33.8659 26.6095C34.5074 28.2516 35.0481 29.84 35.4774 31.3505C34.086 31.7072 32.5835 31.9943 31.0004 32.2076C31.5077 31.3045 31.9989 30.3903 32.4738 29.4653C32.9566 28.5251 33.4208 27.5729 33.8659 26.6095ZM30.6978 28.315C29.9708 29.7331 29.2029 31.1244 28.3953 32.4865C26.9325 32.6029 25.4665 32.6607 24 32.6598C22.5063 32.6598 21.0535 32.6076 19.6546 32.5057C18.8259 31.1467 18.0434 29.753 17.3086 28.3276H17.3088C16.5775 26.9097 15.8943 25.4612 15.2609 23.9851C15.8927 22.5086 16.5738 21.0594 17.3026 19.6404L17.3024 19.6406C18.031 18.2213 18.8073 16.8336 19.6296 15.4804C21.0569 15.3592 22.5206 15.296 23.9998 15.296H24C25.486 15.296 26.9515 15.3598 28.3785 15.4819C29.1925 16.833 29.9639 18.216 30.691 19.6282C31.4223 21.044 32.1123 22.4862 32.7601 23.9524C32.119 25.4336 31.4311 26.8887 30.6978 28.315ZM34.9274 2.60463C36.5345 3.64547 37.1595 7.84274 36.1498 13.3469C36.0853 13.6981 36.0129 14.0558 35.9342 14.4185C33.9427 13.9023 31.7805 13.5185 29.5167 13.28C28.1979 11.1712 26.8314 9.2539 25.4596 7.59411C25.8191 7.20495 26.1872 6.82589 26.5634 6.45726C30.1068 2.99474 33.4185 1.62758 34.9274 2.60463ZM24 19.1175C26.367 19.1175 28.2858 21.2722 28.2858 23.9301C28.2858 26.588 26.367 28.7427 24 28.7427C21.633 28.7427 19.7142 26.588 19.7142 23.9301C19.7142 21.2722 21.633 19.1175 24 19.1175Z" fill="#00D8FF"/>
</g>
<defs>
<clipPath id="clip0_12_66">
<rect width="48" height="48" fill="white"/>
</clipPath>
</defs>
</svg>
