<svg width="48" height="48" viewBox="0 0 48 48" fill="none" xmlns="http://www.w3.org/2000/svg">
<g clip-path="url(#clip0_12_67)">
<path d="M33.2574 33.3901C35.0284 33.1977 36.372 31.5956 36.3109 29.6729C36.2499 27.7503 34.723 26.2121 32.8909 26.2121H32.7689C30.8755 26.2763 29.4099 27.9425 29.471 29.9292C29.5321 30.8906 29.8984 31.7237 30.4481 32.3005C28.3717 36.5945 25.1961 39.7348 20.4326 42.3624C17.1958 44.1569 13.837 44.7978 10.4782 44.3492C7.72992 43.9647 5.59244 42.683 4.24869 40.5679C2.29455 37.4276 2.1114 34.0308 3.76035 30.6342C4.92076 28.1988 6.75267 26.4043 7.91308 25.5071C7.66881 24.674 7.30231 23.2641 7.11916 22.2388C-1.73614 28.968 -0.819993 38.0685 1.86713 42.3624C3.88239 45.567 7.97419 47.5536 12.4934 47.5536C13.7147 47.5536 14.9361 47.4254 16.1576 47.1051C23.9747 45.5028 29.8986 40.632 33.2574 33.3901ZM44.0059 25.4431C39.3645 19.7392 32.5246 16.599 24.7075 16.599H23.7305C23.1808 15.4454 22.0204 14.6762 20.7379 14.6762H20.6157C18.7227 14.7403 17.2571 16.4066 17.318 18.3934C17.3791 20.316 18.9058 21.8542 20.7379 21.8542H20.86C22.2036 21.79 23.364 20.8928 23.8525 19.6751H24.9518C29.5932 19.6751 33.9902 21.085 37.96 23.8409C41.0134 25.9558 43.212 28.7117 44.4334 32.0441C45.4715 34.7359 45.4104 37.3635 44.3111 39.6067C42.6013 43.0033 39.731 44.8619 35.9446 44.8619C33.5017 44.8619 31.1811 44.0927 29.9595 43.5159C29.2879 44.1569 28.0663 45.1822 27.2113 45.8233C29.8375 47.1049 32.5246 47.81 35.0895 47.81C40.9523 47.81 45.2884 44.4132 46.9373 41.0166C48.7083 37.2993 48.5861 30.8906 44.0059 25.4431ZM12.9819 34.4793C13.0431 36.4021 14.5698 37.9401 16.4019 37.9401H16.5241C18.4173 37.8761 19.8829 36.2097 19.8218 34.223C19.7609 32.3003 18.234 30.7623 16.4019 30.7623H16.2798C16.1576 30.7623 15.9743 30.7623 15.8524 30.8262C13.3484 26.4683 12.3103 21.7259 12.6768 16.5988C12.9208 12.7534 14.1424 9.42079 16.2798 6.66492C18.0508 4.29364 21.4707 3.14007 23.7916 3.07613C30.2649 2.94787 33.013 11.4075 33.1963 14.8043C33.9902 14.9965 35.3338 15.4452 36.2499 15.7656C35.517 5.38347 29.4099 0 23.5473 0C18.0508 0 12.9819 4.16577 10.9665 10.3182C8.15734 18.5215 9.98944 26.4043 13.4094 32.6209C13.1042 33.0694 12.9208 33.7745 12.9819 34.4795V34.4793Z" fill="#764ABC"/>
</g>
<defs>
<clipPath id="clip0_12_67">
<rect width="48" height="48" fill="white"/>
</clipPath>
</defs>
</svg>
