<?xml version="1.0" encoding="iso-8859-1"?>
<!-- Generator: Adobe Illustrator 19.0.0, SVG Export Plug-In . SVG Version: 6.00 Build 0)  -->
<svg version="1.1" id="Layer_1" xmlns="http://www.w3.org/2000/svg" xmlns:xlink="http://www.w3.org/1999/xlink" x="0px" y="0px"
	 viewBox="0 0 503.321 503.321" style="enable-background:new 0 0 503.321 503.321;" xml:space="preserve">
<g>
	<path style="fill:#13A085;" d="M416.541,125.83c-51.695,0-86.78,45.299-86.78,94.364c0,29.418,7.394,45.568,20.602,74.066
		c26.459,57.075,66.178,118.489,66.178,118.489s39.719-61.414,66.178-118.489c13.208-28.498,20.602-44.648,20.602-74.066
		C503.321,171.129,468.236,125.83,416.541,125.83"/>
	<path style="fill:#FFFFFF;" d="M459.931,212.61c0-23.969-19.421-43.39-43.39-43.39c-23.969,0-43.39,19.421-43.39,43.39
		s19.421,43.39,43.39,43.39C440.51,255.999,459.931,236.578,459.931,212.61"/>
	<g>
		<path style="fill:#3B97D3;" d="M416.541,455.593h-8.678c-4.799,0-8.678-3.879-8.678-8.678c0-4.799,3.879-8.678,8.678-8.678h8.678
			c4.799,0,8.678,3.879,8.678,8.678C425.219,451.714,421.34,455.593,416.541,455.593"/>
		<path style="fill:#3B97D3;" d="M325.686,455.593H309.25c-4.79,0-8.678-3.879-8.678-8.678c0-4.799,3.888-8.678,8.678-8.678h16.436
			c4.799,0,8.678,3.879,8.678,8.678C334.364,451.714,330.485,455.593,325.686,455.593 M374.994,455.593h-16.436
			c-4.799,0-8.678-3.879-8.678-8.678c0-4.799,3.879-8.678,8.678-8.678h16.436c4.79,0,8.678,3.879,8.678,8.678
			C383.672,451.714,379.784,455.593,374.994,455.593"/>
		<path style="fill:#3B97D3;" d="M153.949,282.033h-16.445c-4.79,0-8.678-3.879-8.678-8.678c0-4.799,3.888-8.678,8.678-8.678h16.445
			c4.799,0,8.678,3.879,8.678,8.678C162.627,278.154,158.748,282.033,153.949,282.033L153.949,282.033z M203.248,282.181
			c-0.252,0-0.495-0.009-0.738-0.035c-0.946-0.078-1.927-0.113-2.855-0.113h-12.843c-4.799,0-8.678-3.879-8.678-8.678
			c0-4.799,3.879-8.678,8.678-8.678h12.783c1.441,0.035,2.916,0.052,4.374,0.182c4.773,0.391,8.322,4.599,7.914,9.372
			C211.501,278.753,207.709,282.181,203.248,282.181L203.248,282.181z M240.355,310.497c-3.541,0-6.864-2.178-8.149-5.693
			c-1.51-4.139-3.775-7.897-6.725-11.203c-3.185-3.575-2.881-9.06,0.694-12.253c3.558-3.176,9.051-2.89,12.253,0.694
			c4.417,4.938,7.81,10.596,10.075,16.801c1.649,4.495-0.668,9.476-5.163,11.134C242.36,310.332,241.344,310.497,240.355,310.497
			L240.355,310.497z M230.297,356.1c-2.222,0-4.443-0.842-6.135-2.543c-3.393-3.384-3.393-8.878,0-12.271
			c3.124-3.124,5.589-6.76,7.333-10.813c1.892-4.4,6.994-6.413,11.403-4.539c4.4,1.892,6.43,6.994,4.539,11.403
			c-2.612,6.075-6.318,11.533-11.004,16.219C234.741,355.258,232.519,356.1,230.297,356.1L230.297,356.1z M102.228,368.813H85.792
			c-4.79,0-8.678-3.879-8.678-8.678c0-4.799,3.888-8.678,8.678-8.678h16.436c4.799,0,8.678,3.879,8.678,8.678
			C110.906,364.934,107.027,368.813,102.228,368.813L102.228,368.813z M151.536,368.813H135.1c-4.799,0-8.678-3.879-8.678-8.678
			c0-4.799,3.879-8.678,8.678-8.678h16.436c4.79,0,8.678,3.879,8.678,8.678C160.214,364.934,156.326,368.813,151.536,368.813
			L151.536,368.813z M199.595,368.813h-15.186c-4.799,0-8.678-3.879-8.678-8.678c0-4.799,3.879-8.678,8.678-8.678l16.254-0.017
			h0.174c4.712,0,8.583,3.775,8.678,8.504c0.095,4.79-3.705,8.747-8.496,8.852L199.595,368.813z M36.822,371.555
			c-3.506,0-6.812-2.143-8.131-5.623c-1.675-4.487,0.59-9.494,5.077-11.177c5.832-2.187,11.958-3.298,18.232-3.298h0.087
			c4.782,0.009,9.095,3.896,9.095,8.687c-0.009,4.79-3.471,8.669-8.261,8.669h-0.868c-3.844,0.226-8.287,0.729-12.184,2.196
			C38.87,371.382,37.837,371.555,36.822,371.555L36.822,371.555z M8.81,408.888c-0.217,0-0.434-0.009-0.66-0.026
			c-4.782-0.356-8.366-4.521-8.001-9.303c0.503-6.621,2.23-12.991,5.146-18.935c2.1-4.304,7.307-6.109,11.611-3.966
			c4.304,2.109,6.075,7.307,3.966,11.611c-1.935,3.948-3.081,8.192-3.419,12.592C17.114,405.425,13.314,408.888,8.81,408.888
			L8.81,408.888z M30.817,450.047c-1.441,0-2.89-0.356-4.244-1.111c-5.78-3.237-10.821-7.489-14.978-12.644
			c-3.02-3.723-2.447-9.19,1.284-12.201c3.74-3.011,9.199-2.43,12.201,1.293c2.786,3.428,6.135,6.257,9.988,8.418
			c4.174,2.352,5.667,7.637,3.324,11.819C36.796,448.459,33.846,450.047,30.817,450.047L30.817,450.047z M79.171,455.593H62.735
			c-4.79,0-8.678-3.879-8.678-8.678c0-4.799,3.888-8.678,8.678-8.678h16.436c4.799,0,8.678,3.879,8.678,8.678
			C87.849,451.714,83.97,455.593,79.171,455.593L79.171,455.593z M128.47,455.593h-16.427c-4.799,0-8.678-3.879-8.678-8.678
			c0-4.799,3.879-8.678,8.678-8.678h16.427c4.799,0,8.678,3.879,8.678,8.678C137.148,451.714,133.269,455.593,128.47,455.593
			L128.47,455.593z M177.778,455.593h-16.427c-4.799,0-8.678-3.879-8.678-8.678c0-4.799,3.879-8.678,8.678-8.678h16.427
			c4.799,0,8.678,3.879,8.678,8.678C186.456,451.714,182.577,455.593,177.778,455.593L177.778,455.593z M227.087,455.593H210.65
			c-4.799,0-8.678-3.879-8.678-8.678c0-4.799,3.879-8.678,8.678-8.678h16.436c4.79,0,8.678,3.879,8.678,8.678
			C235.765,451.714,231.877,455.593,227.087,455.593L227.087,455.593z M276.386,455.593h-16.427c-4.799,0-8.678-3.879-8.678-8.678
			c0-4.799,3.879-8.678,8.678-8.678h16.427c4.799,0,8.678,3.879,8.678,8.678C285.064,451.714,281.185,455.593,276.386,455.593
			L276.386,455.593z"/>
		<path style="fill:#3B97D3;" d="M104.135,282.033h-8.678c-4.799,0-8.678-3.879-8.678-8.678c0-4.799,3.879-8.678,8.678-8.678h8.678
			c4.799,0,8.678,3.879,8.678,8.678C112.812,278.154,108.933,282.033,104.135,282.033"/>
	</g>
	<path style="fill:#C03A2B;" d="M143.296,47.728c-23.101,0-40.561,16.584-47.868,34.712c-7.289-18.128-24.758-34.712-47.85-34.712
		c-47.859,0-63.479,60.433-28.906,96.23c12.869,13.329,73.225,74.292,76.861,77.329c4.209-4.183,64.208-63.818,76.67-77.329
		C206.87,106.409,191.155,47.728,143.296,47.728"/>
</g>
<g>
</g>
<g>
</g>
<g>
</g>
<g>
</g>
<g>
</g>
<g>
</g>
<g>
</g>
<g>
</g>
<g>
</g>
<g>
</g>
<g>
</g>
<g>
</g>
<g>
</g>
<g>
</g>
<g>
</g>
</svg>
