<svg width="48" height="48" viewBox="0 0 48 48" fill="none" xmlns="http://www.w3.org/2000/svg">
<g clip-path="url(#clip0_13_179)">
<path d="M47.376 23.4225L45.3825 22.188C45.3702 21.995 45.3522 21.8024 45.3285 21.6105L47.04 20.016C47.124 19.9353 47.1864 19.8347 47.2213 19.7235C47.2563 19.6123 47.2627 19.4942 47.24 19.3799C47.2173 19.2656 47.1662 19.1588 47.0914 19.0695C47.0166 18.9801 46.9205 18.911 46.812 18.8685L44.6235 18.054C44.5713 17.8628 44.5148 17.6727 44.454 17.484L45.8115 15.594C45.8813 15.4997 45.9256 15.389 45.9401 15.2725C45.9546 15.1561 45.9387 15.0379 45.894 14.9294C45.8493 14.8209 45.7774 14.7258 45.6852 14.6533C45.5929 14.5807 45.4835 14.5333 45.3675 14.5155L43.062 14.139C42.9765 13.9665 42.882 13.7955 42.7905 13.623L43.758 11.499C43.8073 11.393 43.8282 11.2761 43.8188 11.1596C43.8093 11.0431 43.7698 10.9311 43.704 10.8345C43.6384 10.738 43.5497 10.6596 43.4459 10.6064C43.3421 10.5532 43.2266 10.5269 43.11 10.53L40.7655 10.6155C40.6475 10.4604 40.5249 10.3089 40.398 10.161L40.938 7.887C40.9645 7.77288 40.9614 7.65391 40.9292 7.54129C40.8969 7.42867 40.8366 7.32611 40.7537 7.24327C40.6709 7.16044 40.5683 7.10006 40.4557 7.06782C40.3431 7.03558 40.2241 7.03255 40.11 7.059L37.836 7.599C37.6888 7.47125 37.5372 7.34868 37.3815 7.2315L37.467 4.887C37.4718 4.77023 37.4466 4.65417 37.3937 4.54996C37.3408 4.44574 37.262 4.35686 37.1649 4.29182C37.0678 4.22678 36.9556 4.18777 36.8391 4.17852C36.7226 4.16927 36.6057 4.1901 36.4995 4.239L34.3755 5.2065C34.203 5.115 34.032 5.0205 33.852 4.935L33.4755 2.6295C33.4562 2.51441 33.4078 2.40614 33.335 2.31491C33.2623 2.22367 33.1674 2.15249 33.0595 2.10806C32.9516 2.06363 32.8342 2.04743 32.7182 2.06098C32.6023 2.07453 32.4918 2.11738 32.397 2.1855L30.507 3.543C30.3195 3.4815 30.1305 3.4275 29.9445 3.3735L29.1225 1.194C29.0819 1.08497 29.0143 0.988023 28.926 0.912266C28.8377 0.836509 28.7316 0.78442 28.6177 0.760882C28.5037 0.737344 28.3857 0.743129 28.2746 0.777695C28.1635 0.812261 28.063 0.874474 27.9825 0.958502L26.388 2.679C26.1931 2.65316 25.9975 2.63265 25.8015 2.6175L24.576 0.631502C24.5153 0.531546 24.4298 0.448916 24.3279 0.391573C24.2259 0.33423 24.111 0.304108 23.994 0.304108C23.877 0.304108 23.7621 0.33423 23.6601 0.391573C23.5582 0.448916 23.4727 0.531546 23.412 0.631502L22.1775 2.6175C21.981 2.631 21.7875 2.655 21.6 2.679L20.0055 0.958502C19.9248 0.873491 19.8238 0.810441 19.7119 0.775299C19.6001 0.740157 19.4812 0.734082 19.3664 0.757647C19.2515 0.781212 19.1446 0.83364 19.0557 0.909986C18.9667 0.986331 18.8987 1.08408 18.858 1.194L18.0435 3.3735C17.85 3.4275 17.67 3.489 17.4735 3.543L15.5835 2.1855C15.4887 2.11738 15.3782 2.07453 15.2623 2.06098C15.1464 2.04743 15.0289 2.06363 14.921 2.10806C14.8131 2.15249 14.7182 2.22367 14.6455 2.31491C14.5727 2.40614 14.5243 2.51441 14.505 2.6295L14.1285 4.935C13.956 5.0205 13.7865 5.115 13.614 5.2065L11.4885 4.239C11.3824 4.1901 11.2654 4.16927 11.1489 4.17852C11.0324 4.18777 10.9202 4.22678 10.8231 4.29182C10.726 4.35686 10.6472 4.44574 10.5943 4.54996C10.5414 4.65417 10.5162 4.77023 10.521 4.887L10.599 7.2315C10.4505 7.35 10.3005 7.473 10.1535 7.599L7.8735 7.059C7.75968 7.03291 7.64109 7.03626 7.52893 7.06874C7.41676 7.10122 7.31472 7.16175 7.23246 7.24462C7.15019 7.32749 7.0904 7.42996 7.05873 7.54236C7.02707 7.65476 7.02459 7.77337 7.0515 7.887L7.584 10.161C7.458 10.3095 7.3425 10.4565 7.2165 10.6155L4.881 10.53C4.76437 10.5256 4.64855 10.5511 4.54457 10.6042C4.44059 10.6572 4.35191 10.7359 4.28696 10.8329C4.22201 10.9299 4.18295 11.0418 4.17351 11.1582C4.16406 11.2745 4.18455 11.3913 4.233 11.4975L5.2035 13.6215L4.9215 14.1375L2.6175 14.514C2.50272 14.5339 2.39483 14.5825 2.3039 14.6553C2.21297 14.7281 2.14196 14.8228 2.09748 14.9305C2.05301 15.0381 2.03651 15.1553 2.04954 15.2711C2.06258 15.3868 2.1047 15.4974 2.172 15.5925L3.54 17.4825C3.47812 17.6711 3.4206 17.8612 3.3675 18.0525L1.179 18.867C1.06976 18.9087 0.972893 18.9775 0.897512 19.0669C0.822131 19.1562 0.770704 19.2633 0.74806 19.378C0.725416 19.4928 0.732298 19.6114 0.76806 19.7227C0.803821 19.834 0.867289 19.9344 0.952504 20.0145L2.6625 21.609C2.63889 21.8009 2.62088 21.9935 2.6085 22.1865L0.616504 23.421C0.516442 23.4808 0.433598 23.5654 0.37607 23.6668C0.318542 23.7682 0.2883 23.8827 0.2883 23.9993C0.2883 24.1158 0.318542 24.2303 0.37607 24.3317C0.433598 24.4331 0.516442 24.5177 0.616504 24.5775L2.6085 25.812C2.622 26.0085 2.6385 26.2035 2.6625 26.3895L0.952504 27.9915C0.866696 28.0706 0.802642 28.1703 0.766485 28.2813C0.730328 28.3922 0.72328 28.5106 0.746018 28.625C0.768756 28.7395 0.820517 28.8461 0.896336 28.9348C0.972155 29.0235 1.06949 29.0912 1.179 29.1315L3.3675 29.9535C3.4215 30.1395 3.4755 30.327 3.54 30.516L2.172 32.406C2.1038 32.5013 2.0611 32.6124 2.04795 32.7288C2.03481 32.8453 2.05166 32.9631 2.09691 33.0712C2.14215 33.1793 2.21429 33.274 2.30646 33.3463C2.39863 33.4187 2.50777 33.4662 2.6235 33.4845L4.929 33.861C5.0145 34.0335 5.109 34.2045 5.2035 34.377L4.233 36.501C4.18455 36.6072 4.16406 36.724 4.17351 36.8403C4.18295 36.9567 4.22201 37.0686 4.28696 37.1656C4.35191 37.2626 4.44059 37.3413 4.54457 37.3944C4.64855 37.4474 4.76437 37.4729 4.881 37.4685L7.2165 37.3905C7.3425 37.5405 7.458 37.689 7.593 37.836L7.053 40.1175C7.02676 40.2307 7.0298 40.3488 7.06184 40.4605C7.09388 40.5722 7.15386 40.6739 7.23612 40.7561C7.31838 40.8382 7.42021 40.898 7.53199 40.9298C7.64377 40.9616 7.76183 40.9645 7.875 40.938L10.155 40.4055C10.3035 40.5315 10.4535 40.647 10.6095 40.773L10.524 43.1085C10.5183 43.2256 10.543 43.3421 10.5957 43.4468C10.6484 43.5515 10.7272 43.6408 10.8246 43.706C10.9219 43.7712 11.0345 43.8101 11.1514 43.819C11.2683 43.8278 11.3854 43.8063 11.4915 43.7565L13.617 42.789C13.7895 42.8805 13.959 42.975 14.1315 43.0695L14.5155 45.375C14.5345 45.4893 14.5822 45.5968 14.6542 45.6876C14.7262 45.7783 14.8201 45.8492 14.9271 45.8936C15.0341 45.938 15.1506 45.9545 15.2657 45.9414C15.3808 45.9284 15.4907 45.8862 15.585 45.819L17.4825 44.4525C17.67 44.514 17.859 44.568 18.045 44.622L18.867 46.8105C18.9064 46.9207 18.9737 47.0189 19.0622 47.0954C19.1508 47.1719 19.2577 47.2242 19.3725 47.2471C19.4873 47.2701 19.606 47.2629 19.7172 47.2264C19.8284 47.1898 19.9282 47.1251 20.007 47.0385L21.6015 45.327C21.795 45.351 21.984 45.375 22.179 45.3885L23.4135 47.3805C23.4751 47.4794 23.5608 47.561 23.6626 47.6176C23.7645 47.6741 23.879 47.7038 23.9955 47.7038C24.112 47.7038 24.2266 47.6741 24.3284 47.6176C24.4302 47.561 24.516 47.4794 24.5775 47.3805L25.812 45.3885C26.0085 45.375 26.196 45.351 26.3895 45.327L27.984 47.0385C28.0636 47.1235 28.1635 47.1867 28.2744 47.2223C28.3852 47.2579 28.5033 47.2645 28.6174 47.2417C28.7316 47.2189 28.838 47.1673 28.9267 47.0918C29.0153 47.0164 29.0832 46.9195 29.124 46.8105L29.946 44.622C30.132 44.568 30.3195 44.514 30.5085 44.4525L32.3985 45.819C32.493 45.888 32.6037 45.9315 32.7199 45.9455C32.836 45.9595 32.9539 45.9435 33.0621 45.8989C33.1703 45.8544 33.2652 45.7828 33.3379 45.6911C33.4105 45.5994 33.4584 45.4905 33.477 45.375L33.8535 43.0695C34.0335 42.975 34.206 42.882 34.377 42.789L36.501 43.7565C36.6072 43.8045 36.7239 43.8247 36.8401 43.815C36.9562 43.8054 37.068 43.7663 37.1649 43.7014C37.2617 43.6366 37.3404 43.5481 37.3936 43.4443C37.4467 43.3406 37.4725 43.225 37.4685 43.1085L37.383 40.773C37.5405 40.647 37.689 40.5315 37.8285 40.4055L40.11 40.938C40.2234 40.964 40.3415 40.9609 40.4533 40.929C40.5651 40.897 40.6671 40.8374 40.7497 40.7555C40.8323 40.6737 40.8929 40.5723 40.9258 40.4607C40.9587 40.3492 40.9629 40.2311 40.938 40.1175L40.398 37.836C40.524 37.6875 40.6485 37.5405 40.7655 37.3905L43.11 37.4685C43.2268 37.4733 43.3428 37.4481 43.447 37.3952C43.5513 37.3423 43.6401 37.2635 43.7052 37.1664C43.7702 37.0693 43.8092 36.9571 43.8185 36.8406C43.8277 36.7241 43.8069 36.6072 43.758 36.501L42.7905 34.377C42.882 34.2045 42.9765 34.0335 43.062 33.861L45.3675 33.4845C45.4826 33.4652 45.5909 33.4168 45.6821 33.344C45.7733 33.2713 45.8445 33.1764 45.8889 33.0685C45.9334 32.9606 45.9496 32.8432 45.936 32.7272C45.9225 32.6113 45.8796 32.5008 45.8115 32.406L44.454 30.516L44.6235 29.9535L46.803 29.1315C46.9129 29.0919 47.0108 29.0248 47.0873 28.9365C47.1639 28.8483 47.2164 28.7419 47.2401 28.6275C47.2637 28.5131 47.2576 28.3945 47.2223 28.2832C47.187 28.1718 47.1237 28.0714 47.0385 27.9915L45.327 26.3895C45.3435 26.2035 45.3675 26.007 45.381 25.812L47.3745 24.5775C47.4742 24.5175 47.5567 24.4327 47.6139 24.3314C47.6712 24.23 47.7013 24.1156 47.7013 23.9993C47.7013 23.8829 47.6712 23.7685 47.6139 23.6672C47.5567 23.5658 47.4742 23.481 47.3745 23.421L47.376 23.4225ZM34.0545 39.9225C32.2185 39.5325 32.805 36.774 34.6485 37.164C35.0143 37.2428 35.3338 37.4636 35.5368 37.778C35.7398 38.0923 35.8095 38.4744 35.7308 38.8402C35.652 39.2061 35.4311 39.5256 35.1168 39.7285C34.8024 39.9315 34.4203 40.0013 34.0545 39.9225ZM33.3825 35.352C33.2174 35.3164 33.0469 35.3139 32.8807 35.3445C32.7146 35.3752 32.5563 35.4384 32.4147 35.5306C32.2732 35.6228 32.1513 35.7421 32.0561 35.8816C31.9609 36.0211 31.8942 36.1781 31.86 36.3435L31.1475 39.6315C28.9032 40.6531 26.4658 41.181 24 41.1795C21.4797 41.1815 18.9895 40.6321 16.704 39.57L15.9915 36.2745C15.9574 36.1091 15.8906 35.9522 15.7952 35.8129C15.6998 35.6736 15.5776 35.5547 15.4357 35.4631C15.2939 35.3715 15.1352 35.3091 14.969 35.2794C14.8027 35.2498 14.6323 35.2536 14.4675 35.2905L11.562 35.907C11.0176 35.3524 10.5138 34.7594 10.0545 34.1325H24.219C24.3765 34.1325 24.4845 34.11 24.4845 33.96V28.9545C24.4845 28.8045 24.3765 28.782 24.219 28.782H20.0715V25.602H24.555C24.9615 25.602 26.7435 25.7175 27.3045 27.9915C27.4845 28.6875 27.876 30.96 28.14 31.6875C28.4055 32.508 29.4915 34.131 30.648 34.131H37.704C37.79 34.131 37.8758 34.1235 37.9605 34.1085C37.4744 34.7748 36.9394 35.404 36.36 35.991L33.3825 35.352ZM13.7955 39.8595C13.4292 39.935 13.0479 39.8634 12.7339 39.6602C12.4198 39.4571 12.1983 39.1386 12.117 38.7735C12.077 38.5923 12.0735 38.4049 12.1066 38.2223C12.1397 38.0397 12.2088 37.8656 12.3099 37.7099C12.411 37.5543 12.542 37.4203 12.6953 37.3158C12.8486 37.2112 13.0212 37.1382 13.203 37.101C13.5688 37.0224 13.9508 37.0924 14.2651 37.2955C14.5793 37.4986 14.7999 37.8182 14.8785 38.184C14.9571 38.5498 14.8871 38.9318 14.684 39.246C14.4809 39.5603 14.1613 39.7809 13.7955 39.8595ZM8.4225 18.0705C8.50441 18.241 8.55137 18.4261 8.56062 18.615C8.56987 18.8039 8.54122 18.9928 8.47636 19.1705C8.4115 19.3481 8.31174 19.511 8.18296 19.6495C8.05418 19.788 7.89898 19.8994 7.7265 19.977C7.55339 20.0526 7.36695 20.093 7.17805 20.0958C6.98916 20.0986 6.80161 20.0637 6.62635 19.9931C6.4511 19.9226 6.29165 19.8179 6.15732 19.6851C6.02299 19.5522 5.91648 19.394 5.844 19.2195C5.1555 17.5335 7.632 16.431 8.4225 18.072V18.0705ZM6.774 21.984L9.804 20.64C10.4535 20.352 10.7415 19.5945 10.4535 18.9465L9.828 17.532H12.2895V28.602H7.335C6.72327 26.4528 6.53227 24.2056 6.7725 21.984H6.774ZM20.0775 20.9145V17.649H25.9215C26.226 17.649 28.053 18.0015 28.053 19.3695C28.053 20.5095 26.6475 20.916 25.4985 20.916L20.0775 20.9145ZM41.328 23.8515C41.328 24.282 41.3115 24.7095 41.2815 25.131H39.4995C39.3195 25.131 39.249 25.2495 39.249 25.4295V26.241C39.249 28.1625 38.1705 28.5765 37.2165 28.6875C36.3105 28.7895 35.31 28.311 35.187 27.7575C34.6545 24.7575 33.765 24.117 32.3595 23.007C34.101 21.897 35.913 20.2725 35.913 18.0855C35.913 15.726 34.2945 14.241 33.195 13.515C31.647 12.4905 29.937 12.2895 29.475 12.2895H11.0925C13.6316 9.44762 17.0369 7.52222 20.781 6.8115L22.953 9.093C23.0695 9.21451 23.2088 9.31187 23.3629 9.37951C23.517 9.44716 23.683 9.48378 23.8512 9.48726C24.0195 9.49074 24.1868 9.46103 24.3436 9.39981C24.5004 9.3386 24.6436 9.24708 24.765 9.1305L27.1875 6.81C29.66 7.27207 32.0023 8.26699 34.0515 9.72562C36.1007 11.1842 37.8078 13.0716 39.054 15.2565L37.3905 19.0065C37.2548 19.3187 37.2474 19.6717 37.3701 19.9893C37.4928 20.3068 37.7356 20.5632 38.046 20.703L41.2425 22.1235C41.2965 22.695 41.3205 23.265 41.3205 23.8515H41.328ZM22.9545 4.8825C24.312 3.5865 26.259 5.625 24.8985 6.9225C23.547 8.094 21.726 6.18 22.9545 4.8825ZM39.4305 18.1395C39.581 17.7987 39.8607 17.5315 40.208 17.3968C40.5554 17.2621 40.9421 17.2708 41.283 17.421C42.4395 17.9295 42.399 19.5765 41.2275 20.031C40.047 20.4825 38.916 19.2885 39.432 18.1395H39.4305Z" fill="#333333"/>
</g>
<defs>
<clipPath id="clip0_13_179">
<rect width="48" height="48" fill="white"/>
</clipPath>
</defs>
</svg>
