<svg width="48" height="48" viewBox="0 0 48 48" fill="none" xmlns="http://www.w3.org/2000/svg">
<path d="M35.8983 13.0093C35.8734 12.8284 35.7149 12.7283 35.5839 12.7172C34.618 12.6447 33.6521 12.5727 32.6862 12.5012C32.6862 12.5012 30.7644 10.5934 30.5535 10.3822C30.3425 10.1712 29.9303 10.2354 29.7703 10.2825C29.7468 10.2894 29.3505 10.4117 28.6949 10.6146C28.053 8.76737 26.92 7.06985 24.927 7.06985C24.8719 7.06985 24.8153 7.07208 24.7587 7.0753C24.1918 6.32568 23.4897 6 22.8832 6C18.2403 6 16.0222 11.804 15.3267 14.7535C13.5226 15.3125 12.241 15.7099 12.0773 15.7613C11.0703 16.0772 11.0384 16.1089 10.9062 17.0578C10.8067 17.7762 8.17178 38.1531 8.17178 38.1531L28.7035 42L39.8282 39.5934C39.8282 39.5934 35.9228 13.1903 35.8983 13.0093ZM27.5601 10.9656L25.8228 11.5033C25.8234 11.3808 25.8241 11.2604 25.8241 11.1286C25.8241 9.9806 25.6647 9.05624 25.409 8.32347C26.436 8.45235 27.1199 9.62084 27.5601 10.9656ZM24.1351 8.55112C24.4206 9.26654 24.6062 10.2933 24.6062 11.6787C24.6062 11.7496 24.6056 11.8144 24.605 11.88C23.4752 12.23 22.2474 12.6099 21.017 12.9911C21.7079 10.3247 23.0029 9.03691 24.1351 8.55112ZM22.7557 7.24532C22.9561 7.24532 23.1579 7.31336 23.3511 7.44633C21.8632 8.14651 20.2682 9.90996 19.5947 13.4315L16.7586 14.3099C17.5475 11.6238 19.4208 7.24532 22.7557 7.24532Z" fill="#95BF46"/>
<path d="M35.5839 12.7173C34.618 12.6447 33.6521 12.5727 32.6862 12.5013C32.6862 12.5013 30.7644 10.5934 30.5535 10.3823C30.4746 10.3037 30.3681 10.2634 30.2568 10.2461L28.7044 41.9998L39.8282 39.5934C39.8282 39.5934 35.9228 13.1903 35.8983 13.0093C35.8734 12.8284 35.7149 12.7283 35.5839 12.7173Z" fill="#5E8E3E"/>
<path d="M24.927 18.8642L23.5552 22.9445C23.5552 22.9445 22.3534 22.3031 20.8802 22.3031C18.7204 22.3031 18.6117 23.6585 18.6117 24C18.6117 25.8636 23.4696 26.5777 23.4696 30.9428C23.4696 34.3771 21.2914 36.5886 18.3544 36.5886C14.8299 36.5886 13.0276 34.3951 13.0276 34.3951L13.9712 31.2771C13.9712 31.2771 15.8239 32.8677 17.3872 32.8677C18.4088 32.8677 18.8243 32.0635 18.8243 31.4758C18.8243 29.0449 14.8388 28.9364 14.8388 24.942C14.8388 21.58 17.2519 18.3266 22.1229 18.3266C23.9998 18.3266 24.927 18.8642 24.927 18.8642Z" fill="white"/>
</svg>
