<?xml version="1.0" encoding="iso-8859-1"?>
<!-- Generator: Adobe Illustrator 19.0.0, SVG Export Plug-In . SVG Version: 6.00 Build 0)  -->
<svg version="1.1" id="Layer_1" xmlns="http://www.w3.org/2000/svg" xmlns:xlink="http://www.w3.org/1999/xlink" x="0px" y="0px"
	 viewBox="0 0 512 512" style="enable-background:new 0 0 512 512;" xml:space="preserve">
<g>
	<path style="fill:#84DBFF;" d="M101.702,148.819c-7.072-5.917-8.009-16.446-2.092-23.518
		c18.491-22.104,41.935-40.395,67.799-52.897c8.301-4.012,18.283-0.535,22.297,7.766c4.013,8.302,0.535,18.284-7.765,22.297
		c-21.631,10.455-41.244,25.76-56.719,44.259C119.303,153.797,108.774,154.735,101.702,148.819z"/>
	<path style="fill:#84DBFF;" d="M167.408,439.597c-25.863-12.501-49.308-30.793-67.799-52.897
		c-5.917-7.072-4.98-17.601,2.092-23.518c7.072-5.916,17.6-4.98,23.518,2.094c15.475,18.499,35.088,33.804,56.719,44.259
		c8.301,4.012,11.779,13.995,7.765,22.297C185.694,440.129,175.715,443.61,167.408,439.597z"/>
</g>
<g>
	<path style="fill:#FFD15C;" d="M256,106.662c-25.326,0-45.932-20.605-45.932-45.932S230.672,14.798,256,14.798
		s45.932,20.605,45.932,45.932S281.327,106.662,256,106.662z"/>
	<path style="fill:#FFD15C;" d="M314.473,204.33H197.526c-11.379,0-19.44-11.167-15.838-21.974l19.491-58.473
		c2.273-6.817,8.652-11.416,15.838-11.416h77.965c7.187,0,13.565,4.598,15.838,11.416l19.491,58.473
		C333.909,193.15,325.865,204.33,314.473,204.33z"/>
</g>
<g>
	<path style="fill:#F8B64C;" d="M256,14.799v91.863c25.326,0,45.932-20.605,45.932-45.932S281.327,14.799,256,14.799z"/>
	<path style="fill:#F8B64C;" d="M330.312,182.355l-19.491-58.473c-2.273-6.817-8.652-11.416-15.838-11.416H256v91.863h58.473
		C325.865,204.33,333.909,193.15,330.312,182.355z"/>
</g>
<g>
	<path style="fill:#FFD15C;" d="M256,399.534c-25.326,0-45.932-20.605-45.932-45.932S230.672,307.67,256,307.67
		s45.932,20.605,45.932,45.932S281.327,399.534,256,399.534z"/>
	<path style="fill:#FFD15C;" d="M314.473,497.202H197.526c-11.379,0-19.44-11.167-15.838-21.974l19.491-58.473
		c2.273-6.817,8.652-11.416,15.838-11.416h77.965c7.187,0,13.565,4.598,15.838,11.416l19.491,58.473
		C333.909,486.022,325.865,497.202,314.473,497.202z"/>
</g>
<g>
	<path style="fill:#F8B64C;" d="M256,307.671v91.863c25.326,0,45.932-20.605,45.932-45.932S281.327,307.671,256,307.671z"/>
	<path style="fill:#F8B64C;" d="M330.312,475.228l-19.491-58.473c-2.273-6.817-8.652-11.416-15.838-11.416H256v91.863h58.473
		C325.865,497.202,333.909,486.022,330.312,475.228z"/>
</g>
<g>
	<path style="fill:#FFD15C;" d="M75.179,253.098c-25.326,0-45.932-20.605-45.932-45.932s20.605-45.932,45.932-45.932
		s45.932,20.605,45.932,45.932S100.507,253.098,75.179,253.098z"/>
	<path style="fill:#FFD15C;" d="M133.653,350.765H16.706c-11.379,0-19.44-11.167-15.838-21.974l19.491-58.473
		c2.273-6.817,8.652-11.416,15.838-11.416h77.964c7.187,0,13.565,4.598,15.838,11.415l19.492,58.473
		C153.089,339.586,145.044,350.765,133.653,350.765z"/>
</g>
<g>
	<path style="fill:#F8B64C;" d="M75.179,161.236v91.863c25.326,0,45.932-20.605,45.932-45.932S100.507,161.236,75.179,161.236z"/>
	<path style="fill:#F8B64C;" d="M149.492,328.791l-19.491-58.473c-2.273-6.817-8.652-11.416-15.838-11.416H75.179v91.863h58.473
		C145.045,350.765,153.089,339.586,149.492,328.791z"/>
</g>
<g>
	<path style="fill:#FFD15C;" d="M436.82,253.098c-25.326,0-45.932-20.605-45.932-45.932s20.605-45.932,45.932-45.932
		s45.932,20.605,45.932,45.932S462.146,253.098,436.82,253.098z"/>
	<path style="fill:#FFD15C;" d="M495.294,350.765H378.347c-11.379,0-19.44-11.168-15.838-21.975l19.492-58.473
		c2.273-6.817,8.652-11.415,15.838-11.415h77.964c7.187,0,13.565,4.598,15.838,11.416l19.491,58.473
		C514.73,339.586,506.685,350.765,495.294,350.765z"/>
</g>
<g>
	<path style="fill:#F8B64C;" d="M436.82,161.236v91.863c25.326,0,45.932-20.605,45.932-45.932S462.146,161.236,436.82,161.236z"/>
	<path style="fill:#F8B64C;" d="M511.133,328.791l-19.491-58.473c-2.273-6.817-8.652-11.416-15.838-11.416h-38.983v91.863h58.473
		C506.685,350.765,514.73,339.586,511.133,328.791z"/>
</g>
<g>
	<path style="fill:#54C9EB;" d="M386.78,146.725c-15.475-18.499-35.088-33.804-56.719-44.259
		c-8.301-4.012-11.779-13.995-7.765-22.297c4.011-8.301,13.995-11.778,22.297-7.766c25.863,12.501,49.308,30.793,67.799,52.897
		c5.917,7.072,4.98,17.601-2.092,23.518C403.224,154.733,392.698,153.799,386.78,146.725z"/>
	<path style="fill:#54C9EB;" d="M322.295,431.83c-4.012-8.302-0.535-18.284,7.765-22.297c21.631-10.456,41.244-25.76,56.719-44.259
		c5.917-7.072,16.447-8.009,23.518-2.094c7.072,5.917,8.009,16.446,2.092,23.518c-18.491,22.104-41.935,40.395-67.799,52.897
		C336.292,443.607,326.309,440.135,322.295,431.83z"/>
</g>
<g>
</g>
<g>
</g>
<g>
</g>
<g>
</g>
<g>
</g>
<g>
</g>
<g>
</g>
<g>
</g>
<g>
</g>
<g>
</g>
<g>
</g>
<g>
</g>
<g>
</g>
<g>
</g>
<g>
</g>
</svg>
