<svg width="48" height="48" viewBox="0 0 48 48" fill="none" xmlns="http://www.w3.org/2000/svg">
<path d="M43.032 3H4.968C3.8811 3 3 3.8811 3 4.968V43.032C3 44.1189 3.8811 45 4.968 45H43.032C44.1189 45 45 44.1189 45 43.032V4.968C45 3.8811 44.1189 3 43.032 3Z" fill="#3178C6"/>
<path fill-rule="evenodd" clip-rule="evenodd" d="M27.3675 35.6385V40.2405C28.2037 40.6532 29.0948 40.9437 30.0135 41.103C31.0752 41.299 32.1529 41.3954 33.2325 41.391C34.2847 41.396 35.3346 41.2899 36.3645 41.0745C37.2892 40.8876 38.1715 40.5317 38.967 40.0245C39.7055 39.5478 40.3142 38.8953 40.7385 38.1255C41.4984 36.5315 41.5987 34.702 41.0175 33.0345C40.7723 32.4109 40.4068 31.8416 39.942 31.359C39.4431 30.8458 38.8763 30.4032 38.2575 30.0435C37.5451 29.6262 36.8048 29.2584 36.042 28.9425C35.442 28.6935 34.902 28.4515 34.422 28.2165C33.9957 28.0124 33.5877 27.772 33.2025 27.498C32.9008 27.2865 32.6388 27.0235 32.4285 26.721C32.2468 26.4464 32.1522 26.1233 32.157 25.794C32.153 25.4909 32.2375 25.1933 32.4 24.9375C32.5766 24.6698 32.8121 24.4461 33.0885 24.2835C33.4264 24.0846 33.7941 23.9412 34.1775 23.859C34.6482 23.7544 35.1294 23.7041 35.6115 23.709C36.017 23.7104 36.422 23.7395 36.8235 23.796C37.2572 23.8546 37.6862 23.9433 38.1075 24.0615C38.5361 24.1803 38.9552 24.3307 39.3615 24.5115C39.7558 24.6872 40.1329 24.8991 40.488 25.1445V20.85C39.7487 20.5703 38.982 20.3692 38.2005 20.25C37.2569 20.1127 36.3041 20.048 35.3505 20.0565C34.3082 20.0509 33.2689 20.1692 32.2545 20.409C31.3376 20.6185 30.4658 20.9909 29.6805 21.5085C28.951 21.9944 28.3487 22.6482 27.924 23.415C27.474 24.2665 27.2513 25.2197 27.2775 26.1825C27.2443 27.4557 27.6636 28.6994 28.461 29.6925C29.4393 30.7936 30.6729 31.6378 32.0535 32.151C32.6835 32.411 33.271 32.6655 33.816 32.9145C34.3077 33.1333 34.7804 33.3927 35.229 33.69C35.5909 33.9254 35.9087 34.2224 36.168 34.5675C36.396 34.8805 36.517 35.2587 36.513 35.646C36.5151 35.9362 36.4406 36.2218 36.297 36.474C36.1375 36.745 35.9133 36.9723 35.6445 37.1355C35.3082 37.3406 34.9402 37.4886 34.5555 37.5735C34.0544 37.6855 33.5419 37.7384 33.0285 37.731C32.021 37.7292 31.0215 37.5515 30.075 37.206C29.0862 36.8492 28.1693 36.3183 27.3675 35.6385ZM19.6365 24.1815H25.6365V20.391H8.90701V24.1815H14.88V41.0625H19.6365V24.1815Z" fill="white"/>
</svg>
