<svg width="48" height="48" viewBox="0 0 48 48" fill="none" xmlns="http://www.w3.org/2000/svg">
<path d="M44.826 9.219L25.113 44.469C25.0204 44.6348 24.8854 44.773 24.7219 44.8694C24.5583 44.9659 24.3721 45.0171 24.1822 45.0179C23.9923 45.0186 23.8056 44.9689 23.6413 44.8738C23.477 44.7786 23.3409 44.6415 23.247 44.4765L3.14399 9.222C3.04292 9.04511 2.9944 8.84306 3.00412 8.63956C3.01384 8.43606 3.08141 8.23956 3.19888 8.07311C3.31636 7.90666 3.47887 7.77717 3.66735 7.69984C3.85583 7.6225 4.06246 7.60053 4.26299 7.6365L23.997 11.1645C24.1225 11.1871 24.251 11.1871 24.3765 11.1645L43.698 7.6425C43.8977 7.606 44.1038 7.62704 44.292 7.70316C44.4803 7.77929 44.643 7.90736 44.7612 8.07245C44.8795 8.23754 44.9483 8.43284 44.9598 8.63558C44.9713 8.83831 44.9249 9.04013 44.826 9.2175V9.219Z" fill="url(#paint0_linear_13_272)"/>
<path d="M33.396 3.0105L18.81 5.868C18.6932 5.8908 18.5874 5.95183 18.5092 6.04147C18.4309 6.1311 18.3848 6.24423 18.378 6.363L17.481 21.519C17.476 21.6021 17.4905 21.6853 17.5234 21.7619C17.5562 21.8384 17.6064 21.9062 17.6701 21.96C17.7337 22.0137 17.809 22.0519 17.89 22.0714C17.9709 22.0909 18.0553 22.0913 18.1365 22.0725L22.197 21.135C22.2845 21.1148 22.3756 21.1169 22.4621 21.1411C22.5485 21.1654 22.6275 21.2109 22.6917 21.2737C22.7559 21.3364 22.8034 21.4143 22.8296 21.5001C22.8559 21.586 22.8601 21.6771 22.842 21.765L21.636 27.6735C21.6174 27.7645 21.6227 27.8587 21.6515 27.947C21.6803 28.0352 21.7316 28.1145 21.8003 28.177C21.869 28.2394 21.9527 28.283 22.0433 28.3033C22.1339 28.3237 22.2282 28.3201 22.317 28.293L24.825 27.531C24.9139 27.5038 25.0084 27.5002 25.0992 27.5206C25.1899 27.541 25.2738 27.5847 25.3425 27.6474C25.4112 27.71 25.4625 27.7895 25.4911 27.878C25.5198 27.9665 25.5249 28.0609 25.506 28.152L23.5875 37.4325C23.4675 38.013 24.24 38.3295 24.5625 37.833L24.777 37.5L36.6645 13.7775C36.7091 13.6881 36.7278 13.588 36.7186 13.4886C36.7093 13.3891 36.6724 13.2942 36.612 13.2146C36.5516 13.135 36.4701 13.0739 36.3768 13.0382C36.2835 13.0025 36.1821 12.9936 36.084 13.0125L31.9035 13.818C31.8135 13.8352 31.7206 13.8291 31.6337 13.8001C31.5467 13.7712 31.4687 13.7204 31.407 13.6527C31.3453 13.585 31.302 13.5026 31.2812 13.4133C31.2605 13.3241 31.263 13.231 31.2885 13.143L34.0155 3.684C34.0412 3.59572 34.0437 3.5023 34.0228 3.41275C34.002 3.32321 33.9584 3.24054 33.8963 3.17272C33.8342 3.10491 33.7557 3.05422 33.6683 3.02554C33.581 2.99687 33.4877 2.99117 33.3975 3.009L33.396 3.0105Z" fill="url(#paint1_linear_13_272)"/>
<defs>
<linearGradient id="paint0_linear_13_272" x1="2.65277" y1="6.37629" x2="27.1855" y2="39.6937" gradientUnits="userSpaceOnUse">
<stop stop-color="#41D1FF"/>
<stop offset="1" stop-color="#BD34FE"/>
</linearGradient>
<linearGradient id="paint1_linear_13_272" x1="22.863" y1="3.78567" x2="27.3008" y2="34.2289" gradientUnits="userSpaceOnUse">
<stop stop-color="#FFEA83"/>
<stop offset="0.083" stop-color="#FFDD35"/>
<stop offset="1" stop-color="#FFA800"/>
</linearGradient>
</defs>
</svg>
