<svg width="48" height="48" viewBox="0 0 48 48" fill="none" xmlns="http://www.w3.org/2000/svg">
<path d="M43.515 7.545L34.866 3.381C34.3776 3.1455 33.828 3.06778 33.2934 3.15863C32.7588 3.24947 32.2657 3.50437 31.8825 3.888L3.57001 29.7C3.2265 30.0117 3.02087 30.4471 2.99837 30.9104C2.97586 31.3737 3.13833 31.827 3.45001 32.1705C3.48751 32.211 3.52501 32.25 3.56551 32.286L5.87701 34.386C6.17906 34.6609 6.56785 34.8213 6.97586 34.8394C7.38387 34.8575 7.78533 34.7321 8.11051 34.485L42.213 8.625C42.4706 8.42954 42.7776 8.30986 43.0995 8.27943C43.4215 8.249 43.7455 8.30903 44.0351 8.45276C44.3248 8.59649 44.5686 8.81822 44.739 9.09299C44.9095 9.36776 44.9999 9.68465 45 10.008V9.9075C45 9.41385 44.8606 8.93024 44.5979 8.5123C44.3352 8.09436 43.9598 7.75907 43.515 7.545Z" fill="#0065A9"/>
<path d="M43.515 40.455L34.866 44.6205C34.3774 44.8553 33.828 44.9327 33.2936 44.8419C32.7591 44.7511 32.2661 44.4966 31.8825 44.1135L3.57001 18.3C3.2265 17.9883 3.02087 17.5529 2.99837 17.0896C2.97586 16.6263 3.13833 16.173 3.45001 15.8295C3.48751 15.789 3.52501 15.75 3.56551 15.714L5.87701 13.614C6.17936 13.3379 6.56904 13.1768 6.97806 13.1587C7.38708 13.1406 7.78947 13.2667 8.11501 13.515L42.213 39.375C42.4706 39.5705 42.7776 39.6901 43.0995 39.7206C43.4215 39.751 43.7455 39.691 44.0351 39.5472C44.3248 39.4035 44.5686 39.1818 44.739 38.907C44.9095 38.6322 44.9999 38.3154 45 37.992V38.1C44.9984 38.5923 44.8583 39.0743 44.5957 39.4907C44.3331 39.9072 43.9586 40.2414 43.515 40.455Z" fill="#007ACC"/>
<path d="M34.866 44.6205C34.3774 44.8553 33.828 44.9327 33.2935 44.8419C32.7591 44.751 32.2661 44.4965 31.8825 44.1135C32.0979 44.3261 32.3713 44.4704 32.6683 44.5283C32.9654 44.5862 33.2729 44.5552 33.5524 44.439C33.8319 44.3229 34.0709 44.1269 34.2395 43.8755C34.408 43.6242 34.4987 43.3286 34.5 43.026V4.974C34.5002 4.66993 34.4102 4.37263 34.2414 4.11976C34.0725 3.86688 33.8324 3.66982 33.5515 3.55352C33.2705 3.43722 32.9614 3.40692 32.6632 3.46647C32.365 3.52601 32.0912 3.67272 31.8765 3.888C32.2598 3.50451 32.7528 3.24959 33.2872 3.15849C33.8217 3.0674 34.3713 3.14463 34.86 3.3795L43.5075 7.5375C43.9537 7.7505 44.3306 8.08533 44.5947 8.50335C44.8588 8.92137 44.9993 9.40555 45 9.9V38.1C45.0001 38.5941 44.8606 39.0781 44.5976 39.4964C44.3346 39.9146 43.9588 40.25 43.5135 40.464L34.866 44.6205Z" fill="#1F9CF0"/>
</svg>
