<svg width="48" height="48" viewBox="0 0 48 48" fill="none" xmlns="http://www.w3.org/2000/svg">
<g clip-path="url(#clip0_13_271)">
<path d="M24 0C10.749 0 0 10.749 0 24C0 37.251 10.749 48 24 48C37.251 48 48 37.251 48 24C48 10.749 37.251 0 24 0Z" fill="#368FB9"/>
<path d="M38.1219 32.6362C36.6394 32.9884 35.8888 33.3127 34.0541 34.5081C31.1908 36.3613 28.0586 37.2231 28.0586 37.2231C28.0586 37.2231 27.7993 37.6123 27.0486 37.7884C25.7514 38.1034 20.868 38.3722 20.4233 38.3814C19.2278 38.3908 18.4958 38.0758 18.2919 37.5846C17.6711 36.102 19.1814 35.4532 19.1814 35.4532C19.1814 35.4532 18.8479 35.2494 18.6533 35.064C18.4772 34.8879 18.2919 34.536 18.2363 34.6656C18.0047 35.2309 17.8841 36.6116 17.2633 37.2324C16.4108 38.0942 14.7984 37.8069 13.8441 37.3065C12.7969 36.7506 13.9181 35.4441 13.9181 35.4441C13.9181 35.4441 13.3528 35.7776 12.8989 35.0919C12.4911 34.4619 12.1114 33.3868 12.2132 32.0619C12.3244 30.5514 14.0108 29.0873 14.0108 29.0873C14.0108 29.0873 13.7143 26.8541 14.6873 24.5653C15.5676 22.4803 17.9398 20.8031 17.9398 20.8031C17.9398 20.8031 15.9474 18.5977 16.6888 16.6147C17.1707 15.3172 17.3653 15.3266 17.5228 15.2711C18.0788 15.0579 18.6161 14.8262 19.0148 14.3908C21.0069 12.2409 23.5459 12.6486 23.5459 12.6486C23.5459 12.6486 24.7506 8.98856 25.8626 9.702C26.2054 9.92437 27.4378 12.6671 27.4378 12.6671C27.4378 12.6671 28.7537 11.898 28.902 12.1852C29.6989 13.7329 29.7915 16.6888 29.4394 18.4866C28.8463 21.4517 27.3638 23.0456 26.7707 24.0463C26.6318 24.2781 28.3644 25.0101 29.4579 28.0401C30.468 30.8107 29.5691 33.1367 29.7266 33.3962C29.7544 33.4425 29.7638 33.4611 29.7638 33.4611C29.7638 33.4611 30.9219 33.5537 33.2479 32.1174C34.4895 31.3483 35.9629 30.4866 37.6401 30.468C39.2619 30.4401 39.3452 32.3398 38.1219 32.6362ZM40.3275 31.2741C40.1606 29.9584 39.0488 29.0503 37.6217 29.0687C35.4904 29.0964 33.702 30.1993 32.5159 30.9313C32.0526 31.2186 31.6541 31.4317 31.3112 31.5893C31.3853 30.5143 31.3206 29.1058 30.7644 27.5584C30.0879 25.7049 29.1801 24.5653 28.5313 23.9074C29.2819 22.8139 30.3105 21.2201 30.7922 18.7552C31.2092 16.6517 31.0796 13.3808 30.1251 11.5459C29.9304 11.1754 29.6063 10.9065 29.1984 10.7953C29.0316 10.749 28.7166 10.6564 28.0958 10.8324C27.1599 8.89575 26.8356 8.69194 26.5853 8.52506C26.0664 8.1915 25.4548 8.11744 24.8803 8.33044C24.1112 8.6085 23.4534 9.34987 22.8324 10.6656C22.7431 10.8513 22.6596 11.0398 22.5823 11.2309C21.4054 11.3143 19.5521 11.7405 17.9861 13.4363C17.7915 13.6494 17.4116 13.8069 17.013 13.9553H17.0224C16.2069 14.2425 15.8363 14.9096 15.3823 16.1143C14.7521 17.8007 15.4007 19.4593 16.0401 20.5344C15.1691 21.3127 14.0108 22.5544 13.3993 24.0092C12.6394 25.8069 12.5559 27.5676 12.5837 28.5219C11.9351 29.2078 10.9344 30.4958 10.8231 31.9414C10.6749 33.9613 11.4069 35.3329 11.7313 35.8331C11.8239 35.9814 11.9259 36.102 12.0369 36.2224C12 36.4725 11.9908 36.7414 12.0463 37.0192C12.1669 37.668 12.5745 38.1962 13.1953 38.5298C14.4186 39.1785 16.1235 39.4564 17.4394 38.7984C17.9119 39.2989 18.7738 39.7808 20.3398 39.7808H20.4324C20.8309 39.7808 25.8904 39.5121 27.3638 39.1507C28.0217 38.9931 28.4756 38.715 28.7723 38.4649C29.7173 38.1682 32.3304 37.2788 34.7953 35.685C36.5374 34.5544 37.1398 34.3134 38.4371 33.9984C39.6971 33.6928 40.485 32.5436 40.3275 31.2741Z" fill="white"/>
</g>
<defs>
<clipPath id="clip0_13_271">
<rect width="48" height="48" fill="white"/>
</clipPath>
</defs>
</svg>
